<svg width="152" height="45" viewBox="0 0 152 45" fill="none" xmlns="http://www.w3.org/2000/svg">
<path d="M146.673 45H5.32738C3.91613 44.9997 2.56262 44.4402 1.56387 43.4442C0.565111 42.4482 0.00268524 41.0971 0 39.6874L0 5.31821C0.00208775 3.90779 0.564142 2.55578 1.56287 1.55878C2.56159 0.561775 3.91543 0.00119045 5.32738 0L146.672 0C148.083 0.00178446 149.437 0.56256 150.435 1.55944C151.434 2.55631 151.996 3.90797 151.999 5.31821V39.6874C152.001 42.6177 149.607 45 146.673 45Z" fill="#A6A6A6"/>
<path d="M150.992 39.6874C150.992 40.2537 150.88 40.8145 150.663 41.3377C150.446 41.8609 150.127 42.3363 149.726 42.7365C149.325 43.1368 148.849 43.4542 148.325 43.6705C147.801 43.8868 147.239 43.9979 146.672 43.9973H5.32721C4.1816 43.9985 3.08242 43.5451 2.2714 42.7369C1.46038 41.9286 1.00393 40.8317 1.00244 39.6874V5.31703C1.00393 4.17215 1.4602 3.07465 2.27106 2.26552C3.08192 1.45639 4.18108 1.00176 5.32721 1.00146H146.671C147.239 1.00146 147.8 1.1131 148.324 1.32999C148.849 1.54688 149.325 1.86478 149.726 2.26553C150.127 2.66628 150.445 3.14204 150.662 3.66562C150.879 4.1892 150.991 4.75035 150.99 5.31703L150.992 39.6874Z" fill="black"/>
<path d="M33.9404 22.2632C33.9077 18.6363 36.9133 16.8718 37.0507 16.7897C35.3485 14.3106 32.7102 13.9719 31.783 13.9449C29.5672 13.7119 27.4177 15.2694 26.2889 15.2694C25.1376 15.2694 23.3994 13.9674 21.5259 14.0056C19.1152 14.0428 16.8598 15.437 15.6229 17.6021C13.0702 22.0167 14.974 28.5041 17.4197 32.0725C18.6431 33.8212 20.0727 35.7714 21.9439 35.7027C23.7745 35.6285 24.4583 34.538 26.6675 34.538C28.8563 34.538 29.4984 35.7027 31.4068 35.6589C33.3715 35.6285 34.6084 33.9034 35.789 32.14C37.2028 30.1381 37.7706 28.1643 37.7931 28.063C37.7481 28.0473 33.9787 26.6091 33.9404 22.2632ZM30.3355 11.5975C31.32 10.3675 31.9937 8.69419 31.8067 6.99609C30.3816 7.05911 28.5995 7.98074 27.5732 9.1837C26.6652 10.2437 25.8541 11.9812 26.0636 13.6152C27.6644 13.7344 29.3081 12.8083 30.3355 11.5975Z" fill="white"/>
<path d="M60.4556 35.4518H57.8972L56.4958 31.053H51.6247L50.2897 35.4518H47.799L52.6262 20.4762H55.607L60.4556 35.4518ZM56.0734 29.2075L54.806 25.297C54.672 24.8975 54.4196 23.9568 54.0501 22.4759H54.0051C53.8564 23.1128 53.6187 24.0536 53.2931 25.297L52.0471 29.2075H56.0734ZM72.8452 29.9198C72.8452 31.7563 72.3462 33.208 71.3469 34.2736C70.4525 35.2223 69.3406 35.696 68.0147 35.696C66.5828 35.696 65.5532 35.1862 64.9279 34.1645V39.8304H62.5262V28.2026C62.5262 27.0491 62.4958 25.8664 62.4372 24.6534H64.5494L64.6835 26.3649H64.7285C65.5295 25.0753 66.745 24.4305 68.3763 24.4305C69.6515 24.4305 70.7161 24.9336 71.5677 25.9407C72.4183 26.9501 72.8452 28.2757 72.8452 29.9198ZM70.3984 30.0076C70.3984 28.9565 70.1618 28.09 69.6864 27.407C69.1671 26.6969 68.4698 26.3413 67.5956 26.3413C67.003 26.3413 66.4645 26.5394 65.9835 26.9299C65.5013 27.3237 65.1859 27.838 65.0383 28.4749C64.9725 28.7131 64.935 28.9582 64.9268 29.2052V31.0068C64.9268 31.7912 65.1679 32.454 65.6501 32.9964C66.1322 33.5365 66.7586 33.8077 67.5291 33.8077C68.4337 33.8077 69.1378 33.4578 69.6414 32.7635C70.1461 32.0669 70.3984 31.1486 70.3984 30.0076ZM85.2788 29.9198C85.2788 31.7563 84.7798 33.208 83.7805 34.2736C82.8849 35.2223 81.7742 35.696 80.4471 35.696C79.0153 35.696 77.9856 35.1862 77.3604 34.1645V39.8304H74.9586V28.2026C74.9586 27.0491 74.9282 25.8664 74.8696 24.6534H76.9819L77.1159 26.3649H77.161C77.9608 25.0753 79.1764 24.4305 80.8087 24.4305C82.0828 24.4305 83.1474 24.9336 84.0013 25.9407C84.8507 26.9501 85.2788 28.2757 85.2788 29.9198ZM82.8308 30.0076C82.8308 28.9565 82.5931 28.09 82.1177 27.407C81.5984 26.6969 80.9033 26.3413 80.0292 26.3413C79.4366 26.3413 78.8981 26.5394 78.4148 26.9299C77.9327 27.3237 77.6184 27.838 77.4708 28.4749C77.3976 28.772 77.3581 29.0139 77.3581 29.2052V31.0068C77.3581 31.7912 77.6003 32.454 78.0802 32.9964C78.5624 33.5354 79.1888 33.8077 79.9616 33.8077C80.8673 33.8077 81.5714 33.4578 82.0738 32.7635C82.5785 32.0669 82.8308 31.1486 82.8308 30.0076ZM99.1803 31.251C99.1803 32.526 98.7341 33.5624 97.8476 34.3625C96.872 35.2358 95.51 35.6735 93.7639 35.6735C92.1507 35.6735 90.8574 35.3629 89.8818 34.7406L90.4372 32.7409C91.4905 33.3644 92.6475 33.675 93.9069 33.675C94.8127 33.675 95.5168 33.4702 96.0192 33.0639C96.5228 32.6566 96.7773 32.1119 96.7773 31.4322C96.7773 30.8234 96.5667 30.3137 96.1532 29.8984C95.7376 29.4843 95.0504 29.0983 94.0849 28.7439C91.4601 27.766 90.1466 26.3357 90.1466 24.4542C90.1466 23.2253 90.6107 22.2193 91.5367 21.4327C92.4627 20.6472 93.6906 20.2545 95.2182 20.2545C96.5825 20.2545 97.7191 20.492 98.6215 20.9657L98.0188 22.9215C97.1694 22.4624 96.2107 22.2328 95.1382 22.2328C94.2911 22.2328 93.6264 22.441 93.151 22.8551C92.7511 23.2253 92.5483 23.6766 92.5483 24.2122C92.5483 24.803 92.7793 25.2937 93.2389 25.6785C93.6377 26.033 94.3654 26.419 95.4176 26.8331C96.7086 27.353 97.6572 27.9584 98.2644 28.6538C98.8761 29.3493 99.1803 30.2169 99.1803 31.251ZM107.141 26.4538H104.494V31.6967C104.494 33.0302 104.96 33.6952 105.896 33.6952C106.325 33.6952 106.681 33.6592 106.962 33.5838L107.029 35.4057C106.556 35.5824 105.933 35.6713 105.161 35.6713C104.212 35.6713 103.471 35.3821 102.936 34.8036C102.403 34.2252 102.135 33.2563 102.135 31.8925V26.4493H100.558V24.6488H102.135V22.6717L104.494 21.9605V24.6488H107.141V26.4538ZM119.062 29.9637C119.062 31.6235 118.587 32.9863 117.639 34.0519C116.646 35.1491 115.326 35.696 113.68 35.696C112.091 35.696 110.829 35.1705 109.887 34.1206C108.945 33.0684 108.474 31.7428 108.474 30.1437C108.474 28.4704 108.961 27.0998 109.931 26.0341C110.903 24.9673 112.212 24.4339 113.858 24.4339C115.444 24.4339 116.718 24.9606 117.682 26.0116C118.604 27.0311 119.062 28.3477 119.062 29.9637ZM116.573 30.0188C116.573 29.0297 116.359 28.1812 115.93 27.4711C115.426 26.6136 114.705 26.1849 113.771 26.1849C112.809 26.1849 112.071 26.6136 111.569 27.4711C111.138 28.1812 110.924 29.0443 110.924 30.0638C110.924 31.0541 111.138 31.9048 111.569 32.6127C112.088 33.4702 112.812 33.8989 113.751 33.8989C114.669 33.8989 115.389 33.4611 115.909 32.5913C116.351 31.8643 116.573 31.0102 116.573 30.0188ZM126.873 26.7633C126.623 26.7183 126.37 26.696 126.116 26.6969C125.271 26.6969 124.617 27.0142 124.158 27.6534C123.759 28.2161 123.558 28.9273 123.558 29.7859V35.4518H121.157V28.054C121.159 26.9205 121.136 25.787 121.087 24.6545H123.179L123.267 26.7205H123.333C123.588 26.0105 123.987 25.4377 124.534 25.0089C125.035 24.6343 125.644 24.4314 126.27 24.4305C126.492 24.4305 126.692 24.4463 126.87 24.4744L126.873 26.7633ZM137.614 29.5417C137.62 29.9064 137.591 30.2708 137.526 30.6299H130.321C130.348 31.6967 130.697 32.5136 131.366 33.0763C131.974 33.5782 132.759 33.8302 133.723 33.8302C134.79 33.8302 135.763 33.6615 136.639 33.3205L137.015 34.9848C135.992 35.4304 134.784 35.6521 133.391 35.6521C131.715 35.6521 130.399 35.1592 129.441 34.1757C128.486 33.1911 128.007 31.8677 128.007 30.2101C128.007 28.5829 128.452 27.2269 129.343 26.1455C130.276 24.9909 131.537 24.4137 133.123 24.4137C134.681 24.4137 135.86 24.9909 136.661 26.1455C137.295 27.0604 137.614 28.1947 137.614 29.5417ZM135.324 28.9194C135.341 28.2071 135.183 27.5938 134.858 27.075C134.442 26.4066 133.802 26.0735 132.945 26.0735C132.16 26.0735 131.52 26.3987 131.033 27.0514C130.633 27.5702 130.395 28.1936 130.322 28.9171L135.324 28.9194Z" fill="white"/>
<path d="M135.577 10.8564C135.195 10.8564 134.878 10.9834 134.624 11.2373C134.373 11.4912 134.233 11.8216 134.203 12.2285H136.896C136.883 11.8151 136.756 11.4831 136.515 11.2324C136.274 10.9818 135.961 10.8564 135.577 10.8564ZM136.891 13.8105H137.903C137.828 14.2858 137.579 14.6748 137.155 14.9775C136.731 15.277 136.222 15.4268 135.625 15.4268C134.857 15.4268 134.247 15.1859 133.798 14.7041C133.351 14.2191 133.128 13.5615 133.128 12.7314C133.128 11.9014 133.351 11.2373 133.798 10.7393C134.244 10.2412 134.839 9.99219 135.581 9.99219C136.311 9.99219 136.89 10.2282 137.316 10.7002C137.743 11.1689 137.956 11.8053 137.956 12.6094V12.9805H134.198V13.0439C134.198 13.5029 134.33 13.8724 134.594 14.1523C134.858 14.429 135.208 14.5674 135.645 14.5674C135.954 14.5674 136.222 14.499 136.446 14.3623C136.671 14.2256 136.819 14.0417 136.891 13.8105Z" fill="white"/>
<path d="M127.567 15.3633V8H128.618V10.9541H128.642C128.965 10.3193 129.54 10.002 130.367 10.002C130.95 10.002 131.418 10.181 131.77 10.5391C132.125 10.8971 132.302 11.3757 132.302 11.9746V15.3633H131.247V12.1797C131.247 11.7826 131.136 11.4717 130.915 11.2471C130.693 11.0225 130.388 10.9102 130.001 10.9102C129.59 10.9102 129.258 11.0404 129.004 11.3008C128.753 11.5612 128.627 11.903 128.627 12.3262V15.3633H127.567Z" fill="white"/>
<path d="M124.557 8.86914H125.612V10.0605H126.629V10.8955H125.612V13.8594C125.612 14.0905 125.664 14.2614 125.769 14.3721C125.876 14.4795 126.041 14.5332 126.262 14.5332C126.389 14.5332 126.51 14.5251 126.624 14.5088V15.3438C126.481 15.3796 126.282 15.3975 126.028 15.3975C125.497 15.3975 125.119 15.2884 124.894 15.0703C124.669 14.849 124.557 14.4811 124.557 13.9668V10.8955H123.824V10.0605H124.557V8.86914Z" fill="white"/>
<path d="M116.225 15.3633V10.0605H117.236V10.9541H117.256C117.585 10.3193 118.16 10.002 118.981 10.002C119.567 10.002 120.028 10.1777 120.364 10.5293C120.703 10.8776 120.872 11.3561 120.872 11.9648V15.3633H119.812V12.165C119.812 11.7614 119.709 11.4521 119.504 11.2373C119.299 11.0192 119.002 10.9102 118.614 10.9102C118.214 10.9102 117.891 11.0387 117.647 11.2959C117.406 11.5498 117.285 11.8851 117.285 12.3018V15.3633H116.225Z" fill="white"/>
<path d="M114.695 14.6943C114.246 15.1826 113.636 15.4268 112.867 15.4268C112.099 15.4268 111.488 15.1826 111.035 14.6943C110.582 14.2061 110.356 13.5452 110.356 12.7119C110.356 11.8818 110.582 11.221 111.035 10.7295C111.491 10.238 112.102 9.99219 112.867 9.99219C113.633 9.99219 114.242 10.238 114.695 10.7295C115.148 11.2178 115.374 11.8786 115.374 12.7119C115.374 13.5452 115.148 14.2061 114.695 14.6943ZM111.812 14.0645C112.066 14.3867 112.418 14.5479 112.867 14.5479C113.317 14.5479 113.667 14.3867 113.918 14.0645C114.172 13.7422 114.299 13.2913 114.299 12.7119C114.299 12.1325 114.172 11.6816 113.918 11.3594C113.667 11.0339 113.317 10.8711 112.867 10.8711C112.418 10.8711 112.066 11.0339 111.812 11.3594C111.558 11.6849 111.431 12.1357 111.431 12.7119C111.431 13.2881 111.558 13.7389 111.812 14.0645Z" fill="white"/>
<path d="M102.581 15.3633V10.0605H103.592V10.9541H103.612C103.941 10.3193 104.516 10.002 105.337 10.002C105.923 10.002 106.384 10.1777 106.72 10.5293C107.059 10.8776 107.228 11.3561 107.228 11.9648V15.3633H106.168V12.165C106.168 11.7614 106.065 11.4521 105.86 11.2373C105.654 11.0192 105.358 10.9102 104.97 10.9102C104.57 10.9102 104.247 11.0387 104.003 11.2959C103.762 11.5498 103.641 11.8851 103.641 12.3018V15.3633H102.581Z" fill="white"/>
<path d="M101.051 14.6943C100.601 15.1826 99.9923 15.4268 99.2234 15.4268C98.4545 15.4268 97.8437 15.1826 97.3908 14.6943C96.938 14.2061 96.7116 13.5452 96.7116 12.7119C96.7116 11.8818 96.938 11.221 97.3908 10.7295C97.8469 10.238 98.4578 9.99219 99.2234 9.99219C99.989 9.99219 100.598 10.238 101.051 10.7295C101.504 11.2178 101.73 11.8786 101.73 12.7119C101.73 13.5452 101.504 14.2061 101.051 14.6943ZM98.1678 14.0645C98.422 14.3867 98.7738 14.5479 99.2234 14.5479C99.673 14.5479 100.023 14.3867 100.274 14.0645C100.528 13.7422 100.655 13.2913 100.655 12.7119C100.655 12.1325 100.528 11.6816 100.274 11.3594C100.023 11.0339 99.673 10.8711 99.2234 10.8711C98.7738 10.8711 98.422 11.0339 98.1678 11.3594C97.9137 11.6849 97.7867 12.1357 97.7867 12.7119C97.7867 13.2881 97.9137 13.7389 98.1678 14.0645Z" fill="white"/>
<path d="M95.4214 14.6943C94.9719 15.1826 94.3626 15.4268 93.5938 15.4268C92.8249 15.4268 92.214 15.1826 91.7612 14.6943C91.3084 14.2061 91.0819 13.5452 91.0819 12.7119C91.0819 11.8818 91.3084 11.221 91.7612 10.7295C92.2173 10.238 92.8282 9.99219 93.5938 9.99219C94.3594 9.99219 94.9686 10.238 95.4214 10.7295C95.8743 11.2178 96.1007 11.8786 96.1007 12.7119C96.1007 13.5452 95.8743 14.2061 95.4214 14.6943ZM92.5382 14.0645C92.7923 14.3867 93.1442 14.5479 93.5938 14.5479C94.0434 14.5479 94.3936 14.3867 94.6444 14.0645C94.8985 13.7422 95.0256 13.2913 95.0256 12.7119C95.0256 12.1325 94.8985 11.6816 94.6444 11.3594C94.3936 11.0339 94.0434 10.8711 93.5938 10.8711C93.1442 10.8711 92.7923 11.0339 92.5382 11.3594C92.2841 11.6849 92.157 12.1357 92.157 12.7119C92.157 13.2881 92.2841 13.7389 92.5382 14.0645Z" fill="white"/>
<path d="M86.2586 11.5693C86.2586 11.1038 86.4492 10.7262 86.8304 10.4365C87.2116 10.1436 87.7068 9.99707 88.316 9.99707C88.8959 9.99707 89.3748 10.1452 89.7527 10.4414C90.1339 10.7344 90.331 11.112 90.344 11.5742H89.3471C89.3243 11.3398 89.2184 11.1543 89.0295 11.0176C88.8405 10.8809 88.5945 10.8125 88.2915 10.8125C87.9918 10.8125 87.7491 10.8776 87.5634 11.0078C87.381 11.1348 87.2897 11.3024 87.2897 11.5107C87.2897 11.8298 87.565 12.056 88.1156 12.1895L88.9952 12.3994C89.5295 12.5296 89.9075 12.7021 90.129 12.917C90.3505 13.1318 90.4613 13.4346 90.4613 13.8252C90.4613 14.2972 90.2577 14.6829 89.8504 14.9824C89.4432 15.2786 88.9187 15.4268 88.2769 15.4268C87.6611 15.4268 87.1562 15.2819 86.762 14.9922C86.371 14.6992 86.156 14.3118 86.1169 13.8301H87.1627C87.205 14.084 87.3256 14.2793 87.5243 14.416C87.7263 14.5495 87.9951 14.6162 88.3306 14.6162C88.6597 14.6162 88.9203 14.5527 89.1125 14.4258C89.308 14.2988 89.4057 14.1279 89.4057 13.9131C89.4057 13.7438 89.3471 13.6104 89.2298 13.5127C89.1158 13.415 88.9187 13.3304 88.6385 13.2588L87.6905 13.0244C86.7359 12.79 86.2586 12.305 86.2586 11.5693Z" fill="white"/>
<path d="M80.4677 14.4697C80.8978 14.4697 81.2431 14.3086 81.5037 13.9863C81.7676 13.6608 81.8996 13.2311 81.8996 12.6973C81.8996 12.1602 81.7676 11.7272 81.5037 11.3984C81.2431 11.0697 80.8978 10.9053 80.4677 10.9053C80.0409 10.9053 79.6989 11.068 79.4415 11.3936C79.1874 11.7191 79.0603 12.1536 79.0603 12.6973C79.0603 13.2376 79.1874 13.6689 79.4415 13.9912C79.6989 14.3102 80.0409 14.4697 80.4677 14.4697ZM80.4726 17.2725C79.8341 17.2725 79.3063 17.1357 78.8893 16.8623C78.4723 16.5889 78.2377 16.2259 78.1856 15.7734H79.2558C79.3144 15.9785 79.4578 16.1413 79.6858 16.2617C79.9139 16.3822 80.1908 16.4424 80.5166 16.4424C80.9369 16.4424 81.2724 16.3398 81.5233 16.1348C81.7741 15.9297 81.8996 15.6546 81.8996 15.3096V14.4355H81.8751C81.722 14.722 81.4956 14.9466 81.1959 15.1094C80.8994 15.2689 80.5638 15.3486 80.1892 15.3486C79.5246 15.3486 78.9886 15.1077 78.5814 14.626C78.1774 14.141 77.9754 13.4964 77.9754 12.6924C77.9754 11.8753 78.1774 11.2243 78.5814 10.7393C78.9886 10.251 79.5327 10.0068 80.2136 10.0068C80.5883 10.0068 80.9238 10.0898 81.2203 10.2559C81.5168 10.4186 81.7464 10.6465 81.9093 10.9395H81.9289V10.0605H82.9551V15.2266C82.9551 15.8581 82.732 16.3561 82.2856 16.7207C81.8425 17.0885 81.2382 17.2725 80.4726 17.2725Z" fill="white"/>
<path d="M72.5071 15.3633V10.0605H73.5186V10.9541H73.5382C73.8672 10.3193 74.4423 10.002 75.2632 10.002C75.8497 10.002 76.3107 10.1777 76.6462 10.5293C76.985 10.8776 77.1544 11.3561 77.1544 11.9648V15.3633H76.094V12.165C76.094 11.7614 75.9914 11.4521 75.7861 11.2373C75.5809 11.0192 75.2844 10.9102 74.8967 10.9102C74.496 10.9102 74.1735 11.0387 73.9291 11.2959C73.6881 11.5498 73.5675 11.8851 73.5675 12.3018V15.3633H72.5071Z" fill="white"/>
<path d="M70.3178 15.3633V10.0605H71.3782V15.3633H70.3178ZM71.2902 9.12793C71.1697 9.24512 71.0231 9.30371 70.8504 9.30371C70.6778 9.30371 70.5312 9.24512 70.4106 9.12793C70.2901 9.00749 70.2298 8.86263 70.2298 8.69336C70.2298 8.52083 70.2901 8.37598 70.4106 8.25879C70.5312 8.1416 70.6778 8.08301 70.8504 8.08301C71.0231 8.08301 71.1697 8.1416 71.2902 8.25879C71.4108 8.37598 71.4711 8.52083 71.4711 8.69336C71.4711 8.86263 71.4108 9.00749 71.2902 9.12793Z" fill="white"/>
<path d="M61.7756 15.3633V10.0605H62.7871V10.959H62.8067C62.9272 10.6628 63.1211 10.43 63.3882 10.2607C63.6586 10.0882 63.9681 10.002 64.3167 10.002C64.6849 10.002 64.9976 10.0915 65.255 10.2705C65.5124 10.4495 65.6948 10.7035 65.8023 11.0322H65.8268C65.9668 10.7132 66.1835 10.4626 66.4767 10.2803C66.7732 10.0947 67.1104 10.002 67.4883 10.002C68.0128 10.002 68.4314 10.1615 68.7442 10.4805C69.0602 10.7962 69.2182 11.2194 69.2182 11.75V15.3633H68.1627V12.0039C68.1627 11.6556 68.0714 11.387 67.889 11.1982C67.7098 11.0062 67.4557 10.9102 67.1267 10.9102C66.8009 10.9102 66.5337 11.0192 66.3252 11.2373C66.12 11.4554 66.0173 11.7337 66.0173 12.0723V15.3633H64.9765V11.916C64.9765 11.61 64.8836 11.3659 64.6979 11.1836C64.5155 11.0013 64.2695 10.9102 63.96 10.9102C63.6342 10.9102 63.3654 11.0241 63.1537 11.252C62.9419 11.4766 62.836 11.763 62.836 12.1113V15.3633H61.7756Z" fill="white"/>
<path d="M60.246 14.6943C59.7964 15.1826 59.1872 15.4268 58.4183 15.4268C57.6495 15.4268 57.0386 15.1826 56.5858 14.6943C56.1329 14.2061 55.9065 13.5452 55.9065 12.7119C55.9065 11.8818 56.1329 11.221 56.5858 10.7295C57.0419 10.238 57.6527 9.99219 58.4183 9.99219C59.1839 9.99219 59.7931 10.238 60.246 10.7295C60.6988 11.2178 60.9253 11.8786 60.9253 12.7119C60.9253 13.5452 60.6988 14.2061 60.246 14.6943ZM57.3628 14.0645C57.6169 14.3867 57.9687 14.5479 58.4183 14.5479C58.8679 14.5479 59.2181 14.3867 59.469 14.0645C59.7231 13.7422 59.8502 13.2913 59.8502 12.7119C59.8502 12.1325 59.7231 11.6816 59.469 11.3594C59.2181 11.0339 58.8679 10.8711 58.4183 10.8711C57.9687 10.8711 57.6169 11.0339 57.3628 11.3594C57.1086 11.6849 56.9816 12.1357 56.9816 12.7119C56.9816 13.2881 57.1086 13.7389 57.3628 14.0645Z" fill="white"/>
<path d="M52.2707 15.4805C51.2803 15.4805 50.4935 15.1533 49.9103 14.499C49.3304 13.8447 49.0405 12.9577 49.0405 11.8379C49.0405 10.7246 49.3321 9.84082 49.9152 9.18652C50.4984 8.52897 51.2835 8.2002 52.2707 8.2002C53.0721 8.2002 53.7481 8.42643 54.2987 8.87891C54.8493 9.32812 55.1702 9.91895 55.2614 10.6514H54.1765C54.0788 10.1989 53.8556 9.83757 53.507 9.56738C53.1617 9.29395 52.7496 9.15723 52.2707 9.15723C51.6289 9.15723 51.1158 9.40137 50.7313 9.88965C50.3501 10.3747 50.1596 11.0241 50.1596 11.8379C50.1596 12.6615 50.3501 13.3158 50.7313 13.8008C51.1125 14.2826 51.6272 14.5234 52.2756 14.5234C52.7642 14.5234 53.1747 14.4046 53.507 14.167C53.8426 13.9294 54.0658 13.5973 54.1765 13.1709H55.2663C55.1327 13.9001 54.8021 14.4681 54.2743 14.875C53.7498 15.2786 53.0819 15.4805 52.2707 15.4805Z" fill="white"/>
</svg>
