<svg width="310" height="103" viewBox="0 0 310 103" fill="none" xmlns="http://www.w3.org/2000/svg">
<path d="M309.999 50.8737V79.7438L286.626 102.999H257.612L309.999 50.8737Z" fill="#FFDD0B"/>
<path d="M51.2785 102.999L154.796 0H183.81L80.2924 102.999H51.2785Z" fill="#FFDD0B"/>
<path d="M1.00768e-05 51.3701L51.6281 0H80.6435L1.00768e-05 80.2401V51.3701Z" fill="#FFDD0B"/>
<path d="M154.445 102.999L257.961 0H286.975L183.459 102.999H154.445Z" fill="#FFDD0B"/>
<path d="M0 102.696L103.212 0H132.226L28.7099 102.999H0V102.696Z" fill="#FFDD0B"/>
<path d="M102.862 102.999L206.38 0H235.394L131.876 102.999H102.862Z" fill="#FFDD0B"/>
<path d="M309.546 0H309.999V28.4175L235.043 102.999H206.029L309.546 0Z" fill="#FFDD0B"/>
<path d="M0.000161877 0.0452359L0.0458917 0H29.0599L0.000161877 28.914V0.0452359Z" fill="#FFDD0B"/>
</svg>
