<svg width="302" height="265" viewBox="0 0 302 265" fill="none" xmlns="http://www.w3.org/2000/svg">
<mask id="mask0_2026_6843" style="mask-type:alpha" maskUnits="userSpaceOnUse" x="0" y="0" width="302" height="265">
<rect x="2" y="2" width="298" height="261" rx="12" fill="#D9D9D9" stroke="black" stroke-width="4"/>
</mask>
<g mask="url(#mask0_2026_6843)">
<path d="M273.705 70.2247L282.54 80.8182C289.611 89.2956 284.135 105.55 270.311 117.124C256.486 128.697 239.548 131.207 232.477 122.73L223.642 112.136" stroke="black" stroke-width="6"/>
<path d="M224.723 113.434C217.653 104.956 223.128 88.7016 236.953 77.1281C250.777 65.5546 267.716 63.0447 274.786 71.5221" stroke="black" stroke-width="6"/>
<path d="M224.183 112.785C231.253 121.262 248.192 118.753 262.016 107.179C275.841 95.6055 281.316 79.351 274.246 70.8735" stroke="black" stroke-width="6"/>
<path d="M132.219 191.749L127.374 197.559C123.496 202.208 126.455 211.086 133.984 217.389C141.512 223.691 150.758 225.031 154.636 220.382L161.462 212.423" stroke="black" stroke-width="6"/>
<path d="M160.312 213.856C164.19 209.207 161.187 200.292 153.605 193.945C146.024 187.598 136.734 186.221 132.856 190.871" stroke="black" stroke-width="6"/>
<path d="M160.608 213.5C156.731 218.15 147.441 216.773 139.859 210.426C132.278 204.079 129.275 195.164 133.153 190.515" stroke="black" stroke-width="6"/>
<path d="M168.009 270.927C168.211 267.534 168.268 264.124 168.652 260.752C170.668 243.098 176.835 227.027 187.369 212.77C190.756 208.189 194.667 203.978 198.53 199.775C202.462 195.49 206.863 191.629 210.641 187.219C218.424 178.146 222.752 167.453 224.271 155.589C224.437 154.283 224.55 152.965 224.655 151.651C224.756 150.341 224.816 149.026 224.909 147.497C225.318 147.875 225.645 148.131 225.924 148.436C235.941 159.43 242.104 172.311 244.5 187.011C245.53 193.346 246.112 199.742 244.762 206.077C243.987 209.718 242.625 213.234 241.509 216.802C241.352 217.311 241.101 217.795 240.786 218.543C249.882 215.919 257.152 211.037 262.773 203.713C268.365 196.426 271.032 188.473 271.266 179.254V178.439C272.664 180.075 274.564 181.999 275.89 183.695C285.552 196.06 290.857 210.105 291.779 225.81C292.732 242.056 288.881 257.073 280.31 270.878M248.953 270.904C255.269 261.916 259.112 251.944 260.486 241.032C260.835 238.261 260.737 236.661 261.142 232.996C260.475 233.485 260.074 233.704 259.775 233.944C254.558 238.127 248.605 240.43 241.962 240.592C234.806 240.767 227.645 240.662 220.489 240.678C217.098 240.686 213.765 241.089 210.504 242.094C198.098 245.922 189.236 257.465 188.723 270.44" stroke="black" stroke-width="6"/>
<path d="M130.978 270.927C130.874 269.162 130.844 267.388 130.646 265.633C129.603 256.449 126.413 248.089 120.964 240.672C119.213 238.289 117.19 236.098 115.191 233.911C113.158 231.683 110.882 229.674 108.927 227.379C104.902 222.659 102.663 217.097 101.877 210.925C101.792 210.245 101.733 209.559 101.679 208.876C101.626 208.194 101.595 207.511 101.547 206.715C101.336 206.912 101.167 207.045 101.022 207.204C95.8409 212.923 92.6535 219.624 91.414 227.272C90.881 230.567 90.5801 233.894 91.2782 237.19C91.6795 239.084 92.3839 240.913 92.9607 242.77C93.0422 243.034 93.1718 243.286 93.3349 243.675C88.63 242.31 84.8698 239.77 81.9625 235.96C79.0697 232.169 77.6905 228.032 77.5693 223.236V222.812C76.8461 223.663 75.8634 224.664 75.1779 225.546C70.1804 231.979 67.436 239.286 66.9595 247.456C66.4662 255.908 68.4581 263.72 72.8913 270.902M89.1107 270.915C85.8438 266.239 83.8561 261.052 83.1454 255.375C82.965 253.933 83.0156 253.101 82.8062 251.194C83.151 251.448 83.3586 251.563 83.5133 251.688C86.2117 253.863 89.2904 255.061 92.7266 255.146C96.4282 255.237 100.132 255.182 103.834 255.191C105.587 255.195 107.312 255.404 108.998 255.927C115.415 257.919 119.999 263.924 120.264 270.674" stroke="black" stroke-width="6"/>
</g>
</svg>
