<svg width="60" height="91" viewBox="0 0 60 91" fill="none" xmlns="http://www.w3.org/2000/svg">
<path fill-rule="evenodd" clip-rule="evenodd" d="M18.1803 10.4225C15.4469 13.1629 13.7559 17.1949 13.7559 22.3182V35.6893C18.4341 32.6655 24.0088 30.9091 30 30.9091C35.9912 30.9091 41.5659 32.6655 46.2441 35.6893V22.3182C46.2441 17.1949 44.5531 13.1629 41.8197 10.4225C39.0892 7.68492 35.0835 6 30 6C24.9165 6 20.9108 7.68492 18.1803 10.4225ZM52.2926 40.8483V22.3182C52.2926 15.8505 50.13 10.2234 46.1194 6.20249C42.106 2.17871 36.4775 0 30 0C23.5225 0 17.894 2.17871 13.8806 6.20249C9.87003 10.2234 7.70735 15.8505 7.70735 22.3182V40.8483C2.91398 46.1773 0 53.2309 0 60.9545C0 77.518 13.4012 91 30 91C46.5988 91 60 77.518 60 60.9545C60 53.2309 57.086 46.1773 52.2926 40.8483ZM30 36.9091C16.8022 36.9091 6.04854 47.6444 6.04854 60.9545C6.04854 74.2646 16.8022 85 30 85C43.1978 85 53.9515 74.2646 53.9515 60.9545C53.9515 47.6444 43.1978 36.9091 30 36.9091ZM23.1221 57.0909C23.1221 53.3304 26.1712 50.2273 30 50.2273C33.8288 50.2273 36.8779 53.3304 36.8779 57.0909C36.8779 59.7824 35.3161 62.1371 33.0243 63.2584V72.5455H26.9757V63.2584C24.6839 62.1371 23.1221 59.7824 23.1221 57.0909Z" fill="black"/>
</svg>
