<svg width="148" height="149" viewBox="0 0 148 149" fill="none" xmlns="http://www.w3.org/2000/svg">
<path d="M63.4198 115.665C63.4198 117.764 61.7185 119.465 59.6198 119.465C57.5211 119.465 55.8198 117.764 55.8198 115.665C55.8198 113.567 57.5211 111.865 59.6198 111.865C61.7185 111.865 63.4198 113.567 63.4198 115.665Z" fill="black"/>
<path d="M77.6699 115.665C77.6699 117.764 75.9686 119.465 73.8699 119.465C71.7712 119.465 70.0699 117.764 70.0699 115.665C70.0699 113.567 71.7712 111.865 73.8699 111.865C75.9686 111.865 77.6699 113.567 77.6699 115.665Z" fill="black"/>
<path d="M91.9201 115.665C91.9201 117.764 90.2188 119.465 88.1201 119.465C86.0214 119.465 84.3201 117.764 84.3201 115.665C84.3201 113.567 86.0214 111.865 88.1201 111.865C90.2188 111.865 91.9201 113.567 91.9201 115.665Z" fill="black"/>
<path fill-rule="evenodd" clip-rule="evenodd" d="M23.8323 28.8942C12.7417 40.9979 5.97376 57.1275 5.97376 74.8379C5.97376 112.408 36.4302 142.864 74 142.864C91.7105 142.864 107.84 136.096 119.944 125.006L23.8323 28.8942ZM28.0563 24.6701L124.168 120.782C135.258 108.678 142.026 92.5484 142.026 74.8379C142.026 37.2681 111.57 6.81165 74 6.81165C56.2897 6.81165 40.16 13.5796 28.0563 24.6701ZM0 74.8379C0 33.9688 33.131 0.837891 74 0.837891C114.869 0.837891 148 33.9689 148 74.8379C148 115.707 114.869 148.838 74 148.838C33.131 148.838 0 115.707 0 74.8379Z" fill="black"/>
<path d="M84.3482 51.466H66.7796C66.6712 51.466 66.5673 51.5091 66.4907 51.5857C66.4141 51.6623 66.3711 51.7663 66.3711 51.8747V69.4451C66.3711 69.5535 66.4141 69.6574 66.4907 69.734C66.5673 69.8107 66.6712 69.8537 66.7796 69.8537H84.3482C84.4566 69.8537 84.5606 69.8107 84.6371 69.734C84.7138 69.6574 84.7568 69.5535 84.7568 69.4451V51.8747C84.7568 51.7663 84.7138 51.6623 84.6371 51.5857C84.5606 51.5091 84.4566 51.466 84.3482 51.466ZM78.6282 63.3159C78.6282 63.4242 78.5852 63.5282 78.5085 63.6049C78.4319 63.6814 78.328 63.7245 78.2197 63.7245H72.9082C72.7998 63.7245 72.6959 63.6814 72.6193 63.6049C72.5427 63.5282 72.4997 63.4242 72.4997 63.3159V58.0039C72.4997 57.8955 72.5427 57.7916 72.6193 57.715C72.6959 57.6383 72.7998 57.5953 72.9082 57.5953H78.2197C78.328 57.5953 78.4319 57.6383 78.5085 57.715C78.5852 57.7916 78.6282 57.8955 78.6282 58.0039V63.3159Z" fill="black"/>
<path d="M121.13 57.596H115.819C115.593 57.596 115.41 57.7789 115.41 58.0045V63.3166C115.41 63.5422 115.593 63.7252 115.819 63.7252H121.13C121.356 63.7252 121.539 63.5422 121.539 63.3166V58.0045C121.539 57.7789 121.356 57.596 121.13 57.596Z" fill="black"/>
<path d="M114.999 51.4665H109.687C109.462 51.4665 109.279 51.6494 109.279 51.8752V57.1871C109.279 57.4128 109.462 57.5958 109.687 57.5958H114.999C115.225 57.5958 115.407 57.4128 115.407 57.1871V51.8752C115.407 51.6494 115.225 51.4665 114.999 51.4665Z" fill="black"/>
<path d="M127.256 51.4665H121.945C121.719 51.4665 121.536 51.6494 121.536 51.8752V57.1871C121.536 57.4128 121.719 57.5958 121.945 57.5958H127.256C127.482 57.5958 127.665 57.4128 127.665 57.1871V51.8752C127.665 51.6494 127.482 51.4665 127.256 51.4665Z" fill="black"/>
<path d="M114.999 63.7249H109.687C109.462 63.7249 109.279 63.9078 109.279 64.1334V69.4455C109.279 69.6711 109.462 69.8541 109.687 69.8541H114.999C115.225 69.8541 115.407 69.6711 115.407 69.4455V64.1334C115.407 63.9078 115.225 63.7249 114.999 63.7249Z" fill="black"/>
<path d="M127.256 63.7249H121.945C121.719 63.7249 121.536 63.9078 121.536 64.1334V69.4455C121.536 69.6711 121.719 69.8541 121.945 69.8541H127.256C127.482 69.8541 127.665 69.6711 127.665 69.4455V64.1334C127.665 63.9078 127.482 63.7249 127.256 63.7249Z" fill="black"/>
<path d="M105.798 51.4665H100.487C100.261 51.4665 100.078 51.6494 100.078 51.8752V57.1871C100.078 57.4128 100.261 57.5958 100.487 57.5958H105.798C106.024 57.5958 106.207 57.4128 106.207 57.1871V51.8752C106.207 51.6494 106.024 51.4665 105.798 51.4665Z" fill="black"/>
<path d="M105.798 63.7249H100.487C100.261 63.7249 100.078 63.9078 100.078 64.1334V69.4455C100.078 69.6711 100.261 69.8541 100.487 69.8541H105.798C106.024 69.8541 106.207 69.6711 106.207 69.4455V64.1334C106.207 63.9078 106.024 63.7249 105.798 63.7249Z" fill="black"/>
<path d="M100.078 57.9993C100.078 57.8909 100.035 57.787 99.9586 57.7104C99.882 57.6337 99.778 57.5907 99.6697 57.5907H93.9497V51.8747C93.9497 51.7663 93.9066 51.6623 93.83 51.5857C93.7533 51.5091 93.6494 51.466 93.5411 51.466H88.2297C88.1212 51.466 88.0173 51.5091 87.9407 51.5857C87.8641 51.6623 87.8211 51.7663 87.8211 51.8747V69.4359C87.8211 69.5443 87.8641 69.6482 87.9407 69.7248C88.0173 69.8015 88.1212 69.8445 88.2297 69.8445H93.5411C93.6494 69.8445 93.7533 69.8015 93.83 69.7248C93.9066 69.6482 93.9497 69.5443 93.9497 69.4359V63.7199H99.6697C99.778 63.7199 99.882 63.6768 99.9586 63.6003C100.035 63.5236 100.078 63.4197 100.078 63.3113V57.9993Z" fill="black"/>
<path d="M35.9207 50.5897L50.811 65.4452L45.3079 70.9485L35.9207 61.5525L26.5335 70.9972L21.0305 65.4939L35.9207 50.5897ZM17.1447 69.3817L22.5975 74.8883L17.1479 80.3461L11.6449 74.8883L17.1447 69.3817ZM35.9207 69.385L41.4205 74.8396L35.9191 80.3461L30.4177 74.8883L35.9191 69.385H35.9207ZM54.6952 69.3817L60.2419 74.8883L54.7438 80.3948L49.2424 74.8883L54.6952 69.3817ZM45.3063 78.7793L50.8093 84.2826L35.9191 99.1868L21.0289 84.2859L26.5319 78.7793L35.9191 88.224L45.3063 78.7793Z" fill="black"/>
<path d="M115.05 93.9716V76.4203H118.578V93.9716H115.05Z" fill="black"/>
<path d="M73.9342 99.1851H66.3711V81.6338H73.6301C77.158 81.6338 79.2137 83.5565 79.2137 86.5641C79.2137 88.5109 77.8935 89.769 76.9797 90.1879C78.0704 90.6807 79.4666 91.7897 79.4666 94.1327C79.4666 97.4101 77.158 99.1851 73.9342 99.1851ZM73.3509 84.6911H69.899V88.7338H73.3509C74.848 88.7338 75.6858 87.9202 75.6858 86.7118C75.6858 85.5047 74.848 84.6911 73.3509 84.6911ZM73.579 91.8152H69.899V96.1292H73.579C75.1784 96.1292 75.9387 95.1437 75.9387 93.9595C75.9387 92.7766 75.177 91.8152 73.579 91.8152Z" fill="black"/>
<path d="M90.2271 91.9871V99.1851H86.7241V91.9871L81.2926 81.6338H85.1247L88.5005 88.7083L91.8253 81.6338H95.6573L90.2271 91.9871Z" fill="black"/>
<path d="M105.659 99.1851H98.0959V81.6338H105.355C108.883 81.6338 110.939 83.5565 110.939 86.5641C110.939 88.5109 109.618 89.769 108.705 90.1879C109.795 90.6807 111.192 91.7897 111.192 94.1327C111.192 97.4101 108.883 99.1851 105.659 99.1851ZM105.076 84.6911H101.624V88.7338H105.076C106.573 88.7338 107.411 87.9202 107.411 86.7118C107.411 85.5047 106.573 84.6911 105.076 84.6911ZM105.304 91.8152H101.624V96.1292H105.304C106.903 96.1292 107.664 95.1437 107.664 93.9595C107.664 92.7766 106.903 91.8152 105.304 91.8152Z" fill="black"/>
<path d="M129.949 84.6911V99.1864H126.421V84.6911H121.7V81.6338H134.67V84.6911H129.949Z" fill="black"/>
</svg>
