<svg width="87" height="90" viewBox="0 0 87 90" fill="none" xmlns="http://www.w3.org/2000/svg">
<path fill-rule="evenodd" clip-rule="evenodd" d="M42.2481 0.277473C43.0418 -0.0924911 43.9582 -0.0924911 44.7519 0.277473L85.286 19.172C86.0557 19.5308 86.6349 20.2027 86.877 21.0175C87.119 21.8323 87.0006 22.7119 86.5517 23.4335L46.0177 88.6003C45.4762 89.4708 44.5243 90 43.5 90C42.4757 90 41.5238 89.4708 40.9824 88.6003L0.448269 23.4335C-0.000571772 22.7119 -0.118976 21.8323 0.123044 21.0175C0.365064 20.2027 0.944295 19.5308 1.71404 19.172L42.2481 0.277473ZM10.608 28.5328L40.5341 76.6451V41.9131L10.608 28.5328ZM46.4659 41.9131V76.6451L76.392 28.5328L46.4659 41.9131ZM76.8866 21.8076L43.5 36.7351L10.1134 21.8076L43.5 6.2448L76.8866 21.8076Z" fill="black"/>
</svg>
