<svg width="143" height="139" viewBox="0 0 143 139" fill="none" xmlns="http://www.w3.org/2000/svg">
<path d="M143 136H120.886C120.886 133.303 120.886 84.2622 120.886 81.117H143M72.9974 3C92.3789 3 108.149 18.2607 108.149 37.0212C108.149 55.7816 92.3809 71.0424 72.9974 71.0424C53.6138 71.0424 37.8462 55.7816 37.8462 37.0212C37.8462 18.2607 53.6138 3 72.9974 3ZM72.9974 18.4342C83.5856 18.4342 92.2019 26.7715 92.2019 37.0213C92.2019 47.2711 83.5876 55.6084 72.9974 55.6084C62.4071 55.6084 53.7929 47.2711 53.7929 37.0213C53.7929 26.7715 62.4071 18.4342 72.9974 18.4342ZM5.61662 107.472L37.4015 133.326C38.3452 134.093 39.5445 134.516 40.776 134.516H89.9804C91.2119 134.516 92.4112 134.093 93.3549 133.328L110.384 119.501V90.9792H61.5621C58.3828 90.9792 55.785 93.5052 55.8736 96.6446C55.9581 99.5951 58.6102 101.994 61.7894 101.994H82.4427C85.3423 101.994 87.6925 104.269 87.6925 107.075C87.6925 109.882 85.3423 112.157 82.4427 112.157H73.1403L65.0069 118.761C63.1195 120.293 60.723 121.138 58.258 121.138H43.919C41.4541 121.138 39.0576 120.293 37.1701 118.761L12.2972 98.5609C9.85443 96.5764 6.18819 96.9094 4.178 99.3633C2.2825 101.675 2.72116 105.163 5.15794 107.14L5.61662 107.472Z" stroke="black" stroke-width="6" stroke-miterlimit="10"/>
</svg>
