<svg width="137" height="118" viewBox="0 0 137 118" fill="none" xmlns="http://www.w3.org/2000/svg">
<path fill-rule="evenodd" clip-rule="evenodd" d="M6 65.0489C-7.11274 65.0489 -17.8647 75.7502 -17.8647 89C-17.8647 102.25 -7.11274 112.951 6 112.951C19.1127 112.951 29.8647 102.25 29.8647 89C29.8647 75.7503 19.1113 65.0489 6 65.0489ZM-23 89C-23 73.0508 -10.0386 60 6 60C22.037 60 35 73.0507 35 89C35 104.949 22.0386 118 6 118C-10.0386 118 -23 104.949 -23 89ZM6.00001 77.0599C-0.500487 77.0599 -5.87333 82.3733 -5.87333 89.0001C-5.87333 95.6269 -0.500487 100.94 6.00001 100.94C12.5005 100.94 17.8734 95.6269 17.8734 89.0001C17.8734 82.3735 12.4992 77.0599 6.00001 77.0599ZM-11.0087 89.0001C-11.0087 79.6739 -3.42638 72.011 6.00001 72.011C15.4247 72.011 23.0087 79.6738 23.0087 89.0001C23.0087 98.3262 15.4264 105.989 6.00001 105.989C-3.42638 105.989 -11.0087 98.3262 -11.0087 89.0001Z" fill="black"/>
<path fill-rule="evenodd" clip-rule="evenodd" d="M90 65.0489C76.8873 65.0489 66.1353 75.7502 66.1353 89C66.1353 102.25 76.8873 112.951 90 112.951C103.113 112.951 113.865 102.25 113.865 89C113.865 75.7503 103.111 65.0489 90 65.0489ZM61 89C61 73.0508 73.9614 60 90 60C106.037 60 119 73.0507 119 89C119 104.949 106.039 118 90 118C73.9614 118 61 104.949 61 89ZM90 77.0599C83.4995 77.0599 78.1267 82.3733 78.1267 89.0001C78.1267 95.6269 83.4995 100.94 90 100.94C96.5005 100.94 101.873 95.6269 101.873 89.0001C101.873 82.3735 96.4992 77.0599 90 77.0599ZM72.9913 89.0001C72.9913 79.6739 80.5736 72.011 90 72.011C99.4247 72.011 107.009 79.6738 107.009 89.0001C107.009 98.3262 99.4264 105.989 90 105.989C80.5736 105.989 72.9913 98.3262 72.9913 89.0001Z" fill="black"/>
<path fill-rule="evenodd" clip-rule="evenodd" d="M48 5.04886C34.8873 5.04886 24.1353 15.7502 24.1353 29C24.1353 42.2498 34.8873 52.9511 48 52.9511C61.1127 52.9511 71.8647 42.2498 71.8647 29C71.8647 15.7503 61.1113 5.04886 48 5.04886ZM19 29C19 13.0508 31.9614 0 48 0C64.037 0 77 13.0507 77 29C77 44.9492 64.0386 58 48 58C31.9614 58 19 44.9492 19 29ZM48 17.0599C41.4995 17.0599 36.1267 22.3733 36.1267 29.0001C36.1267 35.6269 41.4995 40.9403 48 40.9403C54.5005 40.9403 59.8734 35.6269 59.8734 29.0001C59.8734 22.3735 54.4992 17.0599 48 17.0599ZM30.9913 29.0001C30.9913 19.6739 38.5736 12.011 48 12.011C57.4247 12.011 65.0087 19.6738 65.0087 29.0001C65.0087 38.3262 57.4264 45.9892 48 45.9892C38.5736 45.9892 30.9913 38.3262 30.9913 29.0001Z" fill="black"/>
<path fill-rule="evenodd" clip-rule="evenodd" d="M132 5.04886C118.887 5.04886 108.135 15.7502 108.135 29C108.135 42.2498 118.887 52.9511 132 52.9511C145.113 52.9511 155.865 42.2498 155.865 29C155.865 15.7503 145.111 5.04886 132 5.04886ZM103 29C103 13.0508 115.961 0 132 0C148.037 0 161 13.0507 161 29C161 44.9492 148.039 58 132 58C115.961 58 103 44.9492 103 29ZM132 17.0599C125.5 17.0599 120.127 22.3733 120.127 29.0001C120.127 35.6269 125.5 40.9403 132 40.9403C138.501 40.9403 143.873 35.6269 143.873 29.0001C143.873 22.3735 138.499 17.0599 132 17.0599ZM114.991 29.0001C114.991 19.6739 122.574 12.011 132 12.011C141.425 12.011 149.009 19.6738 149.009 29.0001C149.009 38.3262 141.426 45.9892 132 45.9892C122.574 45.9892 114.991 38.3262 114.991 29.0001Z" fill="black"/>
</svg>
