<svg width="78" height="93" viewBox="0 0 78 93" fill="none" xmlns="http://www.w3.org/2000/svg">
<path d="M17.469 8.86734C17.5214 9.34327 17.6181 9.81919 17.6208 10.2925C17.6319 14.9195 17.6291 19.5492 17.6291 24.1763C17.6291 24.6548 17.6291 25.1308 17.6291 25.7865H78V92.5122H0V25.8764H8.69171V8.89643H17.5076L17.4717 8.86734H17.469ZM8.82976 84.0407H69.0764V34.3743H8.82976V84.0407Z" fill="black"/>
<path d="M17.5021 8.89643V0.512207H60.1611V9.03656L60.1804 9.01541C59.6393 8.96782 59.0981 8.87527 58.5569 8.87527C50.2767 8.8647 25.7492 8.86734 17.469 8.86734L17.5021 8.89643Z" fill="black"/>
<path d="M60.1611 9.03656L69.1095 9.03656V17.2727H60.1859C60.1859 14.4886 60.1859 11.7493 60.1832 9.01541C60.1804 9.01541 60.1611 9.03921 60.1611 9.03921V9.03656Z" fill="black"/>
<path d="M43.4344 51.0122V67.7436H34.7925V51.0122H43.4344Z" fill="black"/>
</svg>
