<svg width="89" height="77" viewBox="0 0 89 77" fill="none" xmlns="http://www.w3.org/2000/svg">
<path d="M57.4111 20.7152C54.8111 20.7152 53.0356 22.9972 53.0356 26.2592H53.038C53.038 29.5212 54.8111 31.8709 57.4134 31.8709C59.9511 31.8709 61.7243 29.5212 61.7243 26.2592C61.7243 22.9972 59.9488 20.7152 57.4111 20.7152Z" fill="black"/>
<path d="M70.9841 20.7152C68.3819 20.7152 66.6087 22.9972 66.6087 26.2592C66.6087 29.5212 68.3819 31.8709 70.9841 31.8709C73.5218 31.8709 75.295 29.5212 75.295 26.2592C75.295 22.9972 73.5195 20.7152 70.9841 20.7152Z" fill="black"/>
<path d="M13.2722 73.0356C8.3257 73.0356 3.57031 70.9473 3.57031 61.88C3.57031 38.787 34.3295 3.03564 62.8642 3.03564C79.0993 3.03564 85.5703 14.581 85.5703 27.6943C85.5703 44.527 74.9173 63.7723 64.3242 63.7723C60.9643 63.7723 59.3155 61.88 59.3155 58.877C59.3155 58.0953 59.4421 57.2483 59.6954 56.3336C56.08 62.6616 49.1046 68.5346 42.5714 68.5346C37.816 68.5346 35.405 65.4686 35.405 61.1636C35.405 59.5956 35.7227 57.9646 36.2939 56.336C31.6029 63.707 23.7364 73.0356 13.2722 73.0356Z" stroke="black" stroke-width="6" stroke-linejoin="round"/>
</svg>
