<svg width="197" height="380" fill="none" xmlns="http://www.w3.org/2000/svg">
  <g clip-path="url(#a)">
    <path d="M161.9 178.9c-1.1-7.2-2.8-21.1-2.8-21.1l1.7-3.3s-9-6.6-15.1-9.9c-6-3.2-22.4-12.3-26.4-15.1-2.6-5.3-11.1-12.7-11.1-12.7l-.2 7.1s5.2 3.7 5.1 11.8c-.1 8.1-4.5 17-7.6 21.4-3.1 4.4-9.2 11.9-13.3 25-.4-11.3-11.5-21.5-15.4-26.9-3.9-5.4-4.6-11.9-5.2-20 3.3-.8 5.9-6.2 5.9-9.3 0-3.1 0-5.2-.9-9.1-.7.4-12 13.1-12 13.1l-41.1 24.7s.6-.1 1.7 1.7c.2 2.2-1.4 15.9-2.3 22.4-.9 6.6-5.3 22.5-6.5 25.9-1.2 3.3-2.4 13.5-2.4 13.5s136.3.3 156.8.4c.3-5.2-7.9-32.4-8.9-39.6Z" fill="#F68A28"/>
    <path d="M111.5 128.5c-.9-1.1-3.2-4.2-3.2-4.2s-1.1 4.4 1.6 7.5c2.7 3 2.7 2.6 2.7 2.6s-.2-4.8-1.1-5.9ZM74.7 126.5c-1.6 1.9-2.7 8.5-2.7 8.5s1.9-.9 3.7-2.8c1.8-1.8 1.4-8.2 1.4-8.2s-.8.5-2.4 2.5Z" fill="#864316"/>
    <path d="m107.7 381-5.9-57.2h-4.9V381H33.1l20.8-111.8h91.5L161.5 381h-53.8Z" fill="#F68A28"/>
    <path d="M96.9 381v-58l-15.5-3.2L73 381h23.9ZM57.1 160c5-.6 8.7.2 8.7.2s-3 3.1 3.5 4.9c6.2 1.7 21.6 18.4 22.8 22.2-2-10.3-12.6-17.8-12.6-18 0-.2-10-8.6-10-8.6l2.6-4.4-18.2-.9c0-.1-1.8 5.2 3.2 4.6ZM114.9 165.1c6.5-1.8 3.5-4.9 3.5-4.9s3.7-.8 8.7-.2c5 .6 3.2-4.7 3.2-4.7l-18.2.9 2.6 4.4s-10 8.4-10 8.6c0 .2-10.6 7.7-12.6 18 1.2-3.7 16.6-20.4 22.8-22.1ZM92.1 187.7v-.2.2c.1-.1.1-.1 0-.2v-.2.4ZM25.3 157.8s-3.2 30.7-6.2 37.5c-3 6.8-4.9 22.8-4.9 22.8l4.4.6s-.6-4.2 4.6-18.9c5.2-14.8 4.7-37.9 4.7-37.9l-2.6-4.1ZM170.2 218.1s-1.9-16-4.9-22.8c-3-6.8-6.2-37.5-6.2-37.5l-2.6 4s-.5 21.8 4.3 36.6l-9.3 4.2 7.3 1s-12.2 12-12.2 12.2c0 .2 13-7.9 16.6-10.1 3 9.9 2.6 12.9 2.6 12.9l4.4-.5ZM65.5 219.3S44.8 172.2 44.6 172c-.2-.1 11.3 47.7 11.3 47.7l9.6-.4ZM105 206.5c-.2 0 14.8 13.6 14.9 13.5l13.2.4s9.9-44 9.9-44.5c0-.4-17.8 37.3-17.8 37.3s-20-6.7-20.2-6.7ZM53 277.6l-1.4 7.6h95.1l-.9-6.2-92.8-1.4Z" fill="#80441B"/>
    <path d="M134.7 58c-4.3-1.7-7.3 1.8-8 2.6 2.3-10.8 5.3-20.4 6.5-27.5C135.3 21.2 126.5.8 93.6.8 60.8.9 50 13.9 53 32.3c.2 1 7 36.3 8.5 50.2l-3.4-21.7S54.9 56.1 50 58c-4.9 1.9-7.9 6.2-6.2 12 1.7 5.7 5.2 5.9 6.6 8.6 1.5 2.7 6.7 8.1 11.1 4.2 1.5 13.8-3 19.7 7.3 24.3 3.5 1.6 6 3.1 8.3 4.5h-.2s.9 12.8.4 15.9c-.4 3.1-2.7 7.1-5.3 8-.3 2.8.3 5.8.3 5.8s5.7 11.9 20 11.3c14.3-.6 20.6-12.7 20.6-12.7v-4.8s-5.5-4.2-5.5-8.2c0-3.8.6-15.4.6-16.4 2.2-1.4 4.1-2.5 5.8-2.7 5-.8 9.7-4.7 10-24.4v-.8c4.4 3.8 8.9-1.5 10.4-4.2s5-2.8 6.6-8.6c1.8-5.6-1.1-9.9-6.1-11.8ZM124 82c.2-6.9 1.2-13.8 2.6-20.2L124 82Z" fill="#EAA779"/>
    <path d="M76.7 60.5001c-5.8.4-8.6 2.3-8.6 2.3s3.3 2.6 8.9 2.1c6.4-.6 8-1.1 8-1.1s-1.4-3.8-8.3-3.3ZM107.4 60.5001c-6.9-.4-8.3 3.3-8.3 3.3s1.6.5 8 1.1c5.6.5 8.9-2.1 8.9-2.1s-2.8-2-8.6-2.3Z" fill="#fff" stroke="#181716" stroke-width=".8251" stroke-miterlimit="10"/>
    <path d="M93.3999 81.1c-.7.5-1.8.5-2.5-.1-1-.9-2.3-1.7-2.7-.5-.2.9.7 1.2.7 1.2l3.2 1.9 3-1.6s1.7-.7.9-1.6c-.5-.7-1.7 0-2.6.7ZM85.6 53.6c-2.1-1.3-4-3.6-7.8-2.9-6.4 1.3-11.2 2-9.9 10.9 0 0 9.8-12.3 16.8-.1 1.2 2.1 1.2-5.2 4.7-5.8 2-.2-.1-3.9-3.8-2.1ZM106.7 50.7c-3.8-.8-5.7 1.5-7.8001 2.9-3.7-1.8-5.8 1.8-3.9 2.2 3.5.6 3.5 7.8 4.7 5.8 7.1001-12.2 16.8001.1 16.8001.1 1.4-9-3.5-9.7-9.8-11ZM50.1 61.4001c-6.1.9-.8 11.8-.8 11.8.3-5.1 4.6-4.4 4.6-4.4l-1.2 6.9s5.8 3.5 6-3.6c.2-7-2.5-11.6-8.6-10.7ZM134.7 60.8c-6.1-.9-8.3 3.7-8.6 10.7-.4 8.1 6.2 3.8 6.2 3.8l-1.4-7.1s4.3-.7 4.6 4.4c0 0 5.2-10.9-.8-11.8Z" fill="#B16D39"/>
    <path d="m59.2 67.4.9-.8s-1.5-15.9 2.4-23.5c4-7.6.3-7.4-.1-16.7-.5-9.2 3.1-17.2 12.1-15.5 8.9 1.7 10.9 5.1 19.6 4.7 8.7-.4 15.9-8 21.9-3.6 6.5 4.8 6.8 12.1 5.3 19.5s0 7.5 1.6 11.4c1.6 3.9 2.5 16.8 2.2 20.4.3.5.8.5.8.3 0-.3 1.8-7.3 1.8-7.3s4.7-13.1 5.2-26.8c.6-15.1-13.9-24.2-24-26.6-22.1-4.6-44.1-1.6-53 11.1-7 10 .2 36.1.3 36.1.7 2.2 3 17.3 3 17.3Z" fill="#3A3A39"/>
    <path d="m106.7 381-5.7-56.2h-3V381H32.2l21-112.8h93.2l.1.9 16.2 112m-2.1-.1-16-110.8H54.7999L34.2 381h62.3l-.5-58.2h6.8l.1.9 5.9 57.3" fill="#000"/>
    <path d="M170.6 212.4H4.9v65.3h165.7v-65.3Z" fill="#171618" stroke="#fff" stroke-width="4"/>
    <path d="M66.4 105.9s10.4 3.5 10.5 5.7c.1 1.9-.4 4.1.4 6.1 1.8 4.8 6.7 7.4 14.6 7.4 4.8 0 13-1.7 16.1-7.4.1-2.5.2-3.9.2-6.9 4-2.4 8.6-5.6 8.6-5.6s-16.3 7.9-23.8 8.4c-7.5.6-26.6-7.7-26.6-7.7Z" fill="#B26E38"/>
    <path d="M72.3 141.9s8.1 11.4 19.3 11c13.9-.5 21.1-12.8 21.1-12.8s-1.1 7.7-7 16.9-12.9 20-13.4 24.6c-2.8-10.8-5.8-14-8.4-17.5-2.7-3.5-9.1-12.7-10.7-17.5-1.1-3.5-.9-4.7-.9-4.7Z" fill="#D7D5D4"/>
    <path d="M61.5 87.9s-1.4 14.2 11.6 18.4c13 4.2 11.9 6.8 18 6.8 11.4 0 14-5.4 20.8-7.1 5.3-1.4 9.8-6.7 11.5-14.5 0 3.6-1.8 11.2-4.3 14.1-.5.6-3.5 1.1-6.9 2.7-12 5.8-29.4 6.5-29.4 6.5s-18.6-9.1-20.4-12.4c-1.9-3.2-.9-14.5-.9-14.5Z" fill="#B16D39"/>
    <path d="M93.3 91c-4.7-.5-9.5 1.7-12.5 5.3 3.5-2.2 7.5-4 11.7-3.8 2.7.2 5.3.7 7.9 1.6.8.3 1.6.7 2.6 1.2-.4-.3-.7-.7-1.1-1-2.4-2-5.5-3-8.6-3.3ZM77.8 96.5999c.1.3.2.6.4.8.2-.3.3-.5.3-.7.2-.7.4-1.5.5-2.2-.7.5-1.2 1.3-1.2 2.1ZM88.8 103.7c2.4-.1 4.7-.5 7 .1.3.1.7.2 1 .3-1.8-2.3-5.8-1.9-8-.4ZM104.2 93c.1.6.3 1.2.6 1.7.1.2.2.4.4.6.1-.2.2-.5.2-.7 0-.7-.5-1.4-1.2-1.6ZM90.8 75.1999c.5-.2 1-.4 1.5-.4s.9.4 1.3.6h.1c-.3-1.5-2.4-1.7-2.9-.2ZM83.6 79.7c.1.9.5 1.7 1.1 2.3 1.2 1 2.9.7 4.2.1.3.2.5.5.8.7.7.5 1.4 1 2.3 1.1.4 0 .7-.1 1.1-.3l1.5-.9c.3-.2.5-.4.8-.7.6.5 1.5.8 2.3.7.9-.1 1.7-.5 2.3-1 .4-.4.9-.9 1-1.5.3.4.7.8 1 1.2 1 1.3 2 2.6 2.5 4.2-.1-.9-.4-1.7-.7-2.5-.7-1.5-1.6-2.9-2.6-4.2-.2-.3-.5-.6-.7-.9-.2-.4-.5-.7-.8-1.1l-.9.8c.5.7 1.1 1.4 1.1 2.3-.1.6-.8 1.1-1.3 1.4-.8.5-1.8.5-2.5 0l.5-.5c-1.2.6-2.3 1.3-3.6 1.8-.2.1-.4.1-.5.2-.2.1-.4.1-.5.1-.7-.1-1.2-.5-1.8-.8-.7-.3-1.5-.9-2.2-1.1l.6.6c-.7.1-1.4.2-2 0-1.1-.2-1.7-1.4-1.6-2.4.1-.4.2-.7.5-.9.4-.3.9-.6 1.4-.8.2-.1.4-.2.6-.2l-.5-1.3c-1.4.2-2.8 1.1-3.3 2.4-1.8 1.9-3 4.3-3.8 6.8.8-1.8 1.7-3.4 3-4.9.2-.3.5-.5.7-.7ZM97.1 52.7l-.6-1.1-1 .7.8 1c.5.5 1 1.1 1.2 1.4.2.3.5.5.7.8-.2-.3-.3-.6-.5-1-.1-.2-.2-.4-.3-.7 1 .1 2.2-.7 2.9-1.4-.9.6-2.6 1.2-3.2.3ZM86.2001 55.4c.2-.3.5-.5.7-.8.2-.3.7-.8 1.2-1.3l.1-.1.8-1c0 .1-1-.6-1-.6l-.6 1.1c-.6.8-2.3.3-3.3-.4.7.8 1.8 1.5 2.9 1.4-.1.3-.3.6-.3.7-.1.3-.3.6-.5 1ZM85.5 70.9c.8-.7 1.4-1.3 1.9-2l-1-.7c-1 1.3-2.2 2.5-3.5 3.5-1.3.9-2.8 1.7-4.5 1.7-3.3 0-6.5-2-8.9-4.1 2.1 2.1 4.7 3.9 7.6 4.6 3.1.7 6.1-1 8.4-3Z" fill="#181716"/>
    <path d="M49.4001 61.9c.7-.4 1.6-.5001 2.4-.6001 1.7-.1 3.2.7001 4.3 2.1001 2.1 2.7 2.9 6.7 2.4 10.1-.2 1-.5 2.3-1.6 2.7-.6.1-1.3.1-2 .1-.9-.1-1.6-.4-2.1-.9-.5-.7-.7-1.6-.6-2.5h-1.2c.1 1.6 1 3.2 2.3 4.1 1.3.9 2.8 1.2 4.3 1.3-.7-.2-1.4-.4-2.1-.7-.7-.3-1.3-.7-1.9-1.2.9.3 2 .3 2.9.2.9-.1 1.5-.9 1.8-1.6.6-1.7.8-3.9.5-6.1.9 5.4 1.6 10.3 2 13.8.4 4 .4 7.3.3 10.3-.2 6.8-.3 11.3 7.4 14.7 3.6 1.6 6.2 3.2 8.5 4.7 4.4 2.8 7.9 4.9 14.8 5h.2c6.5 0 11.5999-3.2 15.6999-5.8 2.4-1.5 4.5-2.8 6.2-3 5.1-.8 10.3-4.4 10.6-25.1.2-13.4 3.6-26.6 6.3-37.2001 1.3-5 2.4-9.2 3-13 1.2-6.8-1-14.2999-6-20.1999C123 7.2 113 .2 93.6001.2c-17.9 0-30.2 3.9-36.6 11.4-4.5 5.3-6.1 12.3-4.7 20.8 0 .2 3.7 19.6 6.3 35.4-.3-1.8-1-3.6-1.9-4.9-1.1-1.6-3-2.8-5-2.7-1 0-2 .1999-2.9.5999-4.7 2.5-1.8 9.7001.5 13.0001-.9-3.1-3.5-10.1.1-11.9ZM123.1 83.5c-.3 19.6-4.9 23-9.4 23.7-2 .3-4.2 1.7-6.7 3.2-4 2.5-8.9999 5.6-15.1999 5.6-6.4-.1-9.6-2-14-4.8-2.4-1.5-5-3.1-8.7-4.8-6.8-3.1-6.8-6.5-6.6-13.4.1-3 .1-6.3-.3-10.4-.4-3.7-1.2-9-2.1-14.8l.6-.7.1-.1v-.2c-.5-5.3-.8-10.8001 0-16.2001.4-2.7 1.6-5.1 2.8-7.5.9-1.9 1.8-3.9999 1.6-6.1999-.1-1.1-.4-2.2001-.8-3.1001-.3-.9-.6-1.8999-.7-2.8999-1.1-6.3001-.4-19.2 8.3-19.2 2.7 0 5.3.4 7.8 1.4 2.5 1 4.9 2.5999 7.7 3.1999 4.1.9 8.5.6001 12.4999-.8999 2.6-.9 4.9-2.5 7.5-3.4 4-1.5 7.7-.8 10.6 2.4 4.6 5.1 4.3 12.8 2.4 19-.3 2-.6 4.1999.1 6.1999.2.7.6 1.3001.9 1.9001.6 1.1 1.1 2.3 1.5 3.5 1.1 3.8 1.5 7.6999 1.7 11.5999.1 2.7.1 5.5001-.3 8.3001.1 0 .4.2.7.3-1.1 5.9-1.9 12-2 18.3Zm-65.0999-71c6.2-7.2 18.2-10.9 35.6-10.9C112.5 1.6 122.1 8.3 126.8 14c5.5 6.6 6.6 14.1999 5.7 19.0999-.6 3.7-1.7 7.9001-3 12.9001-1.2 4.7-2.5 9.8999-3.7 15.2999.1-1.6 0-3.1 0-4.7-.2-4-.6-8.0999-1.7-11.8999-.4-1.3-1-2.6-1.6-3.8-.3-.6-.6-1.1-.8-1.7-.6-1.8-.3-3.7001 0-5.6001 2-6.1 2.2-14.6999-2.7-19.9999-3.3-3.6-7.4-4.4-11.9-2.7-2.6 1-4.9 2.5-7.4999 3.4-3.7 1.4-7.9 1.7-11.8.8-2.7-.6-4.9-2.1-7.5-3.1-2.6-1-5.5-1.4-8.3-1.5-4.9-.1-7.8 3.7-9 8.1-1.3 4.8-1.3 11.8999.7 16.4999.9 2.5 0 5.1001-1.1 7.4001-1.2 2.5-2.5 5.0999-2.9 7.7999-.6 4.4-.6 8.8001-.4 13.2001-2.5-14.7-5.5-30.7-5.7-31.3-1.2-8.1.2-14.7 4.4-19.7Z" fill="#181716"/>
    <path d="M127.9 62.7c-2.1 3.2-2.8 8.8-1.5 12.2.3.7.9 1.6 1.8 1.6 1 .1 2 .1 2.9-.2-.5.5-1.2.9-1.9 1.2-.7.3-1.4.5-2.1.7 1.5-.1 3-.5 4.3-1.3 1.3-.9 2.3-2.4 2.3-4.1h-1.2c.1.9-.2 1.8-.6 2.5-.5.5-1.2.8-2.1.9-.6.1-1.4.1-2-.1-1-.4-1.4-1.7-1.6-2.7-.5-3.4.3-7.4 2.4-10.1 1-1.3 2.6-2.2 4.3-2.1.8 0 1.7.2 2.4.6 3.6 1.8 1 8.8 0 11.8 2.3-3.3 5.2-10.5.5-13-.9-.5-1.9-.6-2.9-.6-2-.1-3.9 1.1-5 2.7ZM100.9 41.8999c2.9-.6 6-1.1 8.9-.3.4.1.8.3 1.2.4-2.7-2.1-7.2-1.3-10.1-.1ZM99.1001 36.2c.8.1 1.6999.2999 2.5999.3999-.7-.2-1.3-.4-1.8999-.6-.4-.1-1.5-.4-1.9-.5-.6-.1-1.3-.2-1.9-.4-.6-.1-1.3-.1999-2-.1999-4.3-.3-8.8 0-12.9 1.5 6-.9 12.1-1.1 18-.2ZM38.9001 181.2c-.5-1.9-1.4-3.6-2.2-5.3-.2-.3-.3-.7-.4-1v-.3h-.1c-.1.1-.2.3.1.6v-.2c.5 1.7.6 3.5 1 5.2 2.5 9.2 5.1 18.4 7.4 27.6.9 3.7 1.8 7.4 2.6 11.1l1.2-.2c-1.3-7.5-3.3-14.9-5.3-22.3-1.2-5.1-2.7-10.2-4.3-15.2Z" fill="#181716"/>
    <path d="M36.3 174v.6c.1 0 .3-.2 0-.6Z" fill="#181716"/>
    <path d="m161.2 154.1-1.2-.9c-.9-.7-2.1-1.5-3.1-2.2-11.9-7.8-24.5-14.7-37-21.6-1-1.5-2.1-2.9-3.2-4.3-2.6-3.3-5.3-6.4-8.5-9.1l-.5.6c1 .9 2 1.9 2.9 2.8 3.2 3.4 6 7 8.6 10.9-.1.1-.1.2-.1.2.1.1.2.1.3.2 2.6 4.1 5 8.3 7 12.7 1.1 2.5 2.2 5.1 3.2 7.6.4 1.2 1 2.4 1 3.6v.2c-.4.1-.9-.1-1.4-.2-1.7-.6-3.6-.6-5.4-.6-4.8.1-9.5 1-14.1 2.2l1.5.7c1 .7 3.3 2.3 3.4 3.5-.1.3-.6.7-.9 1-.6.5-1.3 1-2 1.5-2.7 2-5.5 4-8 6.2-2.5 2.3-4.8 4.8-6.9 7.5-1.3 1.7-2.5 3.4-3.6 5.3 1-6.3 4.4-11.8 8-16.9 2.4-3.4 4.9-6.9 7-10.5 1.2-2.1 2.4-4.2 3.3-6.5 1.6-4.2 2.8-8.7 2.4-13.2-.5-4.5-2.6-8.9-5.9-11.9l-.4.5c.9 1.1 1.7 2.3 2.4 3.5 3.7 6.9 2.8 13.5.1 20.5-2.8 6.7-7.3 12.5-11.3 18.6-2.8 4.2-5.2999 8.7-6.3999 13.7-.5-3.1-1.5001-6.1-3.1001-9.1-.3-.6-.9999-1.7-1.3999-2.3-.4-.6-.9001-1.3-1.3001-1.8-6.5-7.9-12.4-14.7-13.9-25.4-.3-2.3-.5-4.7-.2-7 .5-3.8 2.1-7.7 5-10.3l-.1999-.4c-.9.6-1.7 1.4-2.4 2.2-2.1 2.5-3.3 5.8-3.6 9.1-.2 1.9-.1 3.8.1 5.7 1 10 6.2999 17.6 12.5999 25l1.5 1.8c.4.5.8 1.1 1.1 1.6 1.2 1.8 2.2001 3.8 3.0001 5.9.9 2.3 1.3999 4.7 1.6999 7.1-.2-.3-.4-.6-.5-.9-2.7-4.4-6-8.3-9.8-11.7-2.5-2.3-5.3-4.3-8-6.2-.7-.5-1.4-1-2-1.5-.3-.3-.8-.7-.9-.9.2-1.2 2.3001-2.8 3.3001-3.5l1.4-.7c-3.9-1-7.9-1.7-11.9-2-2.3-.1-4.7-.3-7 .3-.5.1-1.1001.3-1.6001.3H54v-.3c.1-1.3.6-2.5 1.1-3.7l2.4-5.7c2.2-5.1 4.9-10.1 8.1-14.7.3-.5.6-1 1-1.4 3.2-4.5 6.7-8.8 10.9-12.4l-.4-.5c-1.9 1.5-3.6999 3.2-5.2999 5-2.4 2.5-4.6 5.3-6.6 8.1l-.1001.1c-7 3.8-14 7.7-21 11.8-5.6 3.3-11.3 6.6-16.7 10.3-.4.3-1.5 1-1.9 1.3-.4.3-1.3999 1.1-1.7999 1.4l-.4001.3.3.5c3 4.7 5.9001 9.6 8.1001 14.8.3.6.5999 1.4.7999 1.9.4 1.1.8 2.2.9 3.4.2-.9.1-1.9-.1-2.9-.4-1.9-1-3.7-1.8-5.5-1.8-4.2-4-8.2-6.6-12 .5-.3 1.0001-.8 1.3001-1 .9-.7 2.0999-1.5 3.0999-2.1 11.1-7.2 22.6-13.6 34.2-20-.2.2-.3.4-.4.6-.6 1-1.2999 2.1-1.8999 3.1-2.9 4.8-5.2 9.9-7.3 15-.4 1-.8001 2-1.1001 3-.1.5-.1999 1-.0999 1.6.3 1.7 1.9999 1.7 3.2999 1.3 1.6-.5 3.2001-.5 4.9001-.4 3.6.1 7.0999.6 10.6999 1.1-1.3 1-2.6999 2.3-2.7999 3.7.1.9.7999 1.5 1.3999 2 3.3 2.6 6.8 4.9 9.9 7.7 2.2 1.9 4.1 4.1 6 6.3 1.6 1.9 3.1001 3.9 4.3001 6.1.5.9.9999 1.8 1.2999 2.8.1 2.7.1 5.4.1 8.1l.1001 12.8L92 219.3h1.2v-25.7c0-2.7.0001-5.4-.0999-8 .4-1.2 1.0999-2.4 1.6999-3.6 2.7-4.4 6.1-8.4 10-11.9 2.5-2.2 5.2-4.2 7.9-6.2.7-.5 1.4-1 2-1.6.6-.5 1.3-1.1 1.3-1.9 0-1.4-1.4-2.7-2.7-3.7 3.6-.4 7.1-.8 10.7-1 1.5 0 3 0 4.4.3.7.2 1.5.4 2.3.3 1-.1 1.7-.8 1.7-1.8 0-1.6-.7-2.9-1.2-4.3-.8-1.9-1.7-3.8-2.5-5.7-2-4.5-4.4-8.9-7.1-13.1 6.3 3.4 12.6 7 18.8 10.6 6 3.5 12.1 7.1 17.9 11.1.6.4 1.3.9 1.9 1.4-1.7 2.1-2.9 4.6-3.7 7.2-.8 2.8-1.3 5.8-.6 8.6.2-1.4.5-2.8.8-4.2 1.1-4.3 2.9-8.2 5.1-12.1l-.6.1Z" fill="#181716"/>
    <path d="M144.8 190c-2.5 9.5-4.3 19.1-5.4 28.8l1.2.2c.5-1.9 1-3.8 1.4-5.7 1.6-6.6 3.7-16.2 5.3-22.7 1.3-5.2 2.8-11.8 4.2-17-1.5 2-2.6 4.2-3.5 6.5-1.3 3.2-2.3 6.6-3.2 9.9ZM94.9001 54.6h-5.2v4.5h5.2v-4.5ZM77.4001 64.8999l3.5-.4c-.1-1.8-1.5-3.2-3.3-3.2-1.8 0-3.3 1.5-3.3 3.3 0 .2-.1-.1 0 .3h3.1ZM106.9 61.2999c-1.8 0-3.3 1.5-3.3 3.3h6.6c0-1.8-1.5-3.3-3.3-3.3Z" fill="#181716"/>
    <path d="M58.1 60.8S54.9 56.1 50 58c-4.9 1.9-7.9 6.2-6.2 12 1.7 5.7 5.2 5.9 6.6 8.6 1.5 2.7 6.7 8.1 11.1 4.2M126.6 60.8s3.2-4.7 8.1-2.8c4.9 1.9 7.9 6.2 6.2 12-1.7 5.7-5.2 5.9-6.6 8.6-1.5 2.7-6 7.9999-10.4 4.0999" stroke="#181716" stroke-width="1.3752" stroke-miterlimit="10"/>
    <path d="M115.1 55.2s-3.6-2.7-6.8-3.6c-3.2-1-7.9.1-6.6-2.9.9-2.1 6.2-2.4 10.4-.2 4.2 2.1 4.6 5 4.6 5s-2.6-2.3-4.8-2.4l1.7 1.8-2.7-1.7c.1 0 2.4 1.9 4.2 4ZM69.6 54.4s3.9-2.3 7.1-2.9c3.3-.6 7.8 1 6.9-2.2-.7-2.2-6-3-10.4-1.4-4.4 1.7-5.1 4.5-5.1 4.5s2.8-2 5.1-1.9l-1.9 1.6 2.8-1.4c-.1.1-2.5 1.8-4.5 3.7Z" fill="#201E1E" stroke="#181716" stroke-width=".275" stroke-miterlimit="10"/>
    <path d="M71.6 135.5c6.5-2.6 5.9-10.2 5.9-10.2l-.7-14.2M108.2 110.5l-.4 14.1s-.9 7.8 5.4 10.5M88.5 128.1s3.5 4 7.4.1M72 141s6 11.9 20.5 11.9 20.6-13.6 20.6-13.6" stroke="#181716" stroke-width="1.3752" stroke-miterlimit="10"/>
    <path d="M74.5 150.2s6.3 7.8 17.4 7.8c11.2 0 17.7-7.7 17.7-7.7M26.6 159s28.8-19.8 33.7-21.4M25.2 156.7s-.1 12.3-4.3 30.5-6.1 20.4-7 31.9M158 159s-28.8-19.8-33.7-21.4M159.5 156.7s.1 12.3 4.3 30.5 6.1 20.4 7 31.9M82.4 74.7H69.6c-4.2 0-7.6-3.4-7.6-7.6V55.3h28V67c0 4.3-3.4 7.7-7.6 7.7ZM115.2 74.7h-12.8c-4.2 0-7.6-3.4-7.6-7.6V55.3h28.1V67c0 4.3-3.4 7.7-7.7 7.7Z" stroke="#181716" stroke-width="1.3752" stroke-miterlimit="10"/>
    <path d="M123.9 189.5c-6.1 0-11-4.9-11.1-11.1 0-6.1 4.9-11 11-11.1 6.1 0 11.1 4.9 11.1 11 .1 6.2-4.9 11.2-11 11.2Zm0-3.2 4.8-4.8c-.6-.6-1.2-1.2-1.7-1.8l-3.1 3.1-.2-.2-2.8-2.8-.1-.1-1.7 1.7c1.6 1.7 3.2 3.3 4.8 4.9Zm0-12.3 3.1 3.1 1.7-1.7-4.8-4.8-4.8 4.8c.6.6 1.2 1.2 1.8 1.7.9-1 2-2 3-3.1Zm-1.8 4.5 1.7 1.7 1.8-1.8-1.7-1.7-1.8 1.8Zm-4.4 1.7 1.7-1.7-1.8-1.8c-.2.1-1.7 1.7-1.7 1.7.7.6 1.3 1.2 1.8 1.8Zm10.7-1.8 1.7 1.7 1.7-1.7-1.7-1.7-1.7 1.7Z" fill="#120600"/>
    <path d="M2.9 210.4v69.3h169.7v-69.3H2.9Zm165.7 65.3H123c.1-.3.1-.6.1-.9.1-.3.1-.7.1-1 0-.1 0-.4-.1-.8-.1-.3-.2-.7-.3-1.2l-.3-1.2c-.1-.3-.1-.6-.1-.6-.1-1.1-.3-2.3-.5-3.6-.2-1.3-.4-2.6-.6-3.8-.2-1.3-.4-2.4-.5-3.5-.1-1.1-.2-1.9-.2-2.5 0-.3.3-.6.9-1 .6-.4 1.4-1 2.3-1.6 1-.6 2.1-1.3 3.2-2.1 1.2-.8 2.2-1.7 3.2-2.6 1-1 1.8-2 2.4-3.1.7-1.1 1-2.2 1-3.4 0-.4-.2-.9-.2-1.8-.3-.6-.9-1.2-1.6-1.7-.8-.6-1.8-1.1-3-1.5-1.2-.4-2.7-.6-4.5-.6-1.8 0-3.7.2-5.8.6-2.1.4-4 .9-5.7 1.6-1.7.7-3.2 1.4-4.3 2.3-1.1.8-1.7 1.7-1.7 2.7 0 .1.1.3.2.5.2.2.3.5.5.7.1.2.3.4.5.6.2.2.4.3.5.3h.5c0-.4.4-1 1-1.5.7-.5 1.4-1.1 2.3-1.6.9-.6 1.7-1 2.6-1.4 1-.3 1.6-.6 2.1-.6 0 .2-.1.5-.1.8-.1.3-.1.6-.1.8 0 3.2.1 6.5.5 10 .3 3.4.7 6.7 1.2 9.7.4 3.1.8 5.7 1.2 7.9.3 2.1.5 3.5.5 4 0 .1-.1.2-.1.3v.3c0 .2 0 .3.1.5H6.9v-61.3h161.7v61.3Zm-48.4-23.5c-.1-.6-.2-1.5-.3-2.5-.1-1-.1-2.1-.1-3.2s.1-2.1.1-3.1.1-1.9.2-2.6c.2-.1.7-.2 1.3-.3.6-.1 1.6-.1 3-.1 1.6 0 3 .3 4.1.8 1.1.5 1.7.9 1.7 1.4 0 .9-.4 1.9-1.2 2.8-.8.9-1.7 1.9-2.8 2.8-1.1.9-2.3 1.7-3.4 2.4-1.1.6-2 1.2-2.6 1.6Z" fill="#fff"/>
    <path d="M138.3 252.6c.1.2.3.3.4.3.8 0 1.2-.5 1.2-1.4 0-.4 0-.7-.1-1 0-.3-.2-.7-.3-1.1-.1-.4-.2-.9-.3-1.5-.1-.6-.1-1.4-.1-2.4 0-.9.1-2.2.5-3.8.4-1.6.8-3.3 1.3-4.9.5-1.7 1-3.2 1.4-4.6.4-1.4.6-2.3.6-2.7 0-.2 0-.5-.2-.8 0-.3-.1-.7-.2-1-.1-.4-.2-.7-.4-.9-.2-.3-.5-.4-.8-.4-.2 0-.4 0-.5.1l-.3.3c-.5 1.3-1.1 2.8-1.6 4.5-.5 1.6-1 3.4-1.4 5.1-.4 1.7-.7 3.3-1 4.9-.3 1.5-.4 2.7-.4 3.7 0 .8.1 1.9.3 3.3.3 1.4.9 2.8 1.9 4.3ZM100.4 240.4c.3 1.6.5 2.8.6 3.6.2.7.3 1.2.3 1.4 0 .1.1.6.2 1.4.2.8.4 1.9.7 3.1.3 1.2.6 2.5 1 3.9.4 1.3.8 2.6 1.2 3.8.4 1.2.8 2.2 1.2 3 .5.8.9 1.2 1.3 1.2s.7-.1 1-.3c.3-.2.4-.4.4-.8l-2.8-11.4c-.4-1.6-.7-3-1-4.3-.2-1.2-.4-2.5-.6-3.6-.2-1.2-.3-2.4-.5-3.6-.2-1.2-.3-2.5-.5-4-.1-1-.2-2.2-.3-3.6-.1-1.5-.3-2.8-.5-4.1-.2-1.3-.4-2.3-.8-3.2-.3-.9-.8-1.3-1.3999-1.3-.5 0-.9.4-1 1-.1.7-.2 1.2-.2 1.6.3 3.9.6 7.1.9 9.8.3 2.6.5999 4.8.7999 6.4ZM142.1 258c-.5 0-.8.2-.9.7-.1.4-.1.7-.1 1 0 .8.3 1.5.8 2.1.5.6 1.1.9 1.7.9.5 0 .8-.3 1.1-.8.3-.6.5-1.1.5-1.6s-.2-.9-.4-1.2c-.2-.3-.5-.6-.9-.7-.4-.1-.7-.3-1-.3-.4-.1-.6-.1-.8-.1ZM80.4001 258c.8.9 1.7 1.6 2.7 2.1 1 .5 2 .7 3.1.7 1.5 0 2.8-.2 3.9-.5 1.2-.3 2.1-.7 2.9-1.1.8-.4 1.4-.8 1.9-1.2.5-.4.8-.7.9-.9.4-.5.6-.9.6-1.2 0-.2-.1-.3-.1-.4 0-.2-.1-.3-.6-.5-.1-.1-.3-.2-.4-.2-.1 0-.5.2-1 .5-.6.3-1.2.6-1.9 1s-1.5.7-2.3 1c-.8.3-1.5.4-2.2.4-.9 0-1.9-.1-2.8-.5-.9-.4-1.7-.9-2.4-1.5-.7-.7-1.2-1.5-1.7-2.5-.4-.9-.6-2-.6-3.2 0-1.4.1-2.7.5-3.9.4-1.3.9-2.3 1.4-3.2.5-.9 1.1-1.6 1.7-2.1.6-.5 1.1-.8 1.6-.8 1.1 0 1.7.1 1.9.5.2.4.3.6.3.7 0 .7-.3 1.3-.9 1.7-.6.4-1.2.8-1.9 1.1-.7.3-1.3.6-1.9 1-.5.4-.8.9-.8 1.5 0 .4.1.7.3 1 .3.2.5.3.8.3.5 0 1.2-.1 2.1-.5.9-.4 1.7-.9 2.6-1.5.9-.7 1.6-1.4 2.2-2.1.7-.7 1-1.4 1-2.1 0-.6-.1-1.2-.5-1.7-.4-.6-.9-1.1-1.5-1.6s-1.3-.8-2.1-1.1c-.7-.3-1.5-.5-2.2-.5-.8 0-1.6.3-2.5 1-.9.7-1.7 1.6-2.4 2.8-.7 1.2-1.2 2.5-1.7 4.1-.5 1.5-.7 3.2-.7 5 0 1.8.3 3.5.8 4.9.5 1.4 1.1 2.5 1.9 3.5ZM55.3 246.8c.3.1.5.3.8.4.3.1.5.1.7.1.1 1.7.2 3.3.3 4.9.2 1.5.3 2.9.5 4.1 0 .6.1001 1.3.1001 2.1S57.9 260 58 260.8c.1.7.3 1.4.6 1.9s.8001.8 1.3001.8c.3 0 .4999-.2.5999-.5.1-.3.1-.6.1-1.1 0-1.2 0-2.4-.1-3.6 0-1.3-.1999-2.6-.2999-3.8-.1-1.3-.2-2.5-.3-3.7-.1-1.3-.1001-2.4-.1001-3.4v-.8c1.9-.5 3.6001-.9 4.9001-1 1.4-.1 2.4-.3 3.2-.3 0 .3.0999.9.1999 1.6.1.7.2001 1.5.3001 2.3.1.8.1999 1.6.1999 2.3.1.7.1 1.2.1 1.5 0 .5.1001 1.2.1001 2.3 0 1 .1999 2 .2999 3.1.2 1 .4 1.9.6 2.7.3.8.6 1.2.9 1.2.6 0 1.1001-.5 1.3001-1.4.3-.9.4-2 .4-3.2 0-1.5-.1001-3.1-.3001-4.8-.2-1.7-.3999-3.4-.6999-5.2l-.5-3.2c.1-.1.3-.2.6-.3.3-.1.5999-.2.7999-.3.3 0 .5001-.2.7001-.3.2-.1.2999-.3.2999-.5 0-.4-.3-.6-1.2-.7-.5-.1-1.0999-.1-1.5999-.1l-1.6-11.6c-.1-.7-.2001-1.4-.2001-2.1 0-.7-.1-1.5-.1-2.2-.1-1.1-.2-2-.3-2.6-.2-.6-.6-.9-1.2-.9-.5 0-.9.3-1.2.9-.2.6-.3 1.3-.3 2.2v.9c0 .3.1.7.1 1l1.6 14.4c-.5.1-1.0999.2-1.7999.3l-2.1001.3c-.7 0-1.3999.1-2.0999.1-.6.1-1.2001.1-1.6001.1v-16.4c0-.3 0-.6-.1-1l-.2999-1.2c-.1-.4-.3-.7-.5-.9-.2-.3-.5-.4-.8-.4-.4 0-.7001.3-.9001.8-.1.5-.2999.9-.2999 1.3 0 1.6-.1001 3.1-.1001 4.6v12.3c0 .5.1001.9.1001 1.3-.5.2-1.1001.5-1.6001.9-.5.3-.8.8-.8 1.3 0 .2.1.4.3.6.2.1.4.3.7.5Z" fill="#fff"/>
    <path d="M35.2 236.2h-4.8c2.2 0 3.9-1.8 3.9-3.9 0-2.2-1.7-3.9-3.9-3.9-4.9 0-13-.1-16.8 0-4.5.2-6.8 1.5-7.5 2.1-3.2 2.1-8.2 10-2.7 24.1.1.1.1.2.2.4 1.8 4.1 5.8 6.2 10.3 6.2h13c2.1 0 3.8-1.7 3.8-3.8 0-2.1-1.7-3.8-3.7-3.8l-12.7-.3h18.5c2.3 0 4.1-1.8 4.1-4.1 0-2.2-1.7-4-3.9-4.1l-17.4-.7h19.5c2.2 0 4-1.8 4-4s-1.7-4.2-3.9-4.2ZM190.9 230.5c-.6-.6-3-1.9-7.5-2.1-3.8-.1-12-.1-16.8 0-2.2 0-3.9 1.8-3.9 3.9 0 2.2 1.8 3.9 3.9 3.9h-4.8c-2.2 0-4 1.8-4 4s1.8 4 4 4h19.5l-17.4.7c-2.2.1-3.9 1.9-3.9 4.1 0 2.3 1.8 4.1 4.1 4.1h18.5l-12.7.3c-2.1.1-3.7 1.8-3.7 3.8 0 2.1 1.7 3.8 3.8 3.8h13c4.5 0 8.5-2.1 10.3-6.2.1-.1.1-.3.2-.4 5.5-14 .5-21.8-2.6-23.9Z" fill="#EAA779"/>
    <path d="M6.1 230.5c-3.2 2.1-8.2 10-2.7 24.1.1.1.1.2.2.4 1.8 4.1 5.8 6.2 10.3 6.2h13c2.1 0 3.8-1.7 3.8-3.8 0-2.1-1.7-3.8-3.7-3.8l-12.7-.3h18.5c2.3 0 4.1-1.8 4.1-4.1 0-2.2-1.7-4-3.9-4.1l-17.4-.7h19.5c2.2 0 4-1.8 4-4s-1.8-4-4-4H13.9h16.5c2.2 0 3.9-1.8 3.9-3.9 0-2.1-1.7-3.9-3.9-3.9-4.9 0-13-.1-16.8 0-4.5 0-6.8 1.3-7.5 1.9Z" stroke="#000" stroke-width=".9336" stroke-linejoin="round"/>
    <path opacity=".5" d="M29.4 230c-.9.6-2.1 2.2 0 4M35.0001 238c-.9.6-2.1 2.2 0 4M33.3 246.9c-.9.6-2.1 2.2 0 4M26.2 255.8c-.9.6-2.1 2.2 0 4" stroke="#000" stroke-linecap="round"/>
    <path d="M190.9 230.5c3.2 2.1 8.2 10 2.7 24.1-.1.1-.1.2-.2.4-1.8 4.1-5.8 6.2-10.3 6.2h-13c-2.1 0-3.8-1.7-3.8-3.8 0-2.1 1.6-3.8 3.7-3.8l12.7-.3h-18.5c-2.3 0-4.1-1.8-4.1-4.1 0-2.2 1.7-4 3.9-4.1l17.4-.7h-19.5c-2.2 0-4-1.8-4-4s1.8-4 4-4h21.3-16.5c-2.2 0-3.9-1.8-3.9-3.9 0-2.1 1.7-3.9 3.9-3.9 4.9 0 13-.1 16.8 0 4.4 0 6.7 1.3 7.4 1.9Z" stroke="#000" stroke-width=".9336" stroke-linejoin="round"/>
    <path opacity=".5" d="M167.6 230c.9.6 2.1 2.2 0 4M162 238c.9.6 2.1 2.2 0 4M163.7 246.9c.9.6 2.1 2.2 0 4M170.8 255.8c.9.6 2.1 2.2 0 4" stroke="#000" stroke-linecap="round"/>
  </g>
  <defs>
    <clipPath id="a">
      <path fill="#fff" d="M0 0h197v380H0z"/>
    </clipPath>
  </defs>
</svg>
