<svg width="27" height="23" fill="none" xmlns="http://www.w3.org/2000/svg">
  <path d="M5.415 1H27l-5.415 21H0L5.415 1Z" fill="#F68A28"/>
  <path fill-rule="evenodd" clip-rule="evenodd" d="m16.042 7.774 1.588-5.972c.022-.083.054-.164.095-.24.522-.96 1.977-.607 2.038.484.006.115-.006.232-.035.344L18.29 7.774h4.921a1.091 1.091 0 1 1 0 2.183H17.82a1.09 1.09 0 0 1-.11-.006l-1.15 4.306h5.214a1.091 1.091 0 1 1 0 2.182h-5.797l-1.27 4.754a1.079 1.079 0 0 1-2.085-.556l1.117-4.198H10.63l-.013-.002v.002c0 .02-.01.037-.027.046l-1.247 4.67a1.089 1.089 0 0 1-2.104-.563l1.095-4.1h-5.12l-.013-.002c-1.336-.284-1.13-2.252.237-2.252H8.937l1.152-4.314H4.876c-1.31-.22-1.148-2.15.18-2.15h5.608l1.595-5.973a1.09 1.09 0 0 1 .095-.238c.523-.96 1.978-.608 2.039.483a1.1 1.1 0 0 1-.036.344L12.92 7.774h3.123Zm-.572 2.15h-3.126l-1.166 4.365H14.309l1.16-4.365Z" fill="#fff"/>
  <path d="m17.63 1.802-.05-.013.05.013Zm-1.588 5.972v.052a.052.052 0 0 0 .05-.039l-.05-.013Zm1.683-6.212-.045-.024.045.024Zm2.038.484.051-.003-.051.003Zm-.035.344.05.013-.05-.013ZM18.29 7.774l-.05-.013a.052.052 0 0 0 .05.065v-.052Zm5.985 1.333-.05-.011.05.011Zm-6.566.844.005-.051a.052.052 0 0 0-.055.038l.05.013Zm-1.15 4.306-.05-.013a.052.052 0 0 0 .05.065v-.052Zm6.286 1.294.05.01-.05-.01Zm-6.729.888v.052-.052Zm-.013 0v-.051.051Zm-.127 0v-.051a.052.052 0 0 0-.05.038l.05.014Zm-1.27 4.754.05.013-.05-.013Zm-2.085-.556.05.014-.05-.014Zm1.117-4.198.05.014a.051.051 0 0 0-.05-.065v.051Zm-3.107 0-.012.052h.011v-.052Zm-.013-.002.011-.05a.052.052 0 0 0-.063.05h.052Zm-.027.048-.025-.046a.051.051 0 0 0-.025.032l.05.014Zm-1.247 4.67.05.013-.05-.014Zm-1.093.806-.002.052.002-.052ZM7.24 20.592l.05.014-.05-.014Zm1.095-4.1.05.012a.051.051 0 0 0-.05-.065v.052Zm-5.133-.002.012-.05-.012.05Zm5.735-2.252v.051a.052.052 0 0 0 .05-.038l-.05-.013Zm1.152-4.314.05.014a.051.051 0 0 0-.05-.065v.051Zm-5.213 0-.008.052h.008v-.052Zm5.788-2.15v.052a.052.052 0 0 0 .05-.038l-.05-.014Zm1.595-5.973-.05-.013.05.013Zm.095-.238.046.024-.046-.024Zm2.039.483-.052.003.052-.003Zm-.036.344-.05-.014.05.014ZM12.92 7.774l-.05-.013a.051.051 0 0 0 .05.065v-.052Zm-.575 2.15v-.051a.052.052 0 0 0-.05.038l.05.013Zm3.126 0 .05.014a.052.052 0 0 0-.05-.065v.051Zm-4.292 4.365-.05-.013a.052.052 0 0 0 .009.045c.01.012.025.02.04.02v-.052Zm3.131 0v.052a.052.052 0 0 0 .05-.038l-.05-.014Zm3.27-12.5L15.993 7.76l.1.026 1.588-5.972-.1-.026Zm.1-.251c-.042.079-.076.163-.1.25l.1.027c.022-.08.052-.156.091-.228l-.09-.05Zm2.136.505C19.75.903 18.227.529 17.68 1.538l.09.049c.496-.911 1.883-.58 1.941.462l.104-.006Zm-.037.36c.03-.117.043-.24.037-.36l-.104.006a1.05 1.05 0 0 1-.033.327l.1.027ZM18.34 7.788l1.438-5.385-.1-.027-1.438 5.385.1.027Zm-.006-.065h-.044v.103h.044v-.103Zm1.087 0h-1.087v.103h1.087v-.103Zm3.79 0h-3.79v.103h3.79v-.103Zm1.115 1.396a1.143 1.143 0 0 0-1.115-1.396v.103c.667 0 1.162.62 1.014 1.27l.1.023Zm-1.115.89c.534 0 .996-.37 1.115-.89l-.101-.023a1.04 1.04 0 0 1-1.014.809v.103Zm-5.392 0h5.392v-.104H17.82v.103Zm-.116-.007c.039.004.078.006.116.006v-.103a1.04 1.04 0 0 1-.105-.005l-.01.102ZM16.61 14.27l1.15-4.306-.1-.026-1.15 4.306.1.027Zm-.033-.064h-.017v.103h.017v-.103Zm5.197 0h-5.197v.103h5.197v-.103Zm1.123 1.355a1.143 1.143 0 0 0-1.123-1.355v.103a1.04 1.04 0 0 1 1.021 1.233l.102.019Zm-1.123.93c.55 0 1.02-.39 1.123-.93l-.102-.02a1.04 1.04 0 0 1-1.021.847v.103Zm-5.657 0h5.657v-.103h-5.657v.103Zm-.013 0h.013v-.103h-.012l-.001.103Zm-.127 0h.127v-.103h-.127v.103Zm-1.22 4.715 1.27-4.753-.1-.027-1.27 4.754.1.026Zm-1.092.84c.512 0 .96-.345 1.093-.84l-.1-.026c-.12.45-.527.762-.993.762v.103Zm-1.092-1.422a1.13 1.13 0 0 0 1.092 1.421v-.103c-.674 0-1.166-.64-.992-1.291l-.1-.027Zm1.116-4.198-1.116 4.198.1.027 1.116-4.198-.1-.027Zm-3.058.065h3.108v-.103H10.63v.103Zm-.023-.004.013.003.021-.101-.012-.003-.022.101Zm.063-.047v-.003h-.104v.002h.104Zm-.054.09a.103.103 0 0 0 .054-.09h-.104l.05.09Zm-1.222 4.638 1.247-4.67-.1-.027-1.247 4.67.1.027Zm-1.145.845a1.14 1.14 0 0 0 1.145-.845l-.1-.027a1.037 1.037 0 0 1-1.04.769l-.005.103Zm-1.06-1.434a1.14 1.14 0 0 0 1.06 1.434l.004-.103a1.037 1.037 0 0 1-.963-1.305l-.1-.026Zm1.096-4.101-1.095 4.1.1.027 1.095-4.1-.1-.027Zm-5.07.065h5.12v-.104h-5.12v.104Zm-.024-.003a.108.108 0 0 0 .023.003v-.104l-.023.101Zm.248-2.354c-1.43 0-1.645 2.058-.247 2.354l.021-.1c-1.276-.272-1.079-2.15.226-2.15v-.104Zm.35 0h-.35v.103h.35v-.103Zm5.148 0H3.79v.103h5.147v-.103ZM10.04 9.91l-1.152 4.313.1.027 1.152-4.313-.1-.027Zm-5.163.065h5.213v-.103H4.876v.103Zm.18-2.253c-1.391 0-1.56 2.022-.188 2.252l.017-.101c-1.247-.21-1.094-2.048.171-2.048v-.103Zm.428 0h-.428v.103h.428v-.103Zm5.18 0h-5.18v.103h5.18v-.103Zm1.545-5.935-1.595 5.973.1.027 1.595-5.973-.1-.027Zm.1-.25c-.043.08-.076.163-.1.25l.1.027c.021-.08.052-.156.09-.228l-.09-.049Zm2.135.505c-.064-1.14-1.586-1.514-2.135-.505l.09.05c.497-.912 1.884-.582 1.942.46l.103-.005Zm-.037.36c.031-.117.044-.24.037-.36l-.103.006a1.05 1.05 0 0 1-.034.327l.1.027ZM12.97 7.788l1.438-5.385-.1-.027-1.438 5.385.1.027Zm3.073-.065h-3.123v.103h3.123v-.103Zm-3.698 2.253h3.126v-.103h-3.126v.103Zm-1.116 4.326 1.166-4.364-.1-.027-1.166 4.365.1.027Zm-.022-.064h-.028v.103h.028v-.103Zm3.103 0h-3.103v.103h3.103v-.103ZM15.42 9.91l-1.16 4.365.1.027 1.16-4.365-.1-.027Z" fill="#fff"/>
</svg>
