<svg width="152" height="45" viewBox="0 0 152 45" fill="none" xmlns="http://www.w3.org/2000/svg">
<path d="M146.37 45H5.62963C2.47704 45 0 42.525 0 39.375V5.625C0 2.475 2.47704 0 5.62963 0H146.37C149.523 0 152 2.475 152 5.625V39.375C152 42.525 149.523 45 146.37 45Z" fill="black"/>
<path d="M146.37 0.9C148.96 0.9 151.099 3.0375 151.099 5.625V39.375C151.099 41.9625 148.96 44.1 146.37 44.1H5.62963C3.04 44.1 0.900741 41.9625 0.900741 39.375V5.625C0.900741 3.0375 3.04 0.9 5.62963 0.9H146.37ZM146.37 0H5.62963C2.47704 0 0 2.5875 0 5.625V39.375C0 42.525 2.47704 45 5.62963 45H146.37C149.523 45 152 42.525 152 39.375V5.625C152 2.5875 149.523 0 146.37 0Z" fill="#A6A6A6"/>
<path d="M76.6757 24.5252C73.9735 24.5252 71.8342 26.5502 71.8342 29.3627C71.8342 32.0627 73.9735 34.2002 76.6757 34.2002C79.3779 34.2002 81.5172 32.1752 81.5172 29.3627C81.5172 26.4377 79.3779 24.5252 76.6757 24.5252ZM76.6757 32.1752C75.212 32.1752 73.9735 30.9377 73.9735 29.2502C73.9735 27.5627 75.212 26.3252 76.6757 26.3252C78.1394 26.3252 79.3779 27.4502 79.3779 29.2502C79.3779 30.9377 78.1394 32.1752 76.6757 32.1752ZM66.2046 24.5252C63.5024 24.5252 61.3631 26.5502 61.3631 29.3627C61.3631 32.0627 63.5024 34.2002 66.2046 34.2002C68.9068 34.2002 71.0461 32.1752 71.0461 29.3627C71.0461 26.4377 68.9068 24.5252 66.2046 24.5252ZM66.2046 32.1752C64.7409 32.1752 63.5024 30.9377 63.5024 29.2502C63.5024 27.5627 64.7409 26.3252 66.2046 26.3252C67.6683 26.3252 68.9068 27.4502 68.9068 29.2502C68.9068 30.9377 67.6683 32.1752 66.2046 32.1752ZM53.7068 25.9877V28.0127H58.5483C58.4357 29.1377 57.9853 30.0377 57.4224 30.6002C56.7468 31.2752 55.6209 32.0627 53.7068 32.0627C50.6668 32.0627 48.415 29.7002 48.415 26.6627C48.415 23.6252 50.7794 21.2627 53.7068 21.2627C55.2831 21.2627 56.5216 21.9377 57.4224 22.7252L58.8861 21.2627C57.6476 20.1377 56.0713 19.2377 53.8194 19.2377C49.7661 19.2377 46.2757 22.6127 46.2757 26.6627C46.2757 30.7127 49.7661 34.0877 53.8194 34.0877C56.0713 34.0877 57.6476 33.4127 58.9987 31.9502C60.3498 30.6002 60.8001 28.6877 60.8001 27.2252C60.8001 26.7752 60.8002 26.3252 60.6876 25.9877H53.7068ZM104.824 27.5627C104.373 26.4377 103.248 24.5252 100.771 24.5252C98.2935 24.5252 96.2668 26.4377 96.2668 29.3627C96.2668 32.0627 98.2935 34.2002 100.996 34.2002C103.135 34.2002 104.486 32.8502 104.936 32.0627L103.36 30.9377C102.797 31.7252 102.122 32.2877 100.996 32.2877C99.8698 32.2877 99.1942 31.8377 98.6313 30.8252L105.049 28.1252L104.824 27.5627ZM98.2935 29.1377C98.2935 27.3377 99.7572 26.3252 100.771 26.3252C101.559 26.3252 102.347 26.7752 102.572 27.3377L98.2935 29.1377ZM93.0016 33.7502H95.1409V19.6877H93.0016V33.7502ZM89.6239 25.5377C89.0609 24.9752 88.1602 24.4127 87.0342 24.4127C84.6698 24.4127 82.4179 26.5502 82.4179 29.2502C82.4179 31.9502 84.5572 33.9752 87.0342 33.9752C88.1602 33.9752 89.0609 33.4127 89.5113 32.8502H89.6239V33.5252C89.6239 35.3252 88.6105 36.3377 87.0342 36.3377C85.7957 36.3377 84.895 35.4377 84.6698 34.6502L82.8683 35.4377C83.4313 36.6752 84.7824 38.2502 87.1468 38.2502C89.6239 38.2502 91.6505 36.7877 91.6505 33.3002V24.7502H89.6239V25.5377ZM87.1468 32.1752C85.6831 32.1752 84.4446 30.9377 84.4446 29.2502C84.4446 27.5627 85.6831 26.3252 87.1468 26.3252C88.6105 26.3252 89.7364 27.5627 89.7364 29.2502C89.7364 30.9377 88.6105 32.1752 87.1468 32.1752ZM114.619 19.6877H109.553V33.7502H111.692V28.4627H114.619C116.984 28.4627 119.236 26.7752 119.236 24.0752C119.236 21.3752 116.984 19.6877 114.619 19.6877ZM114.732 26.4377H111.692V21.6002H114.732C116.308 21.6002 117.209 22.9502 117.209 23.9627C117.096 25.2002 116.196 26.4377 114.732 26.4377ZM127.68 24.4127C126.104 24.4127 124.528 25.0877 123.965 26.5502L125.879 27.3377C126.329 26.5502 127.005 26.3252 127.793 26.3252C128.919 26.3252 129.932 27.0002 130.045 28.1252V28.2377C129.707 28.0127 128.806 27.6752 127.905 27.6752C125.879 27.6752 123.852 28.8002 123.852 30.8252C123.852 32.7377 125.541 33.9752 127.342 33.9752C128.806 33.9752 129.482 33.3002 130.045 32.6252H130.157V33.7502H132.184V28.3502C131.959 25.8752 130.045 24.4127 127.68 24.4127ZM127.455 32.1752C126.779 32.1752 125.766 31.8377 125.766 30.9377C125.766 29.8127 127.005 29.4752 128.018 29.4752C128.919 29.4752 129.369 29.7002 129.932 29.9252C129.707 31.2752 128.581 32.1752 127.455 32.1752ZM139.277 24.7502L136.913 30.8252H136.8L134.323 24.7502H132.071L135.787 33.3002L133.648 38.0252H135.787L141.529 24.7502H139.277ZM120.362 33.7502H122.501V19.6877H120.362V33.7502Z" fill="white"/>
<path d="M111.338 7.84018H113.138L115.718 12.2602H115.818L115.718 10.8802V7.84018H117.258V15.0002H115.618L112.878 10.3202H112.778L112.878 11.7002V15.0002H111.338V7.84018Z" fill="white"/>
<path d="M106.477 15.1602C105.937 15.1602 105.437 15.0635 104.977 14.8702C104.517 14.6768 104.117 14.4135 103.777 14.0802C103.443 13.7402 103.18 13.3435 102.987 12.8902C102.8 12.4368 102.707 11.9468 102.707 11.4202C102.707 10.8935 102.8 10.4035 102.987 9.95018C103.18 9.49684 103.443 9.10351 103.777 8.77018C104.117 8.43018 104.517 8.16351 104.977 7.97018C105.437 7.77684 105.937 7.68018 106.477 7.68018C107.017 7.68018 107.517 7.77684 107.977 7.97018C108.437 8.16351 108.833 8.43018 109.167 8.77018C109.507 9.10351 109.77 9.49684 109.957 9.95018C110.15 10.4035 110.247 10.8935 110.247 11.4202C110.247 11.9468 110.15 12.4368 109.957 12.8902C109.77 13.3435 109.507 13.7402 109.167 14.0802C108.833 14.4135 108.437 14.6768 107.977 14.8702C107.517 15.0635 107.017 15.1602 106.477 15.1602ZM106.477 13.6802C106.783 13.6802 107.07 13.6268 107.337 13.5202C107.61 13.4135 107.847 13.2602 108.047 13.0602C108.247 12.8602 108.403 12.6235 108.517 12.3502C108.63 12.0702 108.687 11.7602 108.687 11.4202C108.687 11.0802 108.63 10.7735 108.517 10.5002C108.403 10.2202 108.247 9.98018 108.047 9.78018C107.847 9.58018 107.61 9.42684 107.337 9.32018C107.07 9.21351 106.783 9.16018 106.477 9.16018C106.163 9.16018 105.873 9.21351 105.607 9.32018C105.34 9.42684 105.107 9.58018 104.907 9.78018C104.707 9.98018 104.55 10.2202 104.437 10.5002C104.323 10.7735 104.267 11.0802 104.267 11.4202C104.267 11.7602 104.323 12.0702 104.437 12.3502C104.55 12.6235 104.707 12.8602 104.907 13.0602C105.107 13.2602 105.34 13.4135 105.607 13.5202C105.873 13.6268 106.163 13.6802 106.477 13.6802Z" fill="white"/>
<path d="M96.6578 9.32018V10.6802H99.4978V12.1602H96.6578V13.5202H99.8178V15.0002H95.0978V7.84018H99.8178V9.32018H96.6578Z" fill="white"/>
<path d="M89.5802 7.84018H91.1402V13.5202H94.1402V15.0002H89.5802V7.84018Z" fill="white"/>
<path d="M83.1154 7.84018H86.0254C86.3454 7.84018 86.642 7.89018 86.9154 7.99018C87.1954 8.09018 87.4354 8.22351 87.6354 8.39018C87.8354 8.55684 87.992 8.75351 88.1054 8.98018C88.2187 9.20018 88.2754 9.43018 88.2754 9.67018C88.2754 10.0635 88.1787 10.3902 87.9854 10.6502C87.7987 10.9102 87.5754 11.1035 87.3154 11.2302V11.3302C87.6954 11.4702 87.992 11.6835 88.2054 11.9702C88.4254 12.2568 88.5354 12.6102 88.5354 13.0302C88.5354 13.3368 88.472 13.6135 88.3454 13.8602C88.2254 14.1002 88.0554 14.3068 87.8354 14.4802C87.622 14.6468 87.3654 14.7768 87.0654 14.8702C86.772 14.9568 86.452 15.0002 86.1054 15.0002H83.1154V7.84018ZM85.8754 10.6802C86.1554 10.6802 86.372 10.6168 86.5254 10.4902C86.6787 10.3635 86.7554 10.1835 86.7554 9.95018C86.7554 9.71684 86.6787 9.53684 86.5254 9.41018C86.372 9.28351 86.1687 9.22018 85.9154 9.22018H84.6754V10.6802H85.8754ZM86.0054 13.6002C86.652 13.6002 86.9754 13.3335 86.9754 12.8002C86.9754 12.2668 86.6387 12.0002 85.9654 12.0002H84.6754V13.6002H86.0054Z" fill="white"/>
<path d="M77.793 7.84018H79.593L82.273 15.0002H80.553L80.003 13.4002H77.383L76.833 15.0002H75.113L77.793 7.84018ZM79.503 11.9802L78.983 10.4802L78.743 9.60018H78.643L78.403 10.4802L77.883 11.9802H79.503Z" fill="white"/>
<path d="M70.1955 7.84018H71.7555V13.5202H74.7555V15.0002H70.1955V7.84018Z" fill="white"/>
<path d="M67.1974 7.84018H68.7574V15.0002H67.1974V7.84018Z" fill="white"/>
<path d="M61.8751 7.84018H63.6751L66.3551 15.0002H64.6351L64.0851 13.4002H61.4651L60.9151 15.0002H59.1951L61.8751 7.84018ZM63.5851 11.9802L63.0651 10.4802L62.8251 9.60018H62.7251L62.4851 10.4802L61.9651 11.9802H63.5851Z" fill="white"/>
<path d="M52.8572 7.84018H54.5372L55.8972 11.7802L56.1672 12.7802H56.2672L56.5572 11.7802L57.9772 7.84018H59.6572L57.0372 15.0002H55.3972L52.8572 7.84018Z" fill="white"/>
<path d="M48.838 7.84018H50.638L53.318 15.0002H51.598L51.048 13.4002H48.428L47.878 15.0002H46.158L48.838 7.84018ZM50.548 11.9802L50.028 10.4802L49.788 9.60018H49.688L49.448 10.4802L48.928 11.9802H50.548Z" fill="white"/>
<path d="M11.7096 8.4375C11.3719 8.775 11.2593 9.3375 11.2593 10.0125V34.875C11.2593 35.55 11.4845 36.1125 11.8222 36.45L11.9348 36.5625L25.8963 22.6125V22.3875L11.7096 8.4375Z" fill="url(#paint0_linear_2045_7334)"/>
<path d="M30.4 27.3374L25.7837 22.7249V22.3874L30.4 17.7749L30.5126 17.8874L36.0296 21.0374C37.6059 21.9374 37.6059 23.3999 36.0296 24.2999L30.4 27.3374Z" fill="url(#paint1_linear_2045_7334)"/>
<path d="M30.5124 27.225L25.7835 22.5L11.7095 36.5625C12.2724 37.125 13.0606 37.125 14.0739 36.675L30.5124 27.225Z" fill="url(#paint2_linear_2045_7334)"/>
<path d="M30.5124 17.7747L14.0739 8.4372C13.0606 7.8747 12.2724 7.9872 11.7095 8.5497L25.7835 22.4997L30.5124 17.7747Z" fill="url(#paint3_linear_2045_7334)"/>
<path opacity="0.2" d="M30.3998 27.1123L14.0739 36.3373C13.1732 36.8998 12.385 36.7873 11.8221 36.3373L11.7095 36.4498L11.8221 36.5623C12.385 37.0123 13.1732 37.1248 14.0739 36.5623L30.3998 27.1123Z" fill="black"/>
<path opacity="0.12" d="M11.7096 36.3375C11.3719 36 11.2593 35.4375 11.2593 34.7625V34.875C11.2593 35.55 11.4845 36.1125 11.8222 36.45V36.3375H11.7096ZM36.0296 23.9625L30.4 27.1125L30.5126 27.225L36.0296 24.075C36.8178 23.625 37.1556 23.0625 37.1556 22.5C37.1556 23.0625 36.7052 23.5125 36.0296 23.9625Z" fill="black"/>
<path opacity="0.25" d="M14.0741 8.54994L36.0296 21.0374C36.7052 21.4874 37.1556 21.9374 37.1556 22.4999C37.1556 21.9374 36.8178 21.3749 36.0296 20.9249L14.0741 8.43744C12.4978 7.53744 11.2593 8.21244 11.2593 10.0124V10.1249C11.2593 8.43744 12.4978 7.64994 14.0741 8.54994Z" fill="white"/>
<defs>
<linearGradient id="paint0_linear_2045_7334" x1="24.5452" y1="9.79875" x2="5.66433" y2="28.694" gradientUnits="userSpaceOnUse">
<stop stop-color="#00A0FF"/>
<stop offset="0.007" stop-color="#00A1FF"/>
<stop offset="0.26" stop-color="#00BEFF"/>
<stop offset="0.512" stop-color="#00D2FF"/>
<stop offset="0.76" stop-color="#00DFFF"/>
<stop offset="1" stop-color="#00E3FF"/>
</linearGradient>
<linearGradient id="paint1_linear_2045_7334" x1="38.0946" y1="22.501" x2="10.8505" y2="22.501" gradientUnits="userSpaceOnUse">
<stop stop-color="#FFE000"/>
<stop offset="0.409" stop-color="#FFBD00"/>
<stop offset="0.775" stop-color="#FFA500"/>
<stop offset="1" stop-color="#FF9C00"/>
</linearGradient>
<linearGradient id="paint2_linear_2045_7334" x1="27.9532" y1="25.083" x2="2.35047" y2="50.7068" gradientUnits="userSpaceOnUse">
<stop stop-color="#FF3A44"/>
<stop offset="1" stop-color="#C31162"/>
</linearGradient>
<linearGradient id="paint3_linear_2045_7334" x1="8.21572" y1="0.197699" x2="19.6491" y2="11.6405" gradientUnits="userSpaceOnUse">
<stop stop-color="#32A071"/>
<stop offset="0.069" stop-color="#2DA771"/>
<stop offset="0.476" stop-color="#15CF74"/>
<stop offset="0.801" stop-color="#06E775"/>
<stop offset="1" stop-color="#00F076"/>
</linearGradient>
</defs>
</svg>
