<svg width="52" height="54" viewBox="0 0 52 54" fill="none" xmlns="http://www.w3.org/2000/svg">
<path fill-rule="evenodd" clip-rule="evenodd" d="M11.0541 25.7199C19.1055 22.2233 24.4654 19.8999 27.1569 18.7727C34.8172 15.5751 36.4275 15.023 37.4627 15C37.6927 15 38.1988 15.046 38.5439 15.3221C38.8199 15.5521 38.8889 15.8511 38.9349 16.0812C38.9809 16.3112 39.027 16.7943 38.9809 17.1624C38.5669 21.5331 36.7726 32.138 35.8524 37.0149C35.4613 39.0852 34.7022 39.7753 33.9661 39.8443C32.3558 39.9824 31.1366 38.7862 29.5953 37.774C27.1569 36.1867 25.7996 35.1975 23.4302 33.6333C20.6927 31.8389 22.4641 30.8498 24.0283 29.2395C24.4424 28.8254 31.5046 22.3843 31.6427 21.8092C31.6657 21.7402 31.6657 21.4641 31.5046 21.3261C31.3436 21.1881 31.1136 21.2341 30.9295 21.2801C30.6765 21.3261 26.8118 23.9026 19.2895 28.9864C18.1853 29.7456 17.1961 30.1136 16.299 30.0906C15.3098 30.0676 13.4235 29.5385 11.9972 29.0785C10.2719 28.5264 8.89168 28.2273 9.0067 27.2611C9.07571 26.7551 9.76584 26.249 11.0541 25.7199Z" fill="black"/>
</svg>
