<svg width="28" height="26" viewBox="0 0 28 26" fill="none" xmlns="http://www.w3.org/2000/svg">
<path fill-rule="evenodd" clip-rule="evenodd" d="M6.99097 7.62475C6.99097 5.68164 8.55556 4.10645 10.4856 4.10645H14.0255C15.9555 4.10645 17.5201 5.68164 17.5201 7.62475V14.1491C17.5201 16.0922 15.9555 17.6674 14.0254 17.6674H10.4856C8.55556 17.6674 6.99097 16.0922 6.99097 14.1491V7.62475ZM10.4856 6.1169C9.65844 6.1169 8.9879 6.79199 8.9879 7.62475V14.1491C8.9879 14.9819 9.65844 15.657 10.4856 15.657H14.0254C14.8526 15.657 15.5231 14.9819 15.5231 14.1491V7.62475C15.5231 6.79199 14.8526 6.1169 14.0255 6.1169H10.4856ZM18.3403 9.5363C18.6451 9.07367 19.2647 8.94744 19.7243 9.25435C20.4856 9.76282 20.991 10.6365 20.991 11.6295V17.5881C20.991 19.5313 19.4264 21.1064 17.4963 21.1064H14.2301C13.3751 21.1064 12.6142 20.6986 12.13 20.0698C11.7921 19.631 11.8715 18.9996 12.3073 18.6594C12.7431 18.3193 13.3703 18.3992 13.7082 18.838C13.8305 18.9968 14.0186 19.096 14.2301 19.096H17.4963C18.3235 19.096 18.994 18.4209 18.994 17.5881V11.6295C18.994 11.3385 18.8476 11.0815 18.6203 10.9297C18.1608 10.6228 18.0354 9.99893 18.3403 9.5363Z" fill="white"/>
</svg>
