<svg width="52" height="53" viewBox="0 0 52 53" fill="none" xmlns="http://www.w3.org/2000/svg">
<path d="M26.1644 14.4222C19.4029 14.4222 13.9215 19.9033 13.9215 26.6651C13.9215 33.4268 19.4029 38.908 26.1644 38.908C27.7183 38.908 29.2045 38.6187 30.5723 38.0907C30.9355 37.9504 31.3515 38.0291 31.62 38.3111L34.7664 41.615C35.1727 42.0415 35.078 42.7359 34.5542 43.0054C32.0395 44.2993 29.1873 45.0294 26.1644 45.0294C16.0221 45.0294 7.80005 36.8077 7.80005 26.6651C7.80005 16.5225 16.0221 8.30078 26.1644 8.30078C36.3066 8.30078 44.5287 16.5225 44.5287 26.6651C44.5287 30.9511 43.0602 34.8946 40.599 38.0191C40.2707 38.4359 39.6547 38.4547 39.2795 38.0795L36.2189 35.0192C35.8848 34.6851 35.8619 34.1542 36.1364 33.7697C37.566 31.7665 38.4072 29.3139 38.4072 26.6651C38.4072 19.9033 32.9258 14.4222 26.1644 14.4222Z" fill="black"/>
<path d="M26.1644 33.7684C30.1085 33.7684 33.306 30.5709 33.306 26.6268C33.306 22.6826 30.1085 19.4851 26.1644 19.4851C22.2202 19.4851 19.0227 22.6826 19.0227 26.6268C19.0227 30.5709 22.2202 33.7684 26.1644 33.7684Z" fill="black"/>
</svg>
