<svg width="52" height="53" viewBox="0 0 52 53" fill="none" xmlns="http://www.w3.org/2000/svg">
<path fill-rule="evenodd" clip-rule="evenodd" d="M25.937 7.84738C36.2547 7.84738 44.577 16.1697 44.577 26.536C44.577 36.7564 36.1573 45.176 25.791 45.1273C15.7653 45.03 7.3457 36.7564 7.3457 26.4873C7.3457 16.1697 15.6193 7.79871 25.937 7.84738ZM11.7745 36.221C11.7745 36.4157 11.8719 36.513 11.9692 36.659C12.6992 37.6811 13.5266 38.6544 14.4999 39.4818C14.938 39.8711 15.376 40.2605 15.8627 40.6012C17.2254 41.4772 18.6368 42.3045 20.1941 42.8399C21.4595 43.2779 22.7736 43.6186 24.0876 43.7646C25.1096 43.8619 26.1803 43.9106 27.2024 43.7646C27.7864 43.6673 28.4191 43.6673 29.0031 43.4239C29.1004 43.4726 29.1491 43.3753 29.1978 43.3753C30.4145 43.1806 31.5825 42.7912 32.7506 42.3045C36.5467 40.6498 39.4181 37.9731 41.2675 34.2743C42.9222 31.0135 43.4576 27.558 42.9222 23.9566C42.4356 20.5011 40.9755 17.4837 38.6394 14.953C35.5247 11.4002 31.5339 9.55077 26.813 9.25876C24.7203 9.11276 22.6276 9.40476 20.6322 10.0861C17.3714 11.1568 14.6946 13.0062 12.5045 15.683C10.0225 18.7491 8.80575 22.2532 8.65975 26.1467C8.61108 27.12 8.70842 28.0447 8.85442 29.0181C9.14643 31.2082 9.87645 33.3009 10.9958 35.199C11.2878 35.491 11.4825 35.8803 11.7745 36.221Z" fill="black"/>
<path fill-rule="evenodd" clip-rule="evenodd" d="M26.0344 17.2412C27.0565 16.9492 28.1272 16.8518 29.1492 17.2412C29.9279 17.5332 30.5119 18.0685 30.7552 18.8959C29.2952 18.1172 27.6891 17.6305 26.0344 17.2412Z" fill="black"/>
<path fill-rule="evenodd" clip-rule="evenodd" d="M27.0872 44.1164C27.6712 44.0677 28.3396 43.9493 28.9236 43.6573C28.6316 41.8079 29.1494 39.7734 29.9281 38.0701C30.8528 36.026 32.1668 34.2739 33.6269 32.5705C34.3861 31.7237 35.1978 30.9295 36.0096 30.1352L36.0097 30.1352C36.5509 29.6057 37.0921 29.0761 37.6177 28.5311C38.3477 27.7524 39.0777 26.9737 39.4671 25.9516C40.0998 24.2969 39.7104 22.9342 38.299 21.8635C37.1797 21.0361 35.8656 20.5981 34.5516 20.2088C33.2862 19.8194 32.0208 19.3328 30.8041 18.8461C29.2954 18.116 27.6893 17.6294 26.0833 17.24C25.0126 16.9967 23.9419 16.8507 22.8225 16.8993C21.6058 16.948 20.4864 17.3374 19.4157 17.7754C18.1017 18.2621 16.885 18.9434 15.9116 19.9654C14.8409 21.1335 14.2569 22.4962 14.0135 24.0049C13.8189 25.0561 13.7488 26.1074 13.6787 27.1586C13.6612 27.4214 13.6437 27.6842 13.6242 27.947C13.3808 30.7698 12.6456 33.6834 11.4775 36.3115C11.4775 36.397 11.6015 36.4897 11.7239 36.5812L11.7239 36.5812C11.8105 36.646 11.8963 36.7101 11.9366 36.7706C12.1762 37.106 12.4009 37.4783 12.6291 37.8563C13.0963 38.6303 13.5782 39.4285 14.2322 39.9844C14.5009 40.2232 14.7751 40.3864 15.0593 40.5555C15.2384 40.662 15.4214 40.7709 15.6095 40.9026C16.9722 41.7786 18.6432 42.6628 20.2006 43.1981C21.466 43.6362 22.5594 43.9704 23.8734 44.1164C24.8955 44.2137 26.0652 44.2624 27.0872 44.1164ZM38.2504 27.4117C38.299 27.363 38.3477 27.363 38.3964 27.363L38.2504 27.4604C38.2504 27.509 38.2017 27.5577 38.153 27.5577V27.509C38.153 27.4604 38.2017 27.4117 38.2504 27.4117ZM23.5632 18.8952C23.5434 18.8949 23.5236 18.8947 23.5037 18.8947C21.6543 18.8947 20.1456 20.3548 20.1456 22.2042C20.1456 24.0533 21.6052 25.5619 23.4543 25.5623L23.4552 25.5623C24.3876 25.5623 25.2211 25.1788 25.8246 24.5614C26.4331 23.9605 26.8111 23.1347 26.8131 22.2115L26.8133 22.2042C26.8133 20.3746 25.3844 18.9261 23.5632 18.8952ZM26.2297 29.1158C26.2296 29.1156 26.2294 29.1153 26.2293 29.1151C27.4947 29.8938 28.906 29.9911 30.3174 29.8938C32.2642 29.7964 34.1135 29.3098 35.8656 28.5797C36.547 28.2877 37.2283 27.9957 37.861 27.6064C37.9097 27.5577 37.9583 27.509 38.0557 27.5577C38.0518 27.573 38.0471 27.5871 38.0416 27.6002C38.0461 27.6021 38.0506 27.6042 38.0553 27.6066C38.0183 27.7176 37.925 27.7723 37.8182 27.835C37.7846 27.8547 37.7496 27.8752 37.7146 27.8986C35.8166 29.1639 33.7238 29.9426 31.4851 30.3806C30.2197 30.624 28.9057 30.624 27.689 30.186C27.0563 29.9426 26.4723 29.5533 26.2289 29.1153C26.2292 29.1154 26.2295 29.1156 26.2297 29.1158ZM36.1576 25.465C36.1576 25.8462 35.8996 26.1536 35.576 26.227C35.5284 26.2383 35.4787 26.2442 35.4273 26.2442C35.4102 26.2442 35.3932 26.2436 35.3763 26.2423C34.9794 26.221 34.7141 25.9515 34.6983 25.5517C34.6976 25.5392 34.6973 25.5268 34.6973 25.5142C34.6973 25.3864 34.7287 25.2638 34.7848 25.1568C34.8994 24.9376 35.1172 24.7836 35.3789 24.7836C35.8169 24.7349 36.1576 25.0756 36.1576 25.465Z" fill="black"/>
<path fill-rule="evenodd" clip-rule="evenodd" d="M38.2504 27.4606C38.2504 27.5093 38.2017 27.558 38.1531 27.558C38.1531 27.4606 38.2017 27.412 38.2504 27.4606ZM38.3964 27.3633L38.2504 27.4606L38.2017 27.412C38.2991 27.3633 38.3477 27.3633 38.3964 27.3633Z" fill="black"/>
<path fill-rule="evenodd" clip-rule="evenodd" d="M25.8401 22.2533C25.8401 23.5187 24.8181 24.5894 23.5527 24.5894H23.504C22.2387 24.5894 21.168 23.5673 21.168 22.2533V22.2046C21.168 20.8906 22.2387 19.8685 23.504 19.8685C24.7694 19.8685 25.8401 20.9392 25.8401 22.2533Z" fill="black"/>
</svg>
