<svg width="52" height="53" viewBox="0 0 52 53" fill="none" xmlns="http://www.w3.org/2000/svg">
<path fill-rule="evenodd" clip-rule="evenodd" d="M42.1947 30.3927L34.7352 18.0374C33.0999 15.4622 29.1119 15.4348 27.5339 18.147C27.0329 18.9688 27.0108 19.9962 27.476 20.8389L34.7373 33.9915C35.527 35.4219 37.0318 36.3101 38.6658 36.3101C41.6209 36.3101 43.8301 33.2692 42.1947 30.3927ZM31.9962 31.3523L31.558 30.5854C31.1471 29.8732 30.2433 28.3394 30.2433 28.3394L24.2176 17.8768C22.6565 15.5487 18.9589 15.357 17.3977 18.2876L10.3861 30.421C8.93445 32.9682 10.66 36.2823 13.8097 36.3098H28.7094H30.7939C32.44 36.3098 33.5261 34.5968 32.824 33.1079L31.9962 31.3523Z" fill="black"/>
</svg>
