<svg width="56" height="56" viewBox="0 0 56 56" fill="none" xmlns="http://www.w3.org/2000/svg">
<path d="M42.7246 18.3208L38.2012 39.4659C38.024 40.2211 37.7234 40.6988 37.3073 40.8915C36.8835 41.0918 36.3672 41.0148 35.743 40.6603L28.8925 35.6052L25.5712 38.7955C25.3477 39.0189 25.1705 39.1731 25.0395 39.2578C24.816 39.3888 24.5309 39.4582 24.1764 39.4582L24.7081 32.4766L37.4075 20.9794C37.5847 20.8484 37.6387 20.7251 37.577 20.6172C37.5077 20.5093 37.3767 20.4631 37.1763 20.4862C36.976 20.5093 36.7679 20.5864 36.5444 20.7174L20.8552 30.6195L14.074 28.4926C13.3188 28.2692 12.9643 27.9378 13.0028 27.4909C13.0414 27.0439 13.5114 26.6509 14.3976 26.2965L40.7981 16.1246C41.4608 15.9012 41.9925 15.9782 42.3932 16.3558C42.7939 16.7334 42.9018 17.3884 42.7246 18.3208Z" fill="black"/>
</svg>
