<svg width="52" height="53" viewBox="0 0 52 53" fill="none" xmlns="http://www.w3.org/2000/svg">
<path d="M33.2513 13.9419L8.26416 38.929C9.24828 39.421 11.4274 39.3507 14.2392 36.1172C16.4886 33.5304 19.3003 33.7272 20.425 34.149C31.18 39.2804 38.6312 30.1422 38.2094 22.3396C39.2217 18.2906 41.7241 17.6064 42.9191 17.7705C42.7286 15.8892 41.6784 14.3911 40.4827 13.257C38.4892 11.3661 35.1942 11.999 33.2513 13.9419Z" fill="black"/>
<path d="M26.7516 32.8841C24.3304 32.8841 22.1398 31.897 20.5603 30.3033C20.4005 30.142 20.4098 29.8825 20.5726 29.7244L22.2827 28.0642C22.4566 27.8953 22.7359 27.9087 22.9088 28.0787C23.8982 29.0509 25.2548 29.6506 26.7516 29.6506C28.5165 29.6506 30.0866 28.8167 31.0895 27.5215C30.1965 27.1752 29.5633 26.3077 29.5633 25.2924C29.5633 23.9724 30.6334 22.9024 31.9533 22.9024C31.9987 22.9024 32.0439 22.9036 32.0887 22.9061C31.8681 21.9692 31.4071 21.125 30.7745 20.4422C30.6097 20.2643 30.6045 19.9848 30.7784 19.8159L32.4885 18.1556C32.6513 17.9975 32.9109 17.9959 33.0674 18.1604C34.555 19.7239 35.468 21.8392 35.468 24.1677C35.468 28.9816 31.5655 32.8841 26.7516 32.8841Z" fill="white"/>
</svg>
