<svg width="52" height="53" viewBox="0 0 52 53" fill="none" xmlns="http://www.w3.org/2000/svg">
<path d="M18.9472 23.4432L25.7321 16.6586L32.5206 23.4468L36.4685 19.4989L25.7321 8.76221L14.9993 19.4953L18.9472 23.4432Z" fill="black"/>
<path d="M16.1593 26.2295L12.2114 22.2816L8.26338 26.2297L12.2112 30.1775L16.1593 26.2295Z" fill="black"/>
<path d="M18.9466 29.0192L25.7315 35.8038L32.5197 29.0159L36.4699 32.9616L36.4679 32.9638L25.7315 43.7002L14.9984 32.9674L14.9929 32.9619L18.9466 29.0192Z" fill="black"/>
<path d="M39.2534 30.1801L43.2014 26.2321L39.2536 22.2842L35.3055 26.2323L39.2534 30.1801Z" fill="black"/>
<path d="M29.7362 26.2288H29.7379L25.7317 22.2227L22.7711 25.1833H22.7708L22.4309 25.5235L21.7292 26.2252L21.7236 26.2307L21.7292 26.2365L25.7317 30.2391L29.7379 26.2329L29.7398 26.2307L29.7362 26.2288Z" fill="black"/>
</svg>
