<svg width="52" height="53" viewBox="0 0 52 53" fill="none" xmlns="http://www.w3.org/2000/svg">
<path d="M39.8951 29.9223C39.2511 30.3159 38.4996 30.3875 37.9271 30.0654C37.2115 29.636 36.7821 28.6699 36.7821 27.346V23.3026C36.7821 21.3704 36.0307 19.9749 34.7425 19.6171C32.5598 18.973 30.9139 21.6567 30.3056 22.6586L26.4411 28.8488V21.2273C26.4053 19.474 25.8328 18.4363 24.7594 18.1143C24.0437 17.8996 22.9703 18.0069 21.9326 19.5813L13.3092 33.3931C12.1641 31.2104 11.5559 28.7773 11.5559 26.3083C11.5559 17.9711 18.2471 11.2083 26.4411 11.2083C34.6352 11.2083 41.3264 17.9711 41.3264 26.3083V26.3441V26.3799C41.398 27.9901 40.897 29.2782 39.8951 29.9223ZM44.6183 26.3083V26.2725V26.2368C44.5826 16.1105 36.4243 7.84485 26.4411 7.84485C16.4222 7.84485 8.26392 16.1105 8.26392 26.3083C8.26392 36.4704 16.4222 44.7718 26.4411 44.7718C31.057 44.7718 35.4224 43.0185 38.7859 39.8339C39.4657 39.1898 39.5015 38.1521 38.8575 37.4723C38.2492 36.7924 37.2115 36.7566 36.5316 37.3649C36.5316 37.3649 36.5316 37.3649 36.4958 37.4007C33.7764 39.977 30.1267 41.4441 26.3696 41.4441C21.9684 41.4441 18.0324 39.5118 15.313 36.4346L23.0776 23.9825V29.7434C23.0776 32.4986 24.1511 33.3931 25.0456 33.6436C25.9402 33.8941 27.2999 33.7152 28.767 31.3894L33.025 24.4834C33.1681 24.2687 33.2755 24.0541 33.4186 23.9109V27.4176C33.4186 29.9939 34.4563 32.0692 36.2454 33.0711C37.8556 34.0014 39.8951 33.8941 41.5769 32.8564C43.6522 31.4967 44.7615 29.1351 44.6183 26.3083Z" fill="black"/>
</svg>
