<svg width="28" height="30" viewBox="0 0 28 30" fill="none" xmlns="http://www.w3.org/2000/svg">
<path fill-rule="evenodd" clip-rule="evenodd" d="M8.03571 2C6.35914 2 5 3.38579 5 5.09524V8.19988C5 8.77647 5.26266 9.32035 5.71088 9.6719L12.5042 15L5.71088 20.3281C5.26266 20.6797 5 21.2235 5 21.8001V24.9048C5 26.6142 6.35914 28 8.03571 28H18.9643C20.6409 28 22 26.6142 22 24.9048V21.8001C22 21.2235 21.7373 20.6797 21.2891 20.3281L14.4958 15L21.2891 9.6719C21.7373 9.32035 22 8.77647 22 8.19988V5.09524C22 3.38578 20.6409 2 18.9643 2H8.03571ZM6.21429 5.09524C6.21429 4.06957 7.02977 3.2381 8.03571 3.2381H18.9643C19.9702 3.2381 20.7857 4.06957 20.7857 5.09524V7.57141H6.21429V5.09524ZM6.30587 25.4878C6.24644 25.3045 6.21429 25.1084 6.21429 24.9048V21.8001C6.21429 21.6079 6.30184 21.4266 6.45125 21.3094L13.5 15.781L20.5488 21.3094C20.6982 21.4266 20.7857 21.6079 20.7857 21.8001V24.9048C20.7857 25.1084 20.7536 25.3044 20.6941 25.4878C20.566 25.2746 20.3648 25.095 20.0838 24.9859L13.9323 22.5965C13.6539 22.4884 13.3462 22.4884 13.0677 22.5965L6.91619 24.9859C6.63518 25.095 6.43396 25.2746 6.30587 25.4878Z" fill="white"/>
</svg>
