<svg width="52" height="53" viewBox="0 0 52 53" fill="none" xmlns="http://www.w3.org/2000/svg">
<g clip-path="url(#clip0_73_1901)">
<path fill-rule="evenodd" clip-rule="evenodd" d="M21.9311 10.7532C19.8548 11.8347 18.1561 12.75 18.1565 12.7872C18.1574 12.8833 23.1396 15.4065 23.3165 15.4003C23.3969 15.3976 23.9805 15.129 24.6132 14.8035L25.7638 14.2117L27.0203 14.8576L28.2768 15.5036L30.3346 14.579C33.4352 13.1857 33.7573 13.033 33.7068 12.9817C33.6398 12.9136 32.5277 12.3162 29.5104 10.7277C28.0521 9.95993 26.6368 9.20718 26.3651 9.05486C26.0934 8.90254 25.8341 8.78001 25.7888 8.78238C25.7435 8.78475 24.0074 9.67161 21.9311 10.7532ZM12.8245 15.4689L10.6631 16.5853V21.4852C10.6631 24.1801 10.6915 26.385 10.7263 26.385C10.761 26.385 11.8244 25.924 13.0894 25.3606L15.3893 24.3362V19.1714L16.5133 19.7838C17.3793 20.2552 18.2459 20.7256 19.113 21.1952L20.5889 21.9942L21.2456 21.6973C21.6574 21.5107 22.0685 21.3224 22.4787 21.1322C22.7957 20.9846 23.5738 20.6341 24.2078 20.3532C24.8418 20.0722 25.4286 19.7897 25.5119 19.7253C25.6224 19.6397 24.2744 18.8948 20.526 16.97C17.7006 15.519 15.2982 14.3365 15.1874 14.3421C15.0766 14.3478 14.0133 14.8548 12.8245 15.4689ZM34.0963 15.7824C32.6243 16.4469 31.4188 17.0172 31.4175 17.0498C31.4162 17.0822 32.2185 17.5593 33.2005 18.1097C34.1824 18.6602 34.9859 19.1401 34.9859 19.1763C34.9859 19.2123 34.1169 19.6333 33.0551 20.112C31.993 20.5906 29.3086 21.8029 27.0896 22.806L19.6545 26.1668C17.7841 27.0123 16.0983 27.7744 15.9081 27.8605C12.0879 29.5899 11.0378 30.0698 10.8936 30.1522C10.7486 30.2351 10.7158 30.7169 10.69 33.135L10.6592 36.0192L12.592 37.004L14.5248 37.9888L17.2049 36.7792C18.679 36.114 19.885 35.5349 19.885 35.4923C19.885 35.4497 19.6126 35.2722 19.2798 35.0977C18.9469 34.9231 18.2596 34.5367 17.7524 34.2389C17.2453 33.9409 16.7395 33.6676 16.6285 33.6314C16.5175 33.5952 16.4283 33.532 16.4301 33.4907C16.432 33.4496 17.6122 32.889 19.0526 32.2449C21.8504 30.994 23.9915 30.0299 28.5882 27.9512C30.6436 27.0218 32.6994 26.0931 34.7553 25.1649C36.5622 24.3493 38.6631 23.3968 39.4239 23.0481L40.8072 22.4143L40.838 19.4973L40.8689 16.5805L38.9085 15.5743C37.8303 15.0209 36.9087 14.5695 36.8603 14.5712C36.812 14.5727 35.5683 15.1177 34.0963 15.7824ZM40.282 26.3057C39.9931 26.4468 39.4225 26.711 39.014 26.8927C38.6055 27.0745 37.8303 27.4242 37.2914 27.6702L36.3115 28.1171L36.2892 30.6779C36.2768 32.0863 36.225 33.2324 36.1739 33.225C36.0579 33.2077 34.2215 32.2659 32.3755 31.2768C31.0432 30.5629 30.9595 30.5345 30.6464 30.6896C30.4654 30.7793 29.3836 31.2645 28.2424 31.768C27.1011 32.2714 26.1302 32.7162 26.0845 32.7564C26.039 32.7966 28.3358 34.0415 31.1888 35.523L36.3758 38.2165L38.5915 37.0703C39.8101 36.4399 40.8463 35.865 40.894 35.7926C41.0014 35.63 40.9922 26.0268 40.8847 26.0398C40.8422 26.0449 40.5709 26.1646 40.282 26.3057ZM28.0118 37.5774C27.6275 37.7427 27.2432 37.9082 26.8591 38.0739C25.6991 38.5757 25.9264 38.5924 24.5463 37.9054C23.6272 37.4478 23.2309 37.3066 23.059 37.3752C22.93 37.4265 21.8198 37.926 20.5916 38.4851C19.3636 39.0441 18.3162 39.5015 18.2641 39.5015C17.7489 39.5015 18.6055 40.0133 21.9108 41.6807L25.7873 43.6359L27.4183 42.8307C28.3153 42.3878 30.1247 41.5009 31.4391 40.8599C32.7535 40.2187 33.8126 39.6775 33.7928 39.6571C33.7728 39.6367 32.6715 39.0712 31.3453 38.4003L28.934 37.1808L28.0118 37.5774Z" fill="black"/>
</g>
<defs>
<clipPath id="clip0_73_1901">
<rect width="30.3423" height="34.8922" fill="white" transform="translate(10.6594 8.76318)"/>
</clipPath>
</defs>
</svg>
