<svg width="52" height="53" viewBox="0 0 52 53" fill="none" xmlns="http://www.w3.org/2000/svg">
<path fill-rule="evenodd" clip-rule="evenodd" d="M29.8809 20.8926C31.0826 20.2977 32.6117 19.422 34.1427 18.2222C34.4655 18.8877 34.5009 19.4684 34.3346 19.9373C34.2167 20.2678 33.9946 20.5552 33.7026 20.7839C33.3863 21.031 32.9914 21.2109 32.5548 21.3082C31.7264 21.4934 30.7592 21.3853 29.8809 20.8926ZM30.0892 26.9878L31.68 27.9C28.4319 29.7072 27.5489 33.063 26.4999 36.3316C25.4511 33.063 24.568 29.7072 21.32 27.9L22.9108 26.9878C23.0647 26.93 23.1962 26.8254 23.2865 26.6889C23.3769 26.5524 23.4214 26.391 23.4136 26.2279C23.2679 23.1668 24.1005 21.8131 25.2235 20.9632C25.6263 20.6587 26.0661 20.5058 26.4999 20.5058C26.9338 20.5058 27.3735 20.6587 27.7765 20.9632C28.8995 21.8131 29.7321 23.1668 29.5863 26.2279C29.5786 26.391 29.6231 26.5524 29.7135 26.6889C29.8038 26.8254 29.9353 26.93 30.0892 26.9878ZM26.4999 7C28.3388 7.04901 30.1822 7.40339 31.782 8.09278C32.8899 8.57079 33.9236 9.2022 34.8597 9.95724C35.2824 10.2981 35.6305 10.6274 36.0139 11.0065C37.048 11.042 38.5593 9.90147 39.261 8.8343C38.0535 12.7642 32.5433 17.4051 28.7285 19.1809C28.7269 19.1802 28.7259 19.1793 28.7247 19.1785C28.0401 18.6596 27.2701 18.4001 26.4999 18.4001C25.7298 18.4001 24.9599 18.6596 24.2753 19.1785C24.2741 19.1792 24.2731 19.1803 24.2715 19.1809C20.4566 17.4051 14.9465 12.7642 13.739 8.8343C14.4405 9.90147 15.9518 11.042 16.986 11.0065C17.3695 10.6275 17.7176 10.2981 18.1402 9.95724C19.0762 9.2022 20.11 8.57079 21.2178 8.09278C22.8178 7.40339 24.6612 7.04901 26.4999 7ZM23.119 20.8926C21.9174 20.2977 20.3881 19.422 18.8573 18.2222C18.5345 18.8877 18.4991 19.4684 18.6653 19.9373C18.7833 20.2678 19.0054 20.5552 19.2973 20.7839C19.6137 21.031 20.0086 21.2109 20.4452 21.3082C21.2736 21.4934 22.2407 21.3853 23.119 20.8926Z" fill="black"/>
<path fill-rule="evenodd" clip-rule="evenodd" d="M35.8195 16.752C36.6623 15.9077 37.4049 14.9731 38.0021 14.1392L38.3054 14.7058C39.2817 16.645 39.789 18.5765 39.789 20.7501L39.787 24.1992L39.8053 25.9872C39.876 30.3768 40.8327 34.818 43 38.8823L38.4655 35.2525L35.257 40.4211L31.8863 37.2711L26.5 45.9485L21.1137 37.2712L17.7431 40.4213L14.5346 35.2526L10 38.8825C12.1673 34.8181 13.124 30.3769 13.1948 25.9874L13.2132 24.1993L13.2111 20.7502C13.2111 18.5765 13.7183 16.645 14.6949 14.706L14.9981 14.1393C15.5952 14.9732 16.3377 15.9077 17.1806 16.7522L16.9174 17.2949C16.4061 18.3491 16.2367 19.5278 16.6351 20.6488C16.8919 21.3708 17.3606 21.99 17.9648 22.4627C18.5515 22.9217 19.2458 23.2311 19.9727 23.3936C20.4462 23.4994 20.9286 23.543 21.4079 23.5282C21.2961 24.1575 21.2472 24.8102 21.2441 25.4753L16.9667 27.9279L20.2675 29.7646C20.5313 29.9115 20.7824 30.0797 21.0183 30.2676C23.7397 32.6932 25.3758 39.8688 26.5001 43.3737C27.6246 39.8688 29.2606 32.6932 31.9821 30.2676C32.218 30.0797 32.4691 29.9114 32.7329 29.7646L36.0337 27.9279L31.7562 25.4753C31.753 24.8102 31.7042 24.1575 31.5923 23.5282C32.0716 23.543 32.5541 23.4994 33.0276 23.3936C33.7545 23.2311 34.4489 22.9217 35.0355 22.4627C35.6396 21.99 36.1084 21.3708 36.365 20.6488C36.7635 19.5278 36.5941 18.3492 36.0828 17.2949L35.8196 16.7522L35.8195 16.752Z" fill="black"/>
</svg>
