<svg width="190" height="32" viewBox="0 0 190 32" fill="none" xmlns="http://www.w3.org/2000/svg">
<path d="M180.124 20.6209L184.338 0.668945H189.068L184.854 20.6209H180.124ZM177.802 31.4999L179.049 25.6089H183.779L182.532 31.4999H177.802Z" fill="white"/>
<path d="M171.764 20.6209L175.978 0.668945H180.708L176.494 20.6209H171.764ZM169.442 31.4999L170.689 25.6089H175.419L174.172 31.4999H169.442Z" fill="white"/>
<path d="M145.721 27.802L167.823 5.22697H150.967L151.87 0.969971H174.359L173.585 4.66797L151.913 27.243H168.812L167.909 31.5H144.904L145.721 27.802Z" fill="white"/>
<path d="M134.615 31.758C132.78 31.758 131.16 31.3996 129.756 30.683C128.38 29.9663 127.219 29.006 126.273 27.802C125.327 26.5693 124.61 25.1933 124.123 23.674C123.664 22.1546 123.435 20.5923 123.435 18.987C123.435 17.267 123.707 15.547 124.252 13.827C124.796 12.107 125.57 10.4586 126.574 8.88198C127.577 7.30531 128.781 5.91497 130.186 4.71097C131.619 3.50697 133.224 2.56097 135.002 1.87297C136.808 1.15631 138.743 0.797974 140.807 0.797974C143.616 0.797974 145.852 1.42864 147.515 2.68997C149.177 3.95131 150.267 5.54231 150.783 7.46297L146.698 9.91397C146.354 8.62397 145.838 7.63497 145.15 6.94697C144.462 6.25897 143.673 5.78597 142.785 5.52797C141.925 5.26997 141.007 5.14097 140.033 5.14097C138.055 5.14097 136.335 5.55664 134.873 6.38797C133.439 7.19064 132.235 8.26564 131.261 9.61297C130.286 10.9316 129.555 12.3793 129.068 13.956C128.609 15.504 128.38 17.0233 128.38 18.514C128.38 20.1193 128.652 21.61 129.197 22.986C129.741 24.3333 130.544 25.4083 131.605 26.211C132.694 27.0136 134.013 27.415 135.561 27.415C136.507 27.415 137.496 27.243 138.528 26.899C139.56 26.5263 140.563 25.9816 141.538 25.265C142.512 24.5196 143.358 23.5593 144.075 22.384L147.601 24.663C146.626 26.2396 145.408 27.5583 143.946 28.619C142.484 29.6796 140.936 30.468 139.302 30.984C137.696 31.5 136.134 31.758 134.615 31.758Z" fill="white"/>
<path d="M100.374 0.969971H119.939L119.036 5.22697H104.33L102.481 13.913H115.209L114.392 17.912H101.621L99.6433 27.243H114.736L113.833 31.5H93.8813L100.374 0.969971Z" fill="white"/>
<path d="M78.913 0.969971H98.478L97.575 5.22697H82.869L81.02 13.913H93.748L92.931 17.912H80.16L78.182 27.243H93.275L92.372 31.5H72.42L78.913 0.969971Z" fill="white"/>
<path d="M48.4812 31.5L54.9742 0.969971H67.6592C69.1499 0.969971 70.4255 1.3713 71.4862 2.17397C72.5755 2.94797 73.3925 3.96564 73.9372 5.22697C74.5105 6.48831 74.7972 7.8213 74.7972 9.22597C74.7972 10.3726 74.5965 11.505 74.1952 12.623C73.8225 13.741 73.2779 14.7873 72.5612 15.762C71.8732 16.7366 71.0562 17.5823 70.1102 18.299C69.1929 19.0156 68.1895 19.546 67.1002 19.89L71.4002 31.5H65.9392L61.9832 20.879H55.5762L53.3402 31.5H48.4812ZM64.2622 16.622C64.9789 16.622 65.6669 16.4356 66.3262 16.063C66.9855 15.6616 67.5732 15.1313 68.0892 14.472C68.6339 13.8126 69.0495 13.0816 69.3362 12.279C69.6515 11.4476 69.8092 10.602 69.8092 9.74197C69.8092 8.88197 69.6659 8.12231 69.3792 7.46297C69.0925 6.77497 68.6912 6.23031 68.1752 5.82897C67.6879 5.42764 67.1145 5.22697 66.4552 5.22697H58.9302L56.4792 16.622H64.2622Z" fill="white"/>
<path d="M34.3106 0.969971H53.6606L52.7576 5.22697H38.2666L36.3316 14.343H48.4576L47.5976 18.342H35.4716L32.6766 31.5H27.8176L34.3106 0.969971Z" fill="white"/>
<path d="M5.41345 5.47839H25.7665L21.1299 26.3132H0.0541992L5.41345 5.47839Z" fill="#F68A28"/>
<path d="M3 25.5L7.83726 8.5L25 8.5" stroke="#1C1916"/>
<path d="M0.699088 25.8132L5.80111 5.97839H25.143L20.7289 25.8132H0.699088Z" stroke="#1C1916"/>
<path d="M3.02675 20.7489H10.3145V18.6278H3.59709H2.5L2 20.5328L3.02675 20.7489Z" fill="black" stroke="#1C1916" stroke-width="0.103303" stroke-linejoin="round"/>
<path d="M3.02675 20.7489H10.3145V18.6278H3.59709H2.42021L2 20.5328L3.02675 20.7489Z" stroke="#1C1916" stroke-width="0.103303" stroke-linejoin="round"/>
<path d="M4.67423 14.3222H11.7402V12.201H5.27626H4.13323L3.67493 14.1549L4.67423 14.3222Z" fill="black" stroke="#1C1916" stroke-width="0.103303" stroke-linejoin="round"/>
<path d="M6.6676 26.1454L8.88005 26.2273L14.1166 6.72295L14.076 6.00001L12.1908 5.88293L12.0253 6.18559L6.6676 26.1454Z" fill="black" stroke="#1C1916" stroke-width="0.103303" stroke-linejoin="round"/>
<path d="M10.3778 20.7489H17.6655V18.6278H10.9482H10.5987C9.31035 18.6278 9.11714 20.4835 10.3778 20.7489Z" fill="black" stroke="#1C1916" stroke-width="0.103303" stroke-linejoin="round"/>
<path d="M10.3778 20.7489H17.6655V18.6278H10.9482H10.5987C9.31035 18.6278 9.11714 20.4835 10.3778 20.7489Z" stroke="#1C1916" stroke-width="0.103303" stroke-linejoin="round"/>
<path d="M12.0254 14.3222H19.0913V12.201H12.6274H4.00002L3.90234 12.9627L12.0254 14.3222Z" fill="black" stroke="#1C1916" stroke-width="0.103303" stroke-linejoin="round"/>
<path d="M11.9939 26.2273H14.2063L19.4398 6.72292C19.4092 5.55319 18.1878 6.09126 17.3486 6.18555L11.9939 26.2273Z" fill="black" stroke="#1C1916" stroke-width="0.103303" stroke-linejoin="round"/>
<path d="M15.7008 20.7486H22.3186L22.7283 18.5958H16.2712H15.9282C14.6222 18.5958 14.4237 20.4757 15.7008 20.7486Z" fill="black" stroke="#1C1916" stroke-width="0.103303" stroke-linejoin="round"/>
<path d="M17.4121 14.3538H23.7118L24.2035 12.201H18.0141H17.5936C16.265 12.201 16.1022 14.1313 17.4121 14.3538Z" fill="black" stroke="#1C1916" stroke-width="0.103303" stroke-linejoin="round"/>
<path d="M17.4121 14.3538H23.7118L24.2035 12.201H18.0141H17.5936C16.265 12.201 16.1022 14.1313 17.4121 14.3538Z" stroke="#1C1916" stroke-width="0.103303" stroke-linejoin="round"/>
</svg>
