<svg width="340" height="541" fill="none" xmlns="http://www.w3.org/2000/svg">
  <g clip-path="url(#a)">
    <path fill-rule="evenodd" clip-rule="evenodd" d="M39.1334 11.6694c-13.4897 0-24.4253 10.8846-24.4253 24.3113v41.8478c0-16.112 13.1227-29.1735 29.3103-29.1735H292.126c16.188 0 29.311 13.0615 29.311 29.1735v1.9126h.977V35.9807c0-13.4267-10.936-24.3113-24.426-24.3113H39.1334Z" fill="#171618"/>
    <path fill-rule="evenodd" clip-rule="evenodd" d="M43.9656 15.7797c-15.5818 0-28.1494 12.5626-28.1494 27.9807L15.8161 541H321.253V43.7604c0-15.4181-12.568-27.9807-28.149-27.9807H43.9656ZM-.1838 43.7604c0-24.3251 19.8017-43.9807 44.1494-43.9807H293.104c24.347 0 44.149 19.6556 44.149 43.9807V541H-.1839V43.7604Z" fill="#171618"/>
    <path d="M337.069 160.455h.273c.655 0 .982 0 1.249.076.642.186 1.145.687 1.332 1.326.077.265.077.591.077 1.243v43.332c0 .652 0 .977-.077 1.243-.187.639-.69 1.14-1.332 1.325-.267.077-.594.077-1.249.077h-.273v-48.622ZM337.069 254.782h.273c.655 0 .982 0 1.249.077.642.186 1.145.687 1.332 1.326.077.265.077.591.077 1.242v90.983c0 .652 0 .977-.077 1.243-.187.639-.69 1.14-1.332 1.325-.267.077-.594.077-1.249.077h-.273v-96.273Z" fill="#171618"/>
    <path fill-rule="evenodd" clip-rule="evenodd" d="M44.9426 8.7659c-19.9607 0-36.138 16.1051-36.138 35.9669V541H328.264V44.7328c0-19.8618-16.177-35.967-36.138-35.967H44.9426ZM7.8046 44.7328c0-20.4185 16.6295-36.967 37.138-36.967H292.126c20.509 0 37.138 16.5485 37.138 36.967V541H7.8046V44.7328Z" fill="#373539"/>
    <path d="M125.057 35.4945c3.508 0 6.351-2.8299 6.351-6.3209s-2.843-6.3209-6.351-6.3209c-3.507 0-6.35 2.8299-6.35 6.3209s2.843 6.3209 6.35 6.3209Z" fill="#121212"/>
    <path d="M125 33c2.209 0 4-1.7908 4-4 0-2.2091-1.791-4-4-4s-4 1.7909-4 4c0 2.2092 1.791 4 4 4Z" fill="#595959"/>
    <path d="M214.942 26.7425h-31.264c-1.349 0-2.443 1.0884-2.443 2.4311 0 1.3427 1.094 2.4311 2.443 2.4311h31.264c1.349 0 2.443-1.0884 2.443-2.4311 0-1.3427-1.094-2.4311-2.443-2.4311Z" fill="#121212"/>
    <path d="M125.057 35.4945c3.508 0 6.351-2.8299 6.351-6.3209s-2.843-6.3209-6.351-6.3209c-3.507 0-6.35 2.8299-6.35 6.3209s2.843 6.3209 6.35 6.3209Z" stroke="#626262"/>
    <path d="M125 33c2.209 0 4-1.7908 4-4 0-2.2091-1.791-4-4-4s-4 1.7909-4 4c0 2.2092 1.791 4 4 4ZM214.942 26.7425h-31.264c-1.349 0-2.443 1.0884-2.443 2.4311 0 1.3427 1.094 2.4311 2.443 2.4311h31.264c1.349 0 2.443-1.0884 2.443-2.4311 0-1.3427-1.094-2.4311-2.443-2.4311Z" stroke="#626262"/>
  </g>
  <defs>
    <clipPath id="a">
      <path fill="#fff" d="M0 0h340v541H0z"/>
    </clipPath>
  </defs>
</svg>
