<svg width="382" height="538" fill="none" xmlns="http://www.w3.org/2000/svg">
  <g clip-path="url(#a)">
    <mask id="b" style="mask-type:luminance" maskUnits="userSpaceOnUse" x="0" y="0" width="382" height="538">
      <path d="M0 0h382v538H0V0Z" fill="#fff"/>
    </mask>
    <g mask="url(#b)">
      <path d="M154.031 0 53.3811 109.669v84.854L154.031 83.253V0Z" fill="url(#c)" stroke="#000"/>
      <path d="M28.5242 347.821V220.54L154.031 83.2531V212.135L28.5242 347.821Z" fill="url(#d)" stroke="#000"/>
      <path d="M154.031 83.253V0l107.17 44.028v83.253l-107.17-44.028Z" fill="url(#e)" stroke="#000"/>
      <path fill-rule="evenodd" clip-rule="evenodd" d="M162.781 41.3267V24.176l9.371 3.6819-.591 16.763-8.78-3.2942Zm32.356-3.2948 9.174 3.4886v16.375l-9.174-2.9068V38.0319Zm0 25.1531 9.174 3.4887v16.3747l-9.174-2.9067V63.185Zm9.174 27.2758-9.174-3.4888v16.957l9.174 2.907V90.4608Zm7.201-45.7432 8.878 3.8764v16.6657l-8.878-3.5852V44.7176Zm8.878 29.0289-8.878-3.8764v16.9567l8.878 3.5853V73.7465Zm-8.878 19.9117 8.878 3.8766V114.2l-8.878-3.585V93.6582Zm25.057-38.476-8.879-3.6825v16.4725l8.879 3.2944V55.1822Zm-8.879 21.4706 8.879 3.6825V96.42l-8.879-3.2948V76.6528Zm8.879 27.4702-8.879-3.682v16.473l8.879 3.294v-16.085Zm7.694-45.647 8.188 3.4886v16.3752l-8.188-3.1006V58.476Zm8.188 28.6421-8.188-3.4888v16.7627l8.188 3.101V87.1181Zm-8.188 20.2989 8.188 3.489v16.375l-8.188-3.1v-16.764Zm-81.482-58.0879v17.1506l8.78 3.2942.592-16.7629-9.372-3.6819Zm0 40.9378V73.1161l9.372 3.682-.592 16.7628-8.78-3.294Zm16.178-59.2115v17.1507l9.174 3.1974V34.9312l-9.174-3.8758Zm0 42.3039V56.2086l9.174 3.8759v16.4721l-9.174-3.1973Zm0 6.6365v17.1504l9.174 3.1978V83.8719l-9.174-3.8761Z" fill="url(#f)" fill-opacity=".2"/>
      <path d="m162.781 24.1759.156-.3831-.576-.2261v.6092h.42Zm0 17.1507h-.42v.2841l.27.1013.15-.3854Zm9.371-13.4687.42.0143.01-.2898-.274-.1076-.156.3831Zm-.591 16.7629-.15.3854.549.206.02-.5771-.419-.0143Zm32.75-3.1004h.42v-.2828l-.269-.1019-.151.3847Zm-9.174-3.4886.151-.3847-.57-.2173v.602h.419Zm9.174 19.8636-.128.3926.548.1739v-.5665h-.42Zm-9.174-2.9068h-.419v.3004l.29.0922.129-.3926Zm9.174 11.685h.42v-.2828l-.269-.102-.151.3848Zm-9.174-3.4887.151-.3848-.57-.2171v.6019h.419Zm9.174 19.8634-.128.3928.548.1741v-.5669h-.42Zm-9.174-2.9067h-.419v.3006l.29.0921.129-.3927Zm0 6.8303.151-.3845-.57-.217v.6015h.419Zm9.174 3.4888h.42v-.283l-.269-.1015-.151.3845Zm-9.174 13.4683h-.419v.3l.29.093.129-.393Zm9.174 2.907-.128.393.548.173v-.566h-.42Zm16.079-58.242h.42v-.2682l-.249-.1089-.171.3771Zm-8.878-3.8764.171-.3771-.591-.2576v.6347h.42Zm8.878 20.542-.159.3816.579.2339v-.6155h-.42Zm-8.878-3.5851h-.42v.2765l.261.1051.159-.3816Zm0 8.1955.171-.377-.591-.2577v.6347h.42Zm8.878 3.8765h.42v-.2682l-.249-.1089-.171.3771Zm-8.878 13.0802h-.42v.2764l.261.1056.159-.382Zm8.878 3.5853-.159.382.579.2336v-.6156h-.42Zm0 7.1227h.42v-.2682l-.249-.1089-.171.3771Zm-8.878-3.8766.171-.3771-.591-.2574v.6345h.42ZM220.39 114.2l-.159.382.579.234v-.616h-.42Zm-8.878-3.585h-.42v.276l.261.105.159-.381Zm16.178-59.1154.163-.3802-.582-.2417v.6219h.419Zm8.879 3.6825h.42v-.2737l-.257-.1064-.163.3801Zm-8.879 12.79h-.419v.2853l.271.1007.148-.386Zm8.879 3.2944-.149.386.569.2108v-.5968h-.42Zm0 9.0687h.42v-.2737l-.257-.1063-.163.38Zm-8.879-3.6825.163-.38-.582-.2419v.6219h.419Zm8.879 19.7672-.149.3862.569.2104v-.5966h-.42Zm-8.879-3.2948h-.419v.2855l.271.1007.148-.3862Zm0 7.3159.163-.38-.582-.2423v.6223h.419Zm8.879 3.682h.42v-.273l-.257-.107-.163.38Zm-8.879 12.79h-.419v.285l.271.101.148-.386Zm8.879 3.294-.149.387.569.21v-.597h-.42Zm15.882-58.2425h.42v-.2708l-.253-.1077-.167.3785Zm-8.188-3.4886.167-.3786-.586-.2499v.6285h.419Zm8.188 19.8638-.15.3851.57.2161v-.6012h-.42Zm-8.188-3.1005h-.419v.2831l.268.1018.151-.3849Zm0 8.39.167-.3787-.586-.25v.6287h.419Zm8.188 3.4888h.42v-.2707l-.253-.1081-.167.3788Zm-8.188 13.274h-.419v.283l.268.103.151-.386Zm8.188 3.101-.15.385.57.216v-.601h-.42Zm0 7.413h.42v-.271l-.253-.108-.167.379Zm-8.188-3.489.167-.378-.586-.25v.628h.419Zm8.188 19.864-.15.385.57.216v-.601h-.42Zm-8.188-3.1h-.419v.283l.268.101.151-.384Zm-81.482-57.7013h-.42v.2841l.27.1013.15-.3854Zm0-17.1507.156-.3831-.576-.2262v.6093h.42Zm8.78 20.4448-.15.3855.549.2059.02-.577-.419-.0144Zm.592-16.7629.419.0144.01-.2898-.274-.1076-.155.383Zm-9.372 20.1051.156-.3831-.576-.2262v.6093h.42Zm0 17.1508h-.42v.2838l.27.1015.15-.3853Zm9.372-13.4688.419.0143.01-.2898-.274-.1076-.155.3831Zm-.592 16.7628-.15.3853.549.2063.02-.5776-.419-.014Zm7.398-45.3548h-.42v.2914l.28.0974.14-.3888Zm0-17.1507.166-.379-.586-.2474v.6264h.42Zm9.174 20.3481-.14.3888.56.1952v-.584h-.42Zm0-16.4722h.42v-.2718l-.254-.1073-.166.3791Zm-9.174 21.2773.166-.379-.586-.2474v.6264h.42Zm0 17.1507h-.42v.2915l.28.0973.14-.3888Zm9.174-13.2748h.42v-.2718l-.254-.1073-.166.3791Zm0 16.4721-.14.3889.56.1952v-.5841h-.42Zm-9.174 20.5896h-.42v.2912l.28.0982.14-.3894Zm0-17.1504.166-.3791-.586-.2474v.6265h.42Zm9.174 20.3483-.14.388.56.196v-.584h-.42Zm0-16.4722h.42v-.2723l-.254-.1072-.166.3795Zm-25.772-59.6959v17.1507h.839V24.1759h-.839Zm9.947 3.2989-9.371-3.682-.312.7662 9.372 3.682.311-.7662Zm-.328 17.1603.592-16.7629-.839-.0286-.592 16.7629.839.0286Zm-9.349-2.9231 8.78 3.2942.299-.7709-8.78-3.2941-.299.7708Zm41.831-.5763-9.174-3.4886-.303.7695 9.175 3.4886.302-.7695Zm.269 16.7597v-16.375h-.84v16.375h.84Zm-9.723-2.5142 9.175 2.9068.257-.7853-9.174-2.9068-.258.7853Zm-.29-17.3494v16.9568h.839V38.0318h-.839Zm9.744 28.257-9.174-3.4887-.303.7696 9.175 3.4886.302-.7695Zm.269 16.7595V66.6736h-.84v16.3747h.84Zm-9.723-2.514 9.175 2.9068.257-.7856-9.174-2.9066-.258.7854Zm-.29-17.3494v16.9567h.839V63.1849h-.839Zm.267 24.1715 9.175 3.4888.302-.769-9.174-3.4888-.303.769Zm.572 16.5726V86.9719h-.839v16.9571h.839Zm8.883 2.514-9.174-2.907-.258.786 9.175 2.907.257-.786Zm-.549-15.9823v16.3753h.84V90.4607h-.84Zm16.67-42.2438-8.878-3.8764-.341.7542 8.879 3.8764.34-.7542Zm.249 17.0427V48.594h-.839v16.6656h.839Zm-9.457-3.2035 8.878 3.5851.32-.7633-8.879-3.5851-.319.7633Zm-.261-17.3385v16.9569h.84V44.7176h-.84Zm.25 25.5295 8.879 3.8764.34-.7541-8.878-3.8764-.341.7541Zm.59 16.5796V69.87h-.84v16.9567h.84Zm8.619 3.2041-8.879-3.5853-.319.7632 8.878 3.5853.32-.7632Zm-.58-16.2843V90.412h.839V73.7465h-.839Zm.59 23.4111-8.878-3.8766-.341.7542 8.879 3.8766.34-.7542Zm.249 17.0424V97.5347h-.839V114.2h.839Zm-9.457-3.204 8.878 3.586.32-.764-8.879-3.585-.319.763Zm-.261-17.3379v16.9569h.84V93.6581h-.84Zm16.436-41.7784 8.878 3.6825.326-.7602-8.879-3.6826-.325.7603Zm.582 16.0924V51.4996h-.839v16.4725h.839Zm8.607 2.9084-8.878-3.2944-.297.772 8.878 3.2944.297-.772Zm-.568-15.6984v16.0844h.84V55.1821h-.84Zm.583 24.7731-8.879-3.6825-.325.7602 8.878 3.6825.326-.7602Zm.257 16.4647V80.3352h-.84v16.0847h.84Zm-9.447-2.9086 8.878 3.2948.297-.7723-8.878-3.2949-.297.7724Zm-.271-16.8586v16.4724h.839V76.6527h-.839Zm.257 24.1673 8.878 3.683.326-.76-8.879-3.682-.325.759Zm.582 16.093v-16.472h-.839v16.472h.839Zm8.607 2.908-8.878-3.294-.297.772 8.878 3.295.297-.773Zm-.568-15.698v16.084h.84v-16.084h-.84Zm16.469-42.537-8.188-3.4887-.334.7571 8.188 3.4887.334-.7571Zm.253 16.7537V61.9645h-.84v16.3752h.84Zm-8.759-2.7156 8.189 3.1007.301-.77-8.187-3.1007-.303.77Zm-.268-17.1482v16.7633h.839V58.4759h-.839Zm.252 25.5321 8.188 3.4879.334-.7567-8.188-3.4887-.334.7575Zm.587 16.384V83.6292h-.839v16.7628h.839Zm7.919 2.716-8.187-3.1-.303.77 8.189 3.1.301-.77Zm-.571-15.99v16.375h.84V87.118h-.84Zm.587 23.409-8.188-3.488-.334.756 8.188 3.489.334-.757Zm.253 16.754v-16.375h-.84v16.375h.84Zm-8.759-2.716 8.189 3.101.301-.77-8.187-3.101-.303.77Zm-.268-17.148v16.764h.839v-16.764h-.839ZM163.2 66.4797V49.329h-.839v17.1507h.839Zm8.51 2.9087-8.78-3.2942-.299.7709 8.78 3.2942.299-.7709Zm.023-16.3917-.592 16.7629.839.0286.592-16.7629-.839-.0286Zm-9.108-3.2847 9.372 3.682.311-.7661-9.371-3.682-.312.7661Zm-.264 23.404v17.1508h.839V73.116h-.839Zm9.947 3.2989-9.371-3.682-.312.7663 9.372 3.6819.311-.7662Zm-.328 17.1599.592-16.7625-.839-.0286-.592 16.7631.839.028Zm-9.349-2.9227 8.78 3.294.299-.7707-8.78-3.294-.299.7707Zm16.748-42.4461V31.0553h-.84V48.206h.84Zm8.895 2.8085-9.175-3.1974-.28.7777 9.174 3.1974.281-.7777Zm-.561-16.0833v16.4722h.84V34.9312h-.84Zm-8.919-3.4969 9.173 3.8759.332-.7581-9.174-3.8758-.331.758Zm-.255 24.7742v17.1507h.84V56.2085h-.84Zm9.76 3.4968-9.174-3.8758-.331.7581 9.173 3.8758.332-.7581Zm.254 16.8512V60.0844h-.84v16.4721h.84Zm-9.734-2.8085 9.174 3.1974.281-.7777-9.175-3.1974-.28.7777Zm.56 23.3981V79.9957h-.84v17.1504h.84Zm8.895 2.8088-9.175-3.1975-.28.7781 9.174 3.1965.281-.7771Zm-.561-16.0831v16.4722h.84V83.8718h-.84Zm-8.919-3.4971 9.173 3.8759.332-.7583-9.174-3.8757-.331.7581Z" fill="#000"/>
      <path d="M154.031 83.2531V216.137l132.842 55.235V138.488L154.031 83.2531Z" fill="url(#g)" stroke="#000"/>
      <path fill-rule="evenodd" clip-rule="evenodd" d="m162.18 110.412 12.413 4.382v21.907l-12.413-4.763v-21.526Zm0 30.861 12.413 4.381v21.907l-12.413-4.762v-21.526Zm12.413 36.576-12.413-4.382v21.526l12.413 4.763v-21.907Zm-12.413 26.479 12.413 4.381v21.907l-12.413-4.762v-21.526Zm32.971-80.391-11.249-4.381v20.954l11.249 4.954v-21.527Zm-11.249 26.48 11.249 4.382v21.526l-11.249-4.953v-20.955Zm11.249 36.575-11.249-4.381v20.954l11.249 4.954v-21.527Zm-11.249 26.479 11.249 4.383v21.525l-11.249-4.953v-20.955Zm31.806-80.39-11.442-4.953v20.955l11.442 5.334v-21.336Zm-11.442 25.909 11.442 4.952v21.336l-11.442-5.334V158.99Zm11.442 37.146-11.442-4.953v20.955l11.442 5.334v-21.336Zm-11.442 25.909 11.442 4.952v21.336l-11.442-5.334v-20.954Zm32.582-80.582-11.636-4.762v21.336l11.636 4.191v-20.765Zm-11.636 26.098 11.636 4.763v20.764l-11.636-4.191v-21.336Zm11.636 36.957-11.636-4.762v21.336l11.636 4.191v-20.765Zm-11.636 26.098 11.636 4.762v20.765l-11.636-4.191v-21.336Zm31.806-81.152-10.861-4.191v21.336l10.861 4.762v-21.907Zm-10.861 26.67 10.861 4.191v21.907l-10.861-4.762v-21.336Zm10.861 36.385-10.861-4.191v21.335l10.861 4.763v-21.907Zm-10.861 26.67 10.861 4.191v21.907l-10.861-4.762v-21.336Zm32-80.963-11.636-4.571v21.716l11.636 4.573v-21.718Zm-11.636 26.29 11.636 4.571v21.717l-11.636-4.571v-21.717Zm11.636 36.765-11.636-4.571v21.716l11.636 4.573v-21.718Zm-11.636 26.29 11.636 4.571v21.717l-11.636-4.572v-21.716Z" fill="url(#h)" fill-opacity=".2"/>
      <path d="M174.593 114.794h.42v-.291l-.278-.098-.142.389Zm-12.413-4.382.142-.389-.561-.198v.587h.419Zm12.413 26.289-.153.384.573.22v-.604h-.42Zm-12.413-4.763h-.419v.282l.267.102.152-.384Zm12.413 13.716h.42v-.29l-.278-.097-.142.387Zm-12.413-4.381.142-.389-.561-.198v.587h.419Zm12.413 26.288-.153.385.573.219v-.604h-.42Zm-12.413-4.762h-.419v.282l.267.103.152-.385Zm0 10.668.142-.389-.561-.198v.587h.419Zm12.413 4.382h.42v-.291l-.278-.098-.142.389Zm-12.413 17.144h-.419v.282l.267.102.152-.384Zm12.413 4.763-.153.384.573.22v-.604h-.42Zm0 8.953h.42v-.29l-.278-.098-.142.388Zm-12.413-4.381.142-.389-.561-.198v.587h.419Zm12.413 26.288-.153.385.573.219v-.604h-.42Zm-12.413-4.762h-.419v.282l.267.102.152-.384Zm21.722-106.298.155-.384-.574-.224v.608h.419Zm11.249 4.381h.42v-.28l-.266-.103-.154.383Zm-11.249 16.573h-.419v.268l.247.109.172-.377Zm11.249 4.954-.171.376.591.261v-.637h-.42Zm0 9.335h.42v-.281l-.266-.103-.154.384Zm-11.249-4.382.155-.383-.574-.224v.607h.419Zm11.249 25.908-.171.376.591.261v-.637h-.42Zm-11.249-4.953h-.419v.267l.247.109.172-.376Zm0 11.239.155-.384-.574-.224v.608h.419Zm11.249 4.381h.42v-.28l-.266-.104-.154.384Zm-11.249 16.573h-.419v.268l.247.109.172-.377Zm11.249 4.954-.171.376.591.26v-.636h-.42Zm0 9.335h.42v-.281l-.266-.103-.154.384Zm-11.249-4.383.155-.383-.574-.224v.607h.419Zm11.249 25.908-.171.377.591.26v-.637h-.42Zm-11.249-4.953h-.419v.267l.247.11.172-.377Zm20.364-106.298.169-.377-.589-.255v.632h.42Zm11.442 4.953h.42v-.269l-.25-.108-.17.377Zm-11.442 16.002h-.42v.261l.24.112.18-.373Zm11.442 5.334-.179.373.599.279v-.652h-.42Zm0 9.525h.42v-.27l-.25-.108-.17.378Zm-11.442-4.952.169-.378-.589-.255v.633h.42Zm11.442 26.288-.179.372.599.28v-.652h-.42Zm-11.442-5.334h-.42v.261l.24.112.18-.373Zm0 11.239.169-.377-.589-.255v.632h.42Zm11.442 4.953h.42v-.269l-.25-.108-.17.377Zm-11.442 16.002h-.42v.261l.24.112.18-.373Zm11.442 5.334-.179.373.599.279v-.652h-.42Zm0 9.525h.42v-.27l-.25-.108-.17.378Zm-11.442-4.952.169-.378-.589-.255v.633h.42Zm11.442 26.288-.179.372.599.28v-.652h-.42Zm-11.442-5.334h-.42v.261l.24.112.18-.373Zm20.946-106.298.161-.382-.581-.237v.619h.42Zm11.636 4.762h.419v-.275l-.257-.106-.162.381Zm-11.636 16.574h-.42v.288l.276.099.144-.387Zm11.636 4.191-.145.387.564.203v-.59h-.419Zm0 10.096h.419v-.275l-.257-.106-.162.381Zm-11.636-4.763.161-.381-.581-.237v.618h.42Zm11.636 25.527-.145.387.564.204v-.591h-.419Zm-11.636-4.191h-.42v.288l.276.099.144-.387Zm0 10.859.161-.382-.581-.237v.619h.42Zm11.636 4.762h.419v-.275l-.257-.106-.162.381Zm-11.636 16.574h-.42v.288l.276.099.144-.387Zm11.636 4.191-.145.387.564.203v-.59h-.419Zm0 10.095h.419v-.274l-.257-.106-.162.38Zm-11.636-4.762.161-.381-.581-.238v.619h.42Zm11.636 25.527-.145.387.564.204v-.591h-.419Zm-11.636-4.191h-.42v.288l.276.099.144-.387Zm20.945-106.679.154-.384-.573-.221v.605h.419Zm10.861 4.191h.42v-.281l-.266-.103-.154.384Zm-10.861 17.145h-.419v.268l.248.108.171-.376Zm10.861 4.762-.171.377.591.259v-.636h-.42Zm0 8.954h.42v-.281l-.266-.103-.154.384Zm-10.861-4.191.154-.384-.573-.221v.605h.419Zm10.861 26.098-.171.377.591.259v-.636h-.42Zm-10.861-4.762h-.419v.267l.248.109.171-.376Zm0 10.858.154-.384-.573-.222v.606h.419Zm10.861 4.191h.42v-.281l-.266-.103-.154.384Zm-10.861 17.144h-.419v.268l.248.109.171-.377Zm10.861 4.763-.171.377.591.259v-.636h-.42Zm0 8.954h.42v-.282l-.266-.102-.154.384Zm-10.861-4.191.154-.384-.573-.221v.605h.419Zm10.861 26.098-.171.377.591.259v-.636h-.42Zm-10.861-4.762h-.419v.267l.248.109.171-.376Zm20.364-106.87.156-.384-.576-.226v.61h.42Zm11.636 4.571h.42v-.278l-.264-.104-.156.382Zm-11.636 17.145h-.42v.28l.265.104.155-.384Zm11.636 4.573-.155.383.575.226v-.609h-.42Zm0 9.143h.42v-.279l-.264-.104-.156.383Zm-11.636-4.571.156-.383-.576-.226v.609h.42Zm11.636 26.288-.155.384.575.226v-.61h-.42Zm-11.636-4.571h-.42v.279l.265.104.155-.383Zm0 10.477.156-.384-.576-.226v.61h.42Zm11.636 4.571h.42v-.279l-.264-.103-.156.382Zm-11.636 17.145h-.42v.28l.265.103.155-.383Zm11.636 4.573-.155.382.575.227v-.609h-.42Zm0 9.143h.42v-.279l-.264-.104-.156.383Zm-11.636-4.571.156-.383-.576-.226v.609h.42Zm11.636 26.288-.155.383.575.227v-.61h-.42Zm-11.636-4.572h-.42v.28l.265.104.155-.384Zm-91.786-154.882-12.413-4.382-.283.777 12.412 4.382.284-.777Zm.278 22.296v-21.907h-.839v21.907h.839Zm-12.985-4.379 12.412 4.763.306-.769-12.413-4.762-.305.768Zm-.267-21.91v21.526h.839v-21.526h-.839Zm12.974 34.855-12.413-4.383-.283.778 12.412 4.381.284-.776Zm.278 22.294v-21.907h-.839v21.907h.839Zm-12.985-4.377 12.412 4.762.306-.768-12.413-4.763-.305.769Zm-.267-21.911v21.526h.839v-21.526h-.839Zm.278 32.582 12.412 4.381.284-.776-12.413-4.382-.283.777Zm.561 21.138v-21.526h-.839v21.526h.839Zm12.146 4.378-12.413-4.762-.305.768 12.412 4.763.306-.769Zm-.572-21.522v21.907h.839v-21.907h-.839Zm.561 30.472-12.413-4.382-.283.777 12.412 4.382.284-.777Zm.278 22.295v-21.907h-.839v21.907h.839Zm-12.985-4.378 12.412 4.763.306-.769-12.413-4.762-.305.768Zm-.267-21.91v21.526h.839v-21.526h-.839Zm21.987-84.389 11.248 4.382.309-.767-11.248-4.382-.309.767Zm.574 20.571v-20.954h-.839v20.954h.839Zm11 4.577-11.248-4.953-.344.753 11.25 4.953.342-.753Zm-.591-21.15v21.527h.84v-21.527h-.84Zm.574 30.478-11.248-4.381-.309.766 11.248 4.382.309-.767Zm.266 21.91v-21.526h-.84v21.526h.84Zm-11.841-4.577 11.25 4.953.342-.753-11.248-4.953-.344.753Zm-.247-21.331v20.955h.839v-20.955h-.839Zm.265 32.577 11.248 4.382.309-.768-11.248-4.381-.309.767Zm.574 20.571v-20.954h-.839v20.954h.839Zm11 4.577-11.248-4.953-.344.753 11.25 4.953.342-.753Zm-.591-21.15v21.527h.84v-21.527h-.84Zm.574 30.478-11.248-4.382-.309.767 11.248 4.382.309-.767Zm.266 21.909v-21.525h-.84v21.525h.84Zm-11.841-4.576 11.25 4.953.342-.753-11.248-4.953-.344.753Zm-.247-21.332v20.955h.839v-20.955h-.839Zm20.614-84.965 11.443 4.953.338-.755-11.443-4.953-.338.755Zm.589 20.577v-20.955h-.84v20.955h.84Zm11.203 4.961-11.443-5.334-.36.746 11.443 5.334.36-.746Zm-.601-20.963v21.336h.84v-21.336h-.84Zm.59 30.483-11.443-4.952-.338.755 11.443 4.952.338-.755Zm.25 21.714v-21.336h-.84v21.336h.84Zm-12.042-4.961 11.443 5.333.36-.745-11.443-5.333-.36.745Zm-.24-21.327v20.954h.84V158.99h-.84Zm.251 32.571 11.443 4.953.338-.755-11.443-4.953-.338.755Zm.589 20.577v-20.955h-.84v20.955h.84Zm11.203 4.962-11.443-5.335-.36.746 11.443 5.334.36-.745Zm-.601-20.964v21.336h.84v-21.336h-.84Zm.59 30.483-11.443-4.952-.338.755 11.443 4.952.338-.755Zm.25 21.714v-21.336h-.84v21.336h.84Zm-12.042-4.961 11.443 5.333.36-.745-11.443-5.334-.36.746Zm-.24-21.327v20.954h.84v-20.954h-.84Zm21.204-84.964 11.636 4.763.324-.762-11.637-4.763-.323.762Zm.582 20.956v-21.336h-.84v21.336h.84Zm11.361 3.803-11.637-4.191-.288.775 11.635 4.191.29-.775Zm-.565-20.377v20.765h.839v-20.765h-.839Zm.582 30.48-11.637-4.763-.323.763 11.636 4.762.324-.762Zm.257 21.145v-20.764h-.839v20.764h.839Zm-12.199-3.804 11.635 4.191.29-.774-11.637-4.191-.288.774Zm-.276-21.723v21.336h.84v-21.336h-.84Zm.258 32.575 11.636 4.763.324-.762-11.637-4.763-.323.762Zm.582 20.956v-21.336h-.84v21.336h.84Zm11.361 3.803-11.637-4.191-.288.775 11.635 4.191.29-.775Zm-.565-20.377v20.765h.839v-20.765h-.839Zm.582 30.48-11.637-4.763-.323.762 11.636 4.763.324-.762Zm.257 21.145v-20.765h-.839v20.765h.839Zm-12.199-3.804 11.635 4.191.29-.775-11.637-4.19-.288.774Zm-.276-21.723v21.336h.84v-21.336h-.84Zm21.212-84.959 10.86 4.191.308-.768-10.861-4.191-.307.768Zm.573 20.952v-21.336h-.839v21.336h.839Zm10.612 4.386-10.86-4.763-.343.753 10.861 4.763.342-.753Zm-.591-21.531v21.907h.84v-21.907h-.84Zm.574 30.477-10.861-4.191-.307.768 10.86 4.191.308-.768Zm.266 22.291v-21.907h-.84v21.907h.84Zm-11.452-4.386 10.861 4.763.342-.753-10.86-4.763-.343.753Zm-.248-21.712v21.336h.839v-21.336h-.839Zm.266 32.578 10.86 4.191.308-.768-10.861-4.191-.307.768Zm.573 20.951v-21.335h-.839v21.335h.839Zm10.612 4.386-10.86-4.762-.343.753 10.861 4.763.342-.754Zm-.591-21.53v21.907h.84v-21.907h-.84Zm.574 30.477-10.861-4.191-.307.768 10.86 4.191.308-.768Zm.266 22.291V243.38h-.84v21.907h.84Zm-11.452-4.386 10.861 4.763.342-.753-10.86-4.763-.343.753Zm-.248-21.712v21.336h.839v-21.336h-.839Zm20.628-85.151 11.636 4.571.311-.765-11.636-4.573-.311.767Zm.575 21.333v-21.716h-.84v21.716h.84Zm11.372 4.19-11.636-4.572-.311.766 11.636 4.572.311-.766Zm-.576-21.335v21.718h.84v-21.718h-.84Zm.576 30.478-11.636-4.571-.311.766 11.636 4.572.311-.767Zm.264 22.1v-21.717h-.84v21.717h.84Zm-12.211-4.188 11.636 4.572.311-.766-11.636-4.573-.311.767Zm-.265-22.1v21.717h.84v-21.717h-.84Zm.265 32.577 11.636 4.571.311-.765-11.636-4.573-.311.767Zm.575 21.333V216.71h-.84v21.716h.84Zm11.372 4.19-11.636-4.572-.311.765 11.636 4.572.311-.765Zm-.576-21.335v21.718h.84v-21.718h-.84Zm.576 30.478-11.636-4.571-.311.766 11.636 4.572.311-.767Zm.264 22.1v-21.717h-.84v21.717h.84Zm-12.211-4.188 11.636 4.571.311-.766-11.636-4.572-.311.767Zm-.265-22.1v21.716h.84v-21.716h-.84Z" fill="#000"/>
      <path d="M150.771 212.135V538h166.256V280.979l-166.256-68.844Z" fill="url(#i)" stroke="#000"/>
      <path fill-rule="evenodd" clip-rule="evenodd" d="M164.535 259.876v26.097l13.875 5.219v-24.937l-13.875-6.379Zm0 37.477v26.096l13.874 5.219v-24.936l-13.874-6.379Zm0 63.573V334.83l13.874 6.379v24.936l-13.874-5.219Zm0 11.381v26.096l13.874 5.219v-24.936l-13.874-6.379Zm0 63.574v-26.097l13.874 6.379V441.1l-13.874-5.219Zm25.24-164.987V296.7l13.579 5.365v-25.806l-13.579-5.365Zm0 63.283v-25.806l13.579 5.365v25.806l-13.579-5.365Zm0 11.671v25.806l13.579 5.365v-25.807l-13.579-5.364Zm0 63.284v-25.807l13.579 5.364v25.807l-13.579-5.364Zm0 11.67v25.806l13.579 5.365v-25.807l-13.579-5.364Zm25.239-113.663v-25.371l12.989 5.219v25.952l-12.989-5.8Zm0 12.105v25.372l12.989 5.799v-25.951l-12.989-5.22Zm0 62.849v-25.372l12.989 5.22v25.951l-12.989-5.799Zm0 12.105v25.372l12.989 5.799v-25.951l-12.989-5.22Zm0 62.849v-25.371l12.989 5.219v25.951l-12.989-5.799Zm24.355-165.275v25.372l13.431 6.088v-25.806l-13.431-5.654Zm0 62.848v-25.371l13.431 5.653v25.807l-13.431-6.089Zm0 12.105v25.372l13.431 6.089v-25.807l-13.431-5.654Zm0 62.849v-25.372l13.431 5.654v25.807l-13.431-6.089Zm0 12.105v25.372l13.431 6.089v-25.807l-13.431-5.654Zm24.354-114.677V301.92l13.727 4.929v26.241l-13.727-6.088Zm0 12.395v25.081l13.727 6.089v-26.24l-13.727-4.93Zm0 62.558v-25.081l13.727 4.929v26.241l-13.727-6.089Zm0 12.396v25.082l13.727 6.088V419.28l-13.727-4.929Zm0 62.559v-25.082l13.727 4.929v26.242l-13.727-6.089Zm24.796-164.697v24.067l10.775 4.785v-24.212l-10.775-4.64Zm0 61.544V349.69l10.775 4.64v24.212l-10.775-4.785Zm0 13.411v24.066l10.775 4.784v-24.211l-10.775-4.639Zm0 61.543v-24.066l10.775 4.639v24.211l-10.775-4.784Zm0 13.41v24.067l10.775 4.784V466.76l-10.775-4.639Z" fill="url(#j)" fill-opacity=".2"/>
      <path d="M164.535 285.973h-.419v.283l.269.102.15-.385Zm0-26.097.178-.373-.597-.275v.648h.419Zm13.875 31.316-.15.385.57.215v-.6h-.42Zm0-24.936h.42v-.263l-.243-.111-.177.374Zm-13.875 57.193h-.419v.284l.269.102.15-.386Zm0-26.096.178-.374-.597-.274v.648h.419Zm13.874 31.316-.149.385.569.214v-.599h-.42Zm0-24.937h.42v-.262l-.242-.111-.178.373Zm-13.874 31.098.178-.373-.597-.275v.648h.419Zm0 26.096h-.419v.284l.269.102.15-.386Zm13.874-19.717h.42v-.262l-.242-.112-.178.374Zm0 24.936-.149.386.569.214v-.6h-.42Zm-13.874 32.258h-.419v.284l.269.101.15-.385Zm0-26.096.178-.373-.597-.275v.648h.419Zm13.874 31.315-.149.386.569.214v-.6h-.42Zm0-24.936h.42v-.262l-.242-.112-.178.374Zm-13.874 31.098.178-.373-.597-.275v.648h.419Zm0 26.097h-.419v.284l.269.101.15-.385Zm13.874-19.718h.42v-.263l-.242-.111-.178.374Zm0 24.937-.149.384.569.215v-.599h-.42Zm11.366-144.4h-.42v.279l.263.104.157-.383Zm0-25.805.156-.383-.576-.228v.611h.42Zm13.579 31.17-.157.383.577.227v-.61h-.42Zm0-25.806h.42v-.279l-.264-.104-.156.383Zm-13.579 32.112.156-.382-.576-.228v.61h.42Zm0 25.806h-.42v.279l.263.104.157-.383Zm13.579-20.441h.42v-.279l-.264-.104-.156.383Zm0 25.806-.157.382.577.228v-.61h-.42Zm-13.579 32.112h-.42v.279l.263.104.157-.383Zm0-25.806.156-.383-.576-.227v.61h.42Zm13.579 31.171-.157.383.577.228v-.611h-.42Zm0-25.806h.42v-.279l-.264-.104-.156.383Zm-13.579 32.112.156-.383-.576-.228v.611h.42Zm0 25.807h-.42v.278l.263.104.157-.382Zm13.579-20.443h.42v-.279l-.264-.103-.156.382Zm0 25.807-.157.383.577.228v-.611h-.42Zm-13.579 32.113h-.42v.278l.263.104.157-.382Zm0-25.807.156-.383-.576-.228v.611h.42Zm13.579 31.171-.157.383.577.227v-.61h-.42Zm0-25.807h.42v-.279l-.264-.104-.156.383Zm11.66-144.398.159-.382-.579-.233v.615h.42Zm0 25.371h-.42v.266l.246.11.174-.376Zm12.989-20.151h.42v-.278l-.261-.104-.159.382Zm0 25.951-.173.375.593.265v-.64h-.42Zm-12.989 31.677h-.42v.266l.246.11.174-.376Zm0-25.372.159-.382-.579-.232v.614h.42Zm12.989 31.171-.173.376.593.265v-.641h-.42Zm0-25.951h.42v-.277l-.261-.105-.159.382Zm-12.989 32.257.159-.382-.579-.232v.614h.42Zm0 25.372h-.42v.266l.246.11.174-.376Zm12.989-20.152h.42v-.277l-.261-.105-.159.382Zm0 25.951-.173.376.593.265v-.641h-.42Zm-12.989 31.678h-.42v.266l.246.109.174-.375Zm0-25.372.159-.381-.579-.233v.614h.42Zm12.989 31.171-.173.376.593.265v-.641h-.42Zm0-25.951h.42v-.277l-.261-.105-.159.382Zm-12.989 32.258.159-.382-.579-.233v.615h.42Zm0 25.371h-.42v.265l.246.11.174-.375Zm12.989-20.152h.42v-.277l-.261-.105-.159.382Zm0 25.951-.173.376.593.265v-.641h-.42Zm11.366-145.702h-.42v.264l.243.11.177-.374Zm0-25.372.164-.38-.584-.246v.626h.42Zm13.431 31.46-.176.375.596.27v-.645h-.42Zm0-25.806h.42v-.273l-.255-.107-.165.38Zm-13.431 31.823.164-.38-.584-.246v.626h.42Zm0 25.371h-.42v.265l.243.11.177-.375Zm13.431-19.717h.42v-.273l-.255-.106-.165.379Zm0 25.806-.176.375.596.27v-.645h-.42Zm-13.431 31.388h-.42v.264l.243.111.177-.375Zm0-25.372.164-.379-.584-.246v.625h.42Zm13.431 31.461-.176.375.596.27v-.645h-.42Zm0-25.807h.42v-.272l-.255-.106-.165.378Zm-13.431 31.823.164-.378-.584-.247v.625h.42Zm0 25.372h-.42v.264l.243.111.177-.375Zm13.431-19.718h.42v-.271l-.255-.108-.165.379Zm0 25.807-.176.375.596.269v-.644h-.42Zm-13.431 31.388h-.42v.264l.243.111.177-.375Zm0-25.372.164-.379-.584-.246v.625h.42ZM252.8 473.14l-.176.374.596.27v-.644h-.42Zm0-25.807h.42v-.271l-.255-.108-.165.379Zm10.923-145.413.143-.387-.563-.203v.59h.42Zm0 25.082h-.42v.266l.247.11.173-.376Zm13.727-20.153h.419v-.288l-.276-.099-.143.387Zm0 26.242-.173.376.592.262v-.638h-.419Zm-13.727 31.388h-.42v.266l.247.11.173-.376Zm0-25.082.143-.388-.563-.202v.59h.42Zm13.727 31.17-.173.377.592.262v-.639h-.419Zm0-26.24h.419v-.289l-.276-.099-.143.388Zm-13.727 32.547.143-.387-.563-.203v.59h.42Zm0 25.081h-.42v.267l.247.11.173-.377Zm13.727-20.152h.419v-.288l-.276-.099-.143.387Zm0 26.241-.173.376.592.264v-.64h-.419Zm-13.727 31.389h-.42v.266l.247.109.173-.375Zm0-25.082.143-.387-.563-.203v.59h.42Zm13.727 31.17-.173.376.592.263v-.639h-.419Zm0-26.241h.419v-.289l-.276-.099-.143.388Zm-13.727 32.548.143-.387-.563-.203v.59h.42Zm0 25.082h-.42v.266l.247.109.173-.375Zm13.727-20.153h.419v-.289l-.276-.099-.143.388Zm0 26.242-.173.375.592.263v-.638h-.419Zm11.069-146.718h-.42v.266l.247.11.173-.376Zm0-24.068.169-.378-.589-.253v.631h.42Zm10.775 28.852-.173.375.593.264v-.639h-.42Zm0-24.212h.42v-.27l-.251-.108-.169.378Zm-10.775 32.837.169-.378-.589-.253v.631h.42Zm0 24.067h-.42v.267l.247.11.173-.377Zm10.775-19.427h.42v-.27l-.251-.108-.169.378Zm0 24.212-.173.375.593.263v-.638h-.42Zm-10.775 32.692h-.42v.267l.247.11.173-.377Zm0-24.066.169-.378-.589-.253v.631h.42Zm10.775 28.85-.173.377.593.262v-.639h-.42Zm0-24.211h.42v-.27l-.251-.108-.169.378Zm-10.775 32.838.169-.378-.589-.254v.632h.42Zm0 24.066h-.42v.267l.247.109.173-.376Zm10.775-19.427h.42v-.27l-.251-.108-.169.378Zm0 24.211-.173.377.593.263v-.64h-.42Zm-10.775 32.693h-.42v.266l.247.11.173-.376Zm0-24.067.169-.377-.589-.254v.631h.42Zm10.775 28.851-.173.376.593.264v-.64h-.42Zm0-24.212h.42v-.269l-.251-.109-.169.378ZM164.955 285.973v-26.097h-.839v26.097h.839Zm13.604 4.833-13.873-5.219-.301.771 13.875 5.219.299-.771Zm-.569-24.55v24.936h.84v-24.936h-.84Zm-13.633-6.006 13.875 6.379.355-.747-13.874-6.379-.356.747Zm.598 63.199v-26.096h-.839v26.096h.839Zm13.604 4.834-13.873-5.219-.301.771 13.875 5.219.299-.771Zm-.57-24.551v24.937h.84v-24.937h-.84Zm-13.632-6.005 13.875 6.379.355-.747-13.874-6.38-.356.748Zm-.241 37.103v26.096h.839V334.83h-.839Zm14.471 6.005-13.874-6.378-.356.747 13.875 6.379.355-.748Zm.242 25.31v-24.936h-.84v24.936h.84Zm-14.444-4.833 13.875 5.219.299-.771-13.873-5.219-.301.771Zm.57 37.091v-26.096h-.839v26.096h.839Zm13.604 4.834-13.873-5.219-.301.77 13.875 5.22.299-.771Zm-.57-24.551v24.936h.84v-24.936h-.84Zm-13.632-6.005 13.875 6.379.355-.748-13.874-6.378-.356.747Zm-.241 37.103v26.097h.839v-26.097h-.839Zm14.471 6.005-13.874-6.378-.356.747 13.875 6.379.355-.748Zm.242 25.311v-24.937h-.84V441.1h.84Zm-14.444-4.834 13.875 5.218.299-.77-13.873-5.219-.301.771Zm25.81-139.566v-25.805h-.84V296.7h.84Zm13.315 4.983-13.579-5.365-.313.765 13.579 5.365.313-.765Zm-.576-25.424v25.806h.84v-25.806h-.84Zm-13.316-4.982 13.579 5.365.313-.766-13.579-5.364-.313.765Zm-.263 37.094v25.806h.84v-25.806h-.84Zm14.155 4.982-13.579-5.364-.313.765 13.579 5.365.313-.766Zm.264 26.189v-25.806h-.84v25.806h.84Zm-14.156-4.982 13.579 5.364.313-.764-13.579-5.366-.313.766Zm.577 37.094v-25.806h-.84v25.806h.84Zm13.315 4.982-13.579-5.364-.313.765 13.579 5.365.313-.766Zm-.576-25.423v25.806h.84v-25.806h-.84Zm-13.316-4.982 13.579 5.364.313-.765-13.579-5.365-.313.766Zm-.263 37.094v25.807h.84v-25.807h-.84Zm14.155 4.982-13.579-5.365-.313.766 13.579 5.364.313-.765Zm.264 26.189v-25.807h-.84v25.807h.84Zm-14.156-4.982 13.579 5.365.313-.766-13.579-5.364-.313.765Zm.577 37.095v-25.807h-.84v25.807h.84Zm13.315 4.981-13.579-5.364-.313.765 13.579 5.365.313-.766Zm-.576-25.424v25.807h.84v-25.807h-.84Zm-13.316-4.981 13.579 5.364.313-.766-13.579-5.364-.313.766Zm24.976-139.417v25.371h.84v-25.371h-.84Zm13.568 4.838-12.989-5.22-.318.764 12.989 5.219.318-.763Zm.261 26.333v-25.951h-.84v25.951h.84Zm-13.583-5.424 12.99 5.799.347-.751-12.989-5.799-.348.751Zm.594 37.101v-25.372h-.84v25.372h.84Zm12.743 5.424-12.989-5.799-.348.751 12.99 5.799.347-.751Zm-.594-25.576v25.951h.84v-25.951h-.84Zm-12.728-4.837 12.989 5.219.318-.764-12.989-5.22-.318.765Zm-.261 37.094v25.372h.84v-25.372h-.84Zm13.568 4.838-12.989-5.22-.318.764 12.989 5.22.318-.764Zm.261 26.333v-25.951h-.84v25.951h.84Zm-13.583-5.423 12.99 5.799.347-.751-12.989-5.799-.348.751Zm.594 37.101v-25.372h-.84v25.372h.84Zm12.743 5.424-12.989-5.8-.348.751 12.99 5.8.347-.751Zm-.594-25.576v25.951h.84v-25.951h-.84Zm-12.728-4.838 12.989 5.22.318-.764-12.989-5.219-.318.763Zm-.261 37.096v25.371h.84v-25.371h-.84Zm13.568 4.837-12.989-5.219-.318.763 12.989 5.22.318-.764Zm.261 26.333v-25.951h-.84v25.951h.84Zm-13.583-5.424 12.99 5.8.347-.752-12.989-5.799-.348.751Zm24.949-140.278v-25.372h-.84v25.372h.84Zm13.187 5.714-13.432-6.089-.352.749 13.432 6.089.352-.749Zm-.596-25.432v25.806h.84v-25.806h-.84Zm-13.177-5.275 13.432 5.654.33-.759-13.432-5.654-.33.759Zm-.254 37.098v25.371h.84v-25.371h-.84Zm14.016 5.275-13.432-5.655-.33.759 13.432 5.654.33-.758Zm.255 26.185v-25.806h-.84v25.806h.84Zm-14.028-5.714 13.432 6.089.352-.749-13.432-6.089-.352.749Zm.597 37.102v-25.372h-.84v25.372h.84Zm13.187 5.714-13.432-6.088-.352.749 13.432 6.089.352-.75Zm-.596-25.432v25.807h.84v-25.807h-.84Zm-13.177-5.274 13.432 5.654.33-.758-13.432-5.655-.33.759Zm-.254 37.097v25.372h.84v-25.372h-.84Zm14.016 5.275-13.432-5.653-.33.758 13.432 5.654.33-.759Zm.255 26.186v-25.807h-.84v25.807h.84Zm-14.028-5.714 13.432 6.089.352-.75-13.432-6.089-.352.75Zm.597 37.102v-25.372h-.84v25.372h.84Zm13.187 5.714-13.432-6.089-.352.75 13.432 6.088.352-.749Zm-.596-25.432v25.807h.84v-25.807h-.84Zm-13.177-5.274 13.432 5.654.33-.759-13.432-5.654-.33.759Zm24.1-140.139v25.082h.84V301.92h-.84Zm14.29 4.542-13.727-4.929-.288.775 13.727 4.929.288-.775Zm.276 26.629v-26.242h-.839v26.242h.839Zm-14.319-5.713 13.727 6.089.345-.753-13.727-6.089-.345.753Zm.593 37.101v-25.082h-.84v25.082h.84Zm13.479 5.713-13.727-6.089-.345.752 13.727 6.089.345-.752Zm-.592-25.865v26.24h.839v-26.24h-.839Zm-13.452-4.542 13.727 4.929.288-.775-13.727-4.93-.288.776Zm-.275 37.089v25.081h.84v-25.081h-.84Zm14.29 4.542-13.727-4.929-.288.775 13.727 4.928.288-.774Zm.276 26.628v-26.241h-.839v26.241h.839Zm-14.319-5.712 13.727 6.088.345-.751-13.727-6.089-.345.752Zm.593 37.101v-25.082h-.84v25.082h.84Zm13.479 5.713-13.727-6.089-.345.751 13.727 6.089.345-.751Zm-.592-25.866v26.241h.839V419.28h-.839Zm-13.452-4.541 13.727 4.928.288-.775-13.727-4.928-.288.775Zm-.275 37.089v25.082h.84v-25.082h-.84Zm14.29 4.541-13.727-4.928-.288.774 13.727 4.93.288-.776Zm.276 26.63v-26.242h-.839v26.242h.839Zm-14.319-5.714 13.727 6.089.345-.752-13.727-6.088-.345.751Zm25.389-141.004v-24.068h-.84v24.068h.84Zm10.528 4.408-10.775-4.785-.346.753 10.775 4.783.346-.751Zm-.593-23.836v24.212h.84v-24.212h-.84Zm-10.524-4.262 10.775 4.64.338-.756-10.775-4.64-.338.756Zm-.251 37.099v24.067h.84V349.69h-.84Zm11.364 4.262-10.775-4.64-.338.756 10.775 4.64.338-.756Zm.251 24.59V354.33h-.84v24.212h.84Zm-11.368-4.408 10.775 4.783.346-.752-10.775-4.784-.346.753Zm.593 37.1v-24.066h-.84v24.066h.84Zm10.528 4.408-10.775-4.784-.346.753 10.775 4.784.346-.753Zm-.593-23.835v24.211h.84v-24.211h-.84Zm-10.524-4.261 10.775 4.639.338-.756-10.775-4.639-.338.756Zm-.251 37.099v24.066h.84v-24.066h-.84Zm11.364 4.261-10.775-4.639-.338.756 10.775 4.639.338-.756Zm.251 24.589v-24.211h-.84v24.211h.84Zm-11.368-4.408 10.775 4.785.346-.753-10.775-4.783-.346.751Zm.593 37.101v-24.067h-.84v24.067h.84Zm10.528 4.409-10.775-4.785-.346.752 10.775 4.784.346-.751Zm-.593-23.837v24.212h.84V466.76h-.84Zm-10.524-4.261 10.775 4.639.338-.756-10.775-4.638-.338.755Z" fill="#000"/>
      <path fill-rule="evenodd" clip-rule="evenodd" d="m136.102 36.4232 8.964-9.6061.408 17.2109-8.965 8.4054-.407-16.0102Zm-5.706 6.4041-8.556 9.2059v16.0101l8.556-8.4054V42.8273Zm-24.449 26.817 8.965-9.6061v17.6112l-8.965 8.405V69.6443Zm-6.5195 8.005-8.1496 8.0049v16.8108l8.1496-8.8052V77.6493ZM74.9781 103.666l8.9648-9.2058V110.87l-8.9648 9.206v-16.41Zm-15.4847 17.211 8.5573-9.606v16.81l-8.9647 9.206.4074-16.41Zm-.4074 24.815 8.5573-9.605v16.81l-8.9647 9.206.4074-16.411Zm8.5573 16.011-8.5573 9.605-.4074 16.411 8.9647-9.205v-16.811Zm15.892-42.427-8.9647 9.205v16.411l8.9647-9.205v-16.411Zm-8.9647 34.822 8.9647-9.206v16.411l-8.9647 9.205v-16.41Zm16.2992-43.628 8.1505-8.005v16.011l-8.1505 8.805V110.47Zm8.1505 17.611-8.1505 8.006v16.81l8.1505-8.805v-16.011Zm15.4837-43.2272-8.965 9.6064V110.87l8.965-8.405V84.8538Zm-8.965 35.2222 8.965-9.606v17.611l-8.965 8.406v-16.411Zm15.893-43.2272 8.557-9.2059v16.8107l-8.557 8.405V76.8488Zm8.557 16.4109-8.557 9.2053v16.011l8.557-8.406V93.2597Zm14.67-41.6268-8.965 9.6061.407 16.0101 8.965-8.4053-.407-17.2109Zm-8.965 35.2219 8.965-9.6057.407 17.2111-8.965 8.4048-.407-16.0102Z" fill="url(#k)" fill-opacity=".2"/>
      <path d="m145.066 26.8172.42-.0097-.025-1.0244-.704.7552.309.2789Zm-8.964 9.6061-.31-.2789-.114.1227.004.1665.42-.0103Zm9.372 7.6047.29.2986.134-.1259-.004-.1822-.42.0095Zm-8.965 8.4054-.42.0103.024.9311.686-.6429-.29-.2985Zm-14.669-.4002-.31-.2783-.11.1182v.1601h.42Zm8.556-9.2058h.42v-1.0633l-.729.7849.309.2784Zm-8.556 25.2159h-.42v.9956l.716-.7037-.296-.2919Zm8.556-8.4053.298.2918.122-.1209v-.1709h-.42Zm-15.484.4002h.42V58.978l-.729.7813.309.2789Zm-8.965 9.6061-.309-.2789-.11.1184v.1605h.419Zm8.965 8.0051.29.2986.13-.122v-.1766h-.42Zm-8.965 8.405h-.419v.9638l.709-.6651-.29-.2987Zm-14.6691-.4002-.2973-.2913-.1225.1205v.1708h.4198Zm8.1496-8.0049h.4197v-.9956l-.7161.7039.2964.2917Zm-8.1496 24.8157h-.4198v1.067l.7304-.79-.3106-.277Zm8.1496-8.8051.3106.2772.1091-.118v-.1592h-.4197Zm-15.4846.8004h.4195v-1.0282l-.7227.7427.3032.2855Zm-8.9648 9.2057-.3032-.285-.1166.12v.165h.4198Zm8.9648 7.204.3036.286.1159-.12v-.166h-.4195Zm-8.9648 9.206h-.4198v1.028l.7232-.742-.3034-.286Zm-6.9274-8.805h.4198v-1.098l-.7356.826.3158.272Zm-8.5573 9.606-.3157-.272-.1002.112-.0037.15.4196.01Zm8.5573 7.204.3033.286.1165-.12v-.166h-.4198Zm-8.9647 9.206-.4197-.01-.0264 1.065.7494-.769-.3033-.286Zm8.5573-1.2h.4198v-1.099l-.7356.826.3158.273Zm-8.5573 9.605-.3158-.271-.1001.112-.0037.149.4196.01Zm8.5573 7.205.3033.285.1165-.119v-.166h-.4198Zm-8.9647 9.206-.4197-.01-.0265 1.065.7494-.769-.3032-.286Zm.4074 9.205-.3158-.271-.1001.112-.0037.15.4196.009Zm8.5573-9.605h.4198v-1.098l-.7356.826.3158.272Zm-8.9647 26.016-.4197-.01-.0265 1.065.7494-.769-.3032-.286Zm8.9647-9.205.3033.284.1165-.119v-.165h-.4198Zm6.9273-50.033-.3032-.284-.1166.119v.165h.4198Zm8.9647-9.205h.4198v-1.028l-.723.742.3032.286Zm-8.9647 25.616h-.4198v1.028l.723-.743-.3032-.285Zm8.9647-9.205.3034.284.1164-.119v-.165h-.4198Zm0 9.205h.4198v-1.027l-.723.741.3032.286Zm-8.9647 9.206-.3032-.285-.1166.119v.166h.4198Zm8.9647 7.205.3034.284.1164-.119v-.165h-.4198Zm-8.9647 9.205h-.4198v1.028l.723-.742-.3032-.286Zm24.4497-68.043h.4198v-.996l-.717.704.2972.292Zm-8.1505 8.005-.2963-.291-.1235.12v.171h.4198Zm8.1505 8.006.3106.277.1092-.118v-.159h-.4198Zm-8.1505 8.805H90.45v1.067l.7305-.789-.3107-.278Zm0 8.806-.2963-.292-.1235.12v.172h.4198Zm8.1505-8.006h.4198v-.995l-.717.704.2972.291Zm-8.1505 24.816H90.45v1.067l.7305-.789-.3107-.278Zm8.1505-8.805.3106.277.1092-.118v-.159h-.4198Zm6.5187-49.6317-.308-.2789-.111.118v.1609h.419Zm8.965-9.6065h.42v-1.0603l-.729.7814.309.2789Zm-8.965 26.0162h-.419v.964l.71-.665-.291-.299Zm8.965-8.405.291.299.129-.122v-.177h-.42Zm0 8.005h.42v-1.06l-.729.781.309.279Zm-8.965 9.606-.308-.279-.111.118v.161h.419Zm8.965 8.005.291.299.129-.122v-.177h-.42Zm-8.965 8.406h-.419v.964l.71-.665-.291-.299Zm24.45-68.8441h.42v-1.0632l-.73.785.31.2782Zm-8.557 9.2059-.31-.2783-.109.1183v.16h.419Zm8.557 7.6048.297.2921.123-.1213v-.1708h-.42Zm-8.557 8.405h-.419v.996l.716-.7039-.297-.2921Zm0 9.6064-.31-.278-.109.118v.16h.419Zm8.557-9.2053h.42V92.196l-.73.7848.31.2789Zm-8.557 25.2163h-.419v.995l.716-.704-.297-.291Zm8.557-8.406.297.292.123-.121v-.171h-.42Zm5.705-48.831-.309-.2789-.115.1227.004.1665.42-.0103Zm8.965-9.6061.42-.0096-.025-1.0245-.704.7552.309.2789Zm-8.558 25.6162-.419.0103.024.9311.686-.6428-.291-.2986Zm8.965-8.4053.29.2985.134-.1258-.004-.1823-.42.0096Zm-.407 8.4053.42-.0096-.025-1.0245-.704.7552.309.2789Zm-8.965 9.6057-.309-.2789-.115.123.004.1667.42-.0108Zm9.372 7.6055.29.2978.134-.1254-.004-.1823-.42.0099Zm-8.965 8.4047-.419.011.024.931.686-.643-.291-.299Zm8.656-76.3267-8.965 9.6061.619.5577 8.965-9.6061-.619-.5577Zm1.137 17.4802-.408-17.211-.839.0192.407 17.211.84-.0192Zm-9.095 8.7134 8.965-8.4053-.58-.5971-8.964 8.4053.579.5971Zm-1.117-16.2983.407 16.0101.84-.0206-.408-16.0101-.839.0206Zm-13.533 15.8778 8.558-9.2058-.62-.5566-8.557 9.2059.619.5565Zm.11 15.7319V52.0332h-.839v16.0101h.839Zm7.841-8.6971-8.558 8.4053.594.5837 8.558-8.4054-.594-.5836Zm-.123-16.5188V59.638h.839V42.8274h-.839Zm-15.374 16.9319-8.965 9.6061.618.5578 8.965-9.6061-.618-.5578Zm.729 17.8901V60.0382h-.839v17.6112h.839Zm-9.095 8.7037 8.965-8.4051-.579-.5971-8.965 8.4056.579.5966Zm-.709-16.7088v16.4101h.839V69.6443h-.839Zm-13.9538 16.302 8.1496-8.0051-.5927-.5836-8.1505 8.0053.5936.5834Zm.1234 16.5187V85.6542h-.8395v16.8108h.8395Zm7.4192-9.0832-8.1496 8.8062.6213.554 8.1496-8.8049-.6213-.5553Zm-.1091-15.7325v16.0106h.8395V77.6493h-.8395Zm-15.368 16.5255-8.9648 9.2062.6066.57 8.965-9.2061-.6068-.5701Zm.7227 16.6952V94.4603h-.8392V110.87h.8392Zm-9.0809 9.492 8.965-9.206-.6068-.571-8.9648 9.206.6066.571Zm-.7232-16.696v16.41h.8396v-16.41h-.8396Zm-6.8234 7.333-8.5572 9.606.6316.544 8.5573-9.606-.6317-.544Zm.7356 17.082v-16.81h-.8395v16.81h.8395Zm-9.0812 9.492 8.9647-9.206-.6065-.571-8.9648 9.206.6066.571Zm-.3155-16.706-.4075 16.41.8393.02.4075-16.41-.8393-.02Zm8.2537 14.947-8.5573 9.607.6316.544 8.5573-9.607-.6316-.544Zm.7356 17.083v-16.81h-.8396v16.81h.8396Zm-9.0813 9.492 8.9648-9.207-.6065-.57-8.9648 9.206.6065.571Zm-.3154-16.707-.4075 16.411.8393.02.4075-16.411-.8393-.02Zm.7354 25.899 8.5573-9.607-.6316-.543-8.5573 9.606.6316.544Zm-.3036 16.148.4075-16.41-.8393-.02-.4075 16.41.8393.02Zm8.2419-9.501-8.9648 9.206.6065.571 8.9648-9.207-.6065-.57Zm-.1166-16.525v16.811h.8396v-16.811h-.8396Zm7.6503-32.936 8.9649-9.206-.6066-.571-8.9647 9.207.6064.57Zm.1166 16.125v-16.411h-.8396v16.411h.8396Zm8.2417-9.491-8.9647 9.205.6064.571 8.9649-9.206-.6066-.57Zm-.1165-16.125v16.411h.8395v-16.411h-.8395Zm.1165 25.33-8.9647 9.207.6064.57 8.9649-9.206-.6066-.571Zm.723 16.697v-16.411h-.8395v16.411h.8395Zm-9.0813 9.491 8.9649-9.207-.6066-.57-8.9647 9.206.6064.571Zm-.723-16.696v16.41h.8396v-16.41h-.8396Zm24.5723-51.925-8.1496 8.006.5935.583 8.1496-8.005-.5935-.584Zm.717 16.303v-16.011h-.8396v16.011h.8396Zm-8.2596 9.083 8.1504-8.806-.6213-.556-8.1496 8.806.6205.556ZM90.45 110.47v16.811h.8396V110.47H90.45Zm.717 25.908 8.1496-8.005-.5935-.583-8.1496 8.005.5935.583Zm.1226 16.519v-16.81H90.45v16.81h.8396Zm7.42-9.083L90.56 152.62l.6205.555 8.1504-8.806-.6213-.555Zm-.1091-15.733v16.011h.8396v-16.011h-.8396Zm7.2485-33.3418 8.965-9.6065-.619-.5578-8.964 9.6065.618.5578Zm.11 16.1308V94.4603h-.839V110.87h.839Zm8.256-8.704-8.965 8.406.58.597 8.965-8.405-.58-.598Zm-.13-17.3122v17.6112h.839V84.8538h-.839Zm.11 25.3372-8.964 9.606.618.558 8.965-9.606-.619-.558Zm.729 17.89V110.47h-.839v17.611h.839Zm-9.094 8.705 8.965-8.406-.58-.597-8.965 8.405.58.598Zm-.71-16.71v16.411h.839v-16.411h-.839Zm24.559-52.7113-8.557 9.2058.62.5566 8.557-9.2058-.62-.5566Zm.73 17.0889V67.6429h-.84v16.8107h.84Zm-8.68 8.6971 8.557-8.405-.593-.5842-8.558 8.4059.594.5833Zm-.716-16.3019v16.0098h.839V76.8488h-.839Zm.729 25.8942 8.557-9.2053-.62-.5569-8.557 9.2062.62.556Zm.11 15.733v-16.011h-.839v16.011h.839Zm7.841-8.698-8.558 8.405.594.584 8.557-8.405-.593-.584Zm-.124-16.5183V110.07h.84V93.2597h-.84Zm6.435-31.7419 8.964-9.6061-.618-.5577-8.965 9.6061.619.5577Zm.517 15.721-.407-16.0101-.84.0206.408 16.0101.839-.0206Zm8.255-8.6935-8.965 8.4053.581.5971 8.964-8.4054-.58-.597Zm-.537-16.9028.408 17.2109.839-.0192-.407-17.2109-.84.0192Zm.111 25.3277-8.965 9.6057.619.5578 8.964-9.6057-.618-.5578Zm1.136 17.4802-.407-17.2109-.84.0192.408 17.2106.839-.0189Zm-9.094 8.7136 8.964-8.4059-.58-.5965-8.965 8.4054.581.597Zm-1.118-16.2984.408 16.0104.839-.021-.407-16.0101-.84.0207Z" fill="#000"/>
      <path fill-rule="evenodd" clip-rule="evenodd" d="m142.621 117.274-10.594 11.207v19.212l10.594-11.206v-19.213Zm-17.929 20.013-10.595 11.208v19.212l10.595-11.208v-19.212Zm-19.56 21.614-10.5941 11.207v19.212l10.5941-11.207v-19.212Zm-18.7446 20.813-10.5943 11.207v20.013l10.5943-12.008v-19.212Zm-19.5591 20.813-10.5948 11.207v20.013l10.5948-10.406v-20.814Zm-30.9692 32.821 10.5946-11.207v20.813l-10.5946 10.407v-20.013Zm0 30.42 10.5946-11.208v20.813L35.8591 283.78v-20.012Zm10.5946 20.812-10.5946 11.208V315.8l10.5946-10.406V284.58Zm-10.5946 41.627L46.4537 315v20.813l-10.5946 10.406v-20.012Zm20.3744-84.053 10.5948-11.208v20.814l-10.5948 10.407v-20.013Zm10.5948 20.813-10.5948 11.207v20.013l10.5948-10.407v-20.813Zm-10.5948 41.626 10.5948-11.206v20.812l-10.5948 10.407v-20.013Zm19.5596-83.252 10.5943-11.207v19.212l-10.5943 12.007v-20.012Zm10.5943 20.813-10.5943 11.207v20.012l10.5943-12.007v-19.212ZM75.7931 283.78l10.5943-11.207v19.212l-10.5943 12.008V283.78Zm18.7448-83.253 10.5941-11.207v19.213l-10.5941 11.206v-19.212Zm10.5941 20.814-10.5941 11.207v19.212l10.5941-11.207v-19.212Zm-10.5941 41.626 10.5941-11.207v19.212l-10.5941 11.207v-19.212Zm19.5591-84.053 10.595-11.207v19.212l-10.595 11.207v-19.212Zm10.595 20.813-10.595 11.207v19.212l10.595-11.207v-19.212Zm-10.595 41.626 10.595-11.207v19.212l-10.595 11.207v-19.212Zm17.93-82.452 10.594-11.208v19.213l-10.594 11.207v-19.212Zm10.594 20.813-10.594 11.207v19.213l10.594-11.208v-19.212Zm-10.594 41.627 10.594-11.207v19.212l-10.594 11.207v-19.212Z" fill="url(#l)" fill-opacity=".2"/>
      <path d="m132.027 128.481-.308-.28-.112.119v.161h.42Zm10.594-11.207h.42v-1.05l-.727.77.307.28Zm-10.594 30.419h-.42v1.051l.727-.769-.307-.282Zm10.594-11.206.307.281.113-.119v-.162h-.42Zm-28.524 12.008-.307-.282-.113.119v.163h.42Zm10.595-11.208h.419v-1.05l-.727.769.308.281Zm-10.595 30.42h-.42v1.05l.727-.77-.307-.28Zm10.595-11.208.308.281.111-.119v-.162h-.419Zm-30.1541 13.609-.3082-.281-.1116.119v.162h.4198Zm10.5941-11.207h.42v-1.05l-.727.769.307.281ZM94.5379 189.32h-.4198v1.05l.727-.769-.3072-.281Zm10.5941-11.207.308.281.112-.119v-.162h-.42Zm-29.3389 12.808-.3076-.281-.1122.119v.162h.4198Zm10.5943-11.207h.4198v-1.05l-.7271.769.3073.281Zm-10.5943 31.22h-.4198v1.106l.7369-.835-.3171-.271Zm10.5943-12.008.3174.271.1024-.116v-.155h-.4198Zm-30.1539 12.808-.3075-.28-.1123.119v.161h.4198Zm10.5948-11.207h.4197v-1.05l-.7273.77.3076.28Zm-10.5948 31.22h-.4198v.996l.7166-.704-.2968-.292Zm10.5948-10.406.2967.291.123-.12v-.171h-.4197Zm-20.3746.8h.4198v-1.05l-.7272.769.3074.281Zm-10.5946 11.207-.3076-.281-.1122.119v.162h.4198Zm10.5946 9.606.2968.292.123-.121v-.171h-.4198Zm-10.5946 10.407h-.4198v.996l.7165-.704-.2967-.292Zm10.5946-.801h.4198v-1.05l-.7272.769.3074.281Zm-10.5946 11.208-.3076-.282-.1122.119v.163h.4198Zm10.5946 9.605.2968.292.123-.121v-.171h-.4198ZM35.8591 283.78h-.4198v.996l.7165-.704-.2967-.292Zm0 12.008-.3076-.281-.1122.119v.162h.4198Zm10.5946-11.207h.4198v-1.051l-.7272.77.3074.281ZM35.8591 315.8h-.4198v.996l.7165-.704-.2967-.292Zm10.5946-10.406.2968.291.123-.12v-.171h-.4198Zm0 9.606h.4198v-1.051l-.7272.77.3074.281Zm-10.5946 11.207-.3076-.281-.1122.119v.162h.4198Zm10.5946 9.606.2968.292.123-.121v-.171h-.4198Zm-10.5946 10.406h-.4198v.996l.7165-.703-.2967-.293Zm30.9692-115.273h.4197v-1.049l-.7273.769.3076.28Zm-10.5948 11.208-.3075-.281-.1123.119v.162h.4198Zm10.5948 9.606.2967.291.123-.12v-.171h-.4197Zm-10.5948 10.407h-.4198v.995l.7166-.704-.2968-.291Zm0 12.007-.3075-.281-.1123.119v.162h.4198Zm10.5948-11.207h.4197v-1.05l-.7273.769.3076.281Zm-10.5948 31.22h-.4198v.995l.7166-.704-.2968-.291Zm10.5948-10.407.2967.292.123-.121v-.171h-.4197Zm0 9.607h.4197v-1.051l-.7273.769.3076.282Zm-10.5948 11.206-.3075-.281-.1123.119v.162h.4198Zm10.5948 9.606.2967.293.123-.122v-.171h-.4197Zm-10.5948 10.407h-.4198v.995l.7166-.703-.2968-.292Zm30.1539-114.472h.4198v-1.051l-.7271.769.3073.282Zm-10.5943 11.207-.3076-.282-.1122.119v.163h.4198Zm10.5943 8.005.3174.27.1024-.116v-.154h-.4198Zm-10.5943 12.007h-.4198v1.106l.7369-.835-.3171-.271Zm0 12.008-.3076-.281-.1122.119v.162h.4198Zm10.5943-11.207h.4198v-1.051l-.7271.77.3073.281Zm-10.5943 31.219h-.4198v1.106l.7369-.835-.3171-.271Zm10.5943-12.007.3174.27.1024-.116v-.154h-.4198Zm0 11.207h.4198v-1.051l-.7271.77.3073.281ZM75.7931 283.78l-.3076-.28-.1122.118v.162h.4198Zm10.5943 8.005.3174.271.1024-.117v-.154h-.4198Zm-10.5943 12.008h-.4198v1.105l.7369-.835-.3171-.27ZM105.132 189.32h.42v-1.05l-.727.769.307.281Zm-10.5941 11.207-.3082-.28-.1116.118v.162h.4198Zm10.5941 8.006.308.28.112-.119v-.161h-.42Zm-10.5941 11.206h-.4198v1.051l.727-.769-.3072-.282Zm0 12.809-.3082-.281-.1116.118v.163h.4198Zm10.5941-11.207h.42v-1.051l-.727.769.307.282ZM94.5379 251.76h-.4198v1.05l.727-.769-.3072-.281Zm10.5941-11.207.308.28.112-.118v-.162h-.42Zm0 11.207h.42v-1.05l-.727.769.307.281Zm-10.5941 11.207-.3082-.281-.1116.119v.162h.4198Zm10.5941 8.005.308.281.112-.119v-.162h-.42Zm-10.5941 11.207h-.4198v1.05l.727-.769-.3072-.281Zm30.1541-114.472h.419v-1.051l-.727.769.308.282Zm-10.595 11.207-.307-.282-.113.119v.163h.42Zm10.595 8.005.308.28.111-.119v-.161h-.419Zm-10.595 11.207h-.42v1.05l.727-.77-.307-.28Zm0 12.808-.307-.281-.113.118v.163h.42Zm10.595-11.207h.419v-1.051l-.727.77.308.281Zm-10.595 30.419h-.42v1.05l.727-.769-.307-.281Zm10.595-11.207.308.281.111-.119v-.162h-.419Zm0 11.207h.419v-1.05l-.727.769.308.281Zm-10.595 11.207-.307-.28-.113.118v.162h.42Zm10.595 8.005.308.281.111-.118v-.163h-.419Zm-10.595 11.207h-.42v1.051l.727-.769-.307-.282Zm28.524-112.872h.42v-1.049l-.727.769.307.28Zm-10.594 11.208-.308-.281-.112.119v.162h.42Zm10.594 8.005.307.281.113-.119v-.162h-.42Zm-10.594 11.207h-.42v1.05l.727-.769-.307-.281Zm0 12.808-.308-.281-.112.119v.162h.42Zm10.594-11.207h.42v-1.05l-.727.769.307.281Zm-10.594 30.42h-.42v1.05l.727-.77-.307-.28Zm10.594-11.208.307.281.113-.119v-.162h-.42Zm0 11.208h.42v-1.051l-.727.769.307.282Zm-10.594 11.207-.308-.282-.112.119v.163h.42Zm10.594 8.005.307.28.113-.119v-.161h-.42Zm-10.594 11.207h-.42v1.05l.727-.77-.307-.28Zm.307-111.79 10.594-11.208-.614-.561-10.595 11.207.615.562Zm.113 18.93v-19.212h-.84v19.212h.84Zm9.867-11.487-10.595 11.207.615.562 10.594-11.207-.614-.562Zm-.113-18.932v19.213h.84v-19.213h-.84Zm-27.797 31.501L125 137.568l-.616-.562-10.594 11.207.614.562Zm.113 18.932v-19.212h-.84v19.212h.84Zm9.867-11.488-10.594 11.206.614.562L125 156.78l-.616-.561Zm-.112-18.932v19.212h.839v-19.212h-.839Zm-29.4269 33.102 10.5949-11.207-.615-.562-10.5953 11.207.6154.562Zm.1125 18.931v-19.212h-.8395v19.212h.8395Zm9.8674-11.488-10.5953 11.207.6154.562 10.5949-11.207-.615-.562Zm-.113-18.931v19.212h.84v-19.212h-.84Zm-28.6115 32.301 10.595-11.207-.6154-.562-10.5946 11.207.615.562Zm.1124 19.732v-20.013h-.8396v20.013h.8396Zm9.858-12.278-10.595 12.007.6343.542 10.5946-12.008-.6339-.541Zm-.1033-18.942v19.212h.8396v-19.212h-.8396ZM56.541 212.015l10.5948-11.207-.6151-.561-10.5947 11.207.615.561Zm.1123 19.732v-20.013h-.8396v20.013h.8396Zm9.8782-10.698-10.5947 10.406.5935.584 10.5947-10.407-.5935-.583Zm-.123-20.522v20.814h.8395v-20.814h-.8395ZM46.1463 221.86l-10.5948 11.207.6151.562 10.5946-11.207-.6149-.562Zm.7272 21.094v-20.813h-.8396v20.813h.8396Zm-10.7177 10.699 10.5947-10.407-.5935-.583-10.5947 10.406.5935.584Zm-.7165-20.305v20.013h.8395v-20.013h-.8395Zm10.707 18.931-10.5948 11.207.6151.562 10.5946-11.207-.6149-.562Zm.7272 21.094V252.56h-.8396v20.813h.8396Zm-10.7177 10.699 10.5947-10.407-.5935-.583-10.5947 10.406.5935.584Zm-.7165-20.304v20.012h.8395v-20.012h-.8395Zm.7273 32.3 10.5946-11.207-.6149-.561-10.5948 11.207.6151.561Zm.1122 19.732v-20.012h-.8395V315.8h.8395Zm9.8782-10.698-10.5947 10.407.5935.583 10.5947-10.407-.5935-.583Zm-.1231-20.521v20.813h.8396v-20.813h-.8396Zm.1124 30.138-10.5948 11.207.6151.562 10.5946-11.208-.6149-.561Zm.7272 21.094V315h-.8396v20.813h.8396Zm-10.7177 10.699 10.5947-10.407-.5935-.584-10.5947 10.407.5935.584Zm-.7165-20.305v20.012h.8395v-20.012h-.8395Zm31.0814-95.541L55.926 241.873l.615.562 10.5948-11.207-.6151-.562Zm.7273 21.094v-20.814h-.8395v20.814h.8395Zm-10.7177 10.698 10.5947-10.407-.5935-.583-10.5947 10.407.5935.583Zm-.7166-20.304v20.013h.8396v-20.013h-.8396Zm.7273 32.301 10.5948-11.207-.6151-.562-10.5947 11.207.615.562Zm.1123 19.732v-20.013h-.8396v20.013h.8396Zm9.8782-10.699-10.5947 10.407.5935.583 10.5947-10.406-.5935-.584Zm-.123-20.521v20.813h.8395v-20.813h-.8395Zm.1122 30.138L55.926 304.312l.615.562 10.5948-11.207-.6151-.562Zm.7273 21.094v-20.812h-.8395v20.812h.8395Zm-10.7177 10.699 10.5947-10.406-.5935-.585-10.5947 10.407.5935.584Zm-.7166-20.305v20.013h.8396v-20.013h-.8396Zm30.2664-94.741-10.5946 11.207.615.562 10.595-11.207-.6154-.562Zm.7271 19.494v-19.212h-.8396v19.212h.8396Zm-10.697 12.278 10.5946-12.008-.6339-.541-10.595 12.008.6343.541Zm-.7369-20.283v20.012h.8396v-20.012h-.8396Zm.7272 32.3 10.595-11.207-.6154-.561-10.5946 11.207.615.561Zm.1124 19.732v-20.012h-.8396v20.012h.8396Zm9.858-12.277-10.595 12.007.6343.541 10.5946-12.008-.6339-.54Zm-.1033-18.942v19.212h.8396v-19.212h-.8396Zm.1125 30.138L75.4855 283.5l.615.561 10.595-11.208-.6154-.561Zm.7271 19.493v-19.212h-.8396v19.212h.8396Zm-10.697 12.278 10.5946-12.007-.6339-.541-10.595 12.008.6343.54Zm-.7369-20.283v20.013h.8396V283.78h-.8396Zm29.4517-94.741-10.5953 11.208.6154.561 10.5949-11.207-.615-.562Zm.727 19.494V189.32h-.84v19.213h.84Zm-10.7069 11.488 10.5949-11.208-.615-.562-10.5953 11.208.6154.562Zm-.727-19.494v19.212h.8395v-19.212h-.8395Zm.727 32.302 10.5949-11.208-.615-.562-10.5953 11.208.6154.562Zm.1125 18.931v-19.212h-.8395v19.212h.8395Zm9.8674-11.488-10.5953 11.207.6154.562 10.5949-11.208-.615-.561Zm-.113-18.931v19.212h.84v-19.212h-.84Zm.113 30.138-10.5953 11.207.6154.562 10.5949-11.207-.615-.562Zm.727 19.493V251.76h-.84v19.212h.84ZM94.8451 282.46l10.5949-11.207-.615-.561-10.5953 11.206.6154.562Zm-.727-19.493v19.212h.8395v-19.212h-.8395Zm30.2659-95.542-10.594 11.207.614.562L125 167.987l-.616-.562Zm.727 19.494v-19.212h-.839v19.212h.839Zm-10.707 11.487L125 187.199l-.616-.561-10.594 11.207.614.561Zm-.727-19.492v19.212h.84v-19.212h-.84Zm.727 32.3L125 200.007l-.616-.561-10.594 11.207.614.561Zm.113 18.932v-19.212h-.84v19.212h.84Zm9.867-11.488-10.594 11.207.614.562L125 219.22l-.616-.562Zm-.112-18.931v19.212h.839v-19.212h-.839Zm.112 30.138-10.594 11.208.614.561L125 230.427l-.616-.562Zm.727 19.493v-19.212h-.839v19.212h.839Zm-10.707 11.489L125 249.639l-.616-.562-10.594 11.208.614.562Zm-.727-19.494v19.212h.84v-19.212h-.84Zm28.637-93.94-10.595 11.207.615.562 10.594-11.207-.614-.562Zm.727 19.493v-19.213h-.84v19.213h.84Zm-10.707 11.488 10.594-11.207-.614-.562-10.595 11.207.615.562Zm-.727-19.493v19.212h.84v-19.212h-.84Zm.727 32.301 10.594-11.207-.614-.562-10.595 11.207.615.562Zm.113 18.932v-19.213h-.84v19.213h.84Zm9.867-11.488-10.595 11.206.615.562 10.594-11.207-.614-.561Zm-.113-18.932v19.212h.84v-19.212h-.84Zm.113 30.138-10.595 11.207.615.562 10.594-11.207-.614-.562Zm.727 19.494v-19.212h-.84v19.212h.84Zm-10.707 11.487 10.594-11.207-.614-.561-10.595 11.206.615.562Zm-.727-19.492v19.212h.84v-19.212h-.84Z" fill="#000"/>
      <path d="m230.232 399.453 110.022-121.276V538H230.232V399.453Z" fill="url(#m)" stroke="#000"/>
      <path d="M340.381 278.615 382 290.541V538h-41.619V278.615Z" fill="url(#n)" stroke="#000"/>
      <path fill-rule="evenodd" clip-rule="evenodd" d="m347.338 303.392 9.905 3.465v19.326l-9.905-3.598v-19.193Zm0 28.256 9.905 3.465v19.326l-9.905-3.599v-19.192Zm9.905 31.72-9.905-3.464v19.191l9.905 3.599v-19.326Zm-9.905 24.791 9.905 3.465v19.326l-9.905-3.599v-19.192Zm9.905 31.72-9.905-3.464v19.191l9.905 3.599v-19.326Zm-9.905 24.79 9.905 3.465v19.326l-9.905-3.598v-19.193Zm9.905 31.721-9.905-3.465v19.192l9.905 3.599V476.39Zm-9.905 24.791 9.905 3.465v19.326l-9.905-3.6v-19.191Zm28.495-186.06-10.042-3.866v19.193l10.042 3.998v-19.325Zm-10.042 24.39 10.042 3.866v19.325l-10.042-3.999v-19.192Zm10.042 32.121-10.042-3.866v19.193l10.042 3.999v-19.326Zm-10.042 24.39 10.042 3.866v19.325l-10.042-3.998v-19.193Zm10.042 32.121-10.042-3.866v19.193l10.042 3.998v-19.325Zm-10.042 24.389 10.042 3.866v19.325l-10.042-3.998v-19.193Zm10.042 32.122-10.042-3.866v19.193l10.042 3.998v-19.325Zm-10.042 24.39 10.042 3.866v19.325l-10.042-3.999v-19.192Z" fill="url(#o)" fill-opacity=".2"/>
      <path d="M357.243 306.857h.42v-.291l-.279-.098-.141.389Zm-9.905-3.465.141-.388-.561-.196v.584h.42Zm9.905 22.791-.145.387.565.206v-.593h-.42Zm-9.905-3.598h-.42v.287l.275.1.145-.387Zm9.905 12.528h.42v-.291l-.279-.098-.141.389Zm-9.905-3.465.141-.389-.561-.196v.585h.42Zm9.905 22.791-.145.387.565.204v-.591h-.42Zm-9.905-3.6h-.42v.288l.275.099.145-.387Zm0 9.065.141-.39-.561-.195v.585h.42Zm9.905 3.464h.42v-.291l-.279-.098-.141.389Zm-9.905 15.727h-.42v.287l.275.1.145-.387Zm9.905 3.599-.145.387.565.205v-.592h-.42Zm0 8.929h.42v-.291l-.279-.097-.141.388Zm-9.905-3.464.141-.389-.561-.196v.585h.42Zm9.905 22.79-.145.387.565.206v-.593h-.42Zm-9.905-3.598h-.42v.287l.275.1.145-.387Zm0 9.063.141-.388-.561-.197v.585h.42Zm9.905 3.465h.42v-.291l-.279-.097-.141.388Zm-9.905 15.727h-.42v.288l.275.099.145-.387Zm9.905 3.599-.145.386.565.206v-.592h-.42Zm0 8.929h.42v-.29l-.279-.099-.141.389Zm-9.905-3.465.141-.388-.561-.196v.584h.42Zm9.905 22.791-.145.387.565.206v-.593h-.42Zm-9.905-3.598h-.42v.287l.275.1.145-.387Zm0 9.063.141-.389-.561-.196v.585h.42Zm9.905 3.465h.42v-.291l-.279-.098-.141.389Zm-9.905 15.727h-.42v.287l.275.1.145-.387Zm9.905 3.599-.145.387.565.205v-.592h-.42Zm0 8.93h.42v-.292l-.279-.097-.141.389Zm-9.905-3.465.141-.389-.561-.196v.585h.42Zm9.905 22.791-.145.386.565.205v-.591h-.42Zm-9.905-3.6h-.42v.288l.275.099.145-.387Zm18.453-209.117.154-.383-.573-.222v.605h.419Zm10.042 3.866h.419v-.281l-.266-.103-.153.384Zm-10.042 15.327h-.419v.278l.262.104.157-.382Zm10.042 3.998-.158.383.577.229v-.612h-.419Zm0 8.931h.419v-.282l-.266-.103-.153.385Zm-10.042-3.866.154-.385-.573-.22v.605h.419Zm10.042 23.191-.158.382.577.23v-.612h-.419Zm-10.042-3.999h-.419v.278l.262.105.157-.383Zm0 9.063.154-.384-.573-.22v.604h.419Zm10.042 3.866h.419v-.282l-.266-.102-.153.384Zm-10.042 15.327h-.419v.278l.262.104.157-.382Zm10.042 3.999-.158.382.577.23v-.612h-.419Zm0 8.929h.419v-.281l-.266-.103-.153.384Zm-10.042-3.865.154-.384-.573-.221v.605h.419Zm10.042 23.19-.158.383.577.23v-.613h-.419Zm-10.042-3.997h-.419v.277l.262.105.157-.382Zm0 9.062.154-.384-.573-.221v.605h.419Zm10.042 3.866h.419v-.282l-.266-.102-.153.384Zm-10.042 15.327h-.419v.278l.262.104.157-.382Zm10.042 3.998-.158.382.577.23v-.612h-.419Zm0 8.93h.419v-.281l-.266-.103-.153.384Zm-10.042-3.866.154-.384-.573-.221v.605h.419Zm10.042 23.191-.158.383.577.23v-.613h-.419Zm-10.042-3.998h-.419v.278l.262.104.157-.382Zm0 9.063.154-.385-.573-.22v.605h.419Zm10.042 3.866h.419v-.282l-.266-.103-.153.385Zm-10.042 15.327h-.419v.277l.262.105.157-.382Zm10.042 3.998-.158.383.577.229v-.612h-.419Zm0 8.931h.419v-.283l-.266-.102-.153.385Zm-10.042-3.866.154-.385-.573-.22v.605h.419Zm10.042 23.191-.158.382.577.23v-.612h-.419Zm-10.042-3.999h-.419v.278l.262.105.157-.383Zm-8.407-221.768-9.905-3.464-.281.777 9.904 3.465.282-.778Zm.279 19.715v-19.326h-.84v19.326h.84Zm-10.47-3.211 9.905 3.598.29-.774-9.904-3.598-.291.774Zm-.275-19.58v19.193h.84v-19.193h-.84Zm10.466 31.332-9.905-3.465-.282.778 9.905 3.465.282-.778Zm.279 19.715v-19.326h-.84v19.326h.84Zm-10.47-3.213 9.905 3.6.29-.774-9.905-3.599-.29.773Zm-.275-19.578v19.191h.84v-19.191h-.84Zm.279 28.644 9.905 3.464.282-.777-9.905-3.465-.282.778Zm.561 18.803v-19.191h-.84v19.191h.84Zm9.63 3.212-9.905-3.599-.29.774 9.905 3.599.29-.774Zm-.565-18.939v19.326h.84v-19.326h-.84Zm.561 27.867-9.905-3.465-.282.777 9.905 3.465.282-.777Zm.279 19.714v-19.326h-.84v19.326h.84Zm-10.47-3.211 9.905 3.598.29-.774-9.905-3.598-.29.774Zm-.275-19.579v19.192h.84v-19.192h-.84Zm.279 28.644 9.905 3.465.282-.777-9.905-3.465-.282.777Zm.561 18.803v-19.192h-.84v19.192h.84Zm9.63 3.212-9.905-3.599-.29.774 9.905 3.598.29-.773Zm-.565-18.939v19.326h.84v-19.326h-.84Zm.561 27.866-9.905-3.464-.282.778 9.905 3.464.282-.778Zm.279 19.715v-19.326h-.84v19.326h.84Zm-10.47-3.211 9.905 3.598.29-.774-9.905-3.598-.29.774Zm-.275-19.58v19.193h.84v-19.193h-.84Zm.279 28.645 9.905 3.465.282-.778-9.905-3.465-.282.778Zm.561 18.803v-19.192h-.84v19.192h.84Zm9.63 3.212-9.905-3.599-.29.774 9.905 3.599.29-.774Zm-.565-18.939v19.326h.84V476.39h-.84Zm.561 27.867-9.905-3.465-.282.777 9.905 3.465.282-.777Zm.279 19.715v-19.326h-.84v19.326h.84Zm-10.47-3.213 9.905 3.599.29-.773-9.905-3.6-.29.774Zm-.275-19.578v19.191h.84v-19.191h-.84Zm18.721-189.541 10.041 3.866.306-.769-10.041-3.865-.306.768Zm.572 18.808v-19.193h-.839v19.193h.839Zm9.779 3.616-10.041-3.999-.315.765 10.041 3.999.315-.765Zm-.577-18.943v19.325h.839v-19.325h-.839Zm.573 27.871-10.041-3.866-.306.769 10.041 3.865.306-.768Zm.266 19.71v-19.325h-.839v19.325h.839Zm-10.618-3.616 10.041 3.998.315-.764-10.041-3.999-.315.765Zm-.262-19.575v19.192h.839v-19.192h-.839Zm.267 28.639 10.041 3.866.306-.768-10.041-3.866-.306.768Zm.572 18.809v-19.193h-.839v19.193h.839Zm9.779 3.616-10.041-3.999-.315.765 10.041 3.999.315-.765Zm-.577-18.943v19.326h.839v-19.326h-.839Zm.573 27.871-10.041-3.865-.306.768 10.041 3.865.306-.768Zm.266 19.709v-19.325h-.839v19.325h.839Zm-10.618-3.615 10.041 3.998.315-.765-10.041-3.998-.315.765Zm-.262-19.575v19.193h.839v-19.193h-.839Zm.267 28.639 10.041 3.866.306-.768-10.041-3.866-.306.768Zm.572 18.809v-19.193h-.839v19.193h.839Zm9.779 3.615-10.041-3.998-.315.765 10.041 3.998.315-.765Zm-.577-18.942v19.325h.839v-19.325h-.839Zm.573 27.871-10.041-3.866-.306.769 10.041 3.866.306-.769Zm.266 19.709v-19.325h-.839v19.325h.839Zm-10.618-3.616 10.041 3.999.315-.765-10.041-3.999-.315.765Zm-.262-19.575v19.193h.839v-19.193h-.839Zm.267 28.64 10.041 3.865.306-.768-10.041-3.866-.306.769Zm.572 18.809v-19.193h-.839v19.193h.839Zm9.779 3.616-10.041-3.999-.315.765 10.041 3.999.315-.765Zm-.577-18.943v19.325h.839v-19.325h-.839Zm.573 27.871-10.041-3.866-.306.768 10.041 3.866.306-.768Zm.266 19.71V512.91h-.839v19.325h.839Zm-10.618-3.616 10.041 3.998.315-.765-10.041-3.998-.315.765Zm-.262-19.575v19.192h.839v-19.192h-.839Z" fill="#000"/>
      <path fill-rule="evenodd" clip-rule="evenodd" d="m323.058 322.832 8.937-9.709v19.02l-8.937 9.045v-18.356Zm-6.906 8.38-9.885 10.241v18.489l9.885-10.242v-18.488Zm-17.875 19.552-9.478 9.443v18.488l9.478-10.64v-17.291Zm-16.791 18.354-9.749 9.976v18.754l10.562-11.439-.813-17.291Zm-27.082 29.129 9.749-10.64v18.621l-9.749 9.975v-17.956Zm-8.125 9.178-9.207 9.975v17.823l9.207-9.71v-18.088Zm0 27.732-9.207 9.974v17.824l9.207-9.71v-18.088Zm17.874-19.819-9.749 10.641v17.956l9.749-9.975v-18.622Zm-9.749 38.373 9.749-10.641v18.621l-9.749 9.976v-17.956Zm17.333-46.885 9.749-9.976.813 17.292-10.562 11.438v-18.754Zm9.749 17.756-9.749 9.976v18.754l10.562-11.439-.813-17.291Zm-9.749 38.04 9.749-9.975.813 17.291-10.562 11.438v-18.754Zm17.062-74.683 9.478-9.444v17.291l-9.478 10.641v-18.488Zm9.478 18.288-9.478 9.444v18.488l9.478-10.641v-17.291Zm-9.478 37.508 9.478-9.443v17.291l-9.478 10.641v-18.489Zm17.468-74.55 9.885-10.242v18.489l-9.885 10.241v-18.488Zm9.885 17.49-9.885 10.242v18.487l9.885-10.241v-18.488Zm-9.885 38.306 9.885-10.242v18.489l-9.885 10.242v-18.489Zm9.885 18.887-9.885 10.242v18.488l9.885-10.241v-18.489Zm-9.885 46.286 9.885-10.242v18.489l-9.885 10.241v-18.488Zm10.749 22.86-9.885 10.242v18.488l9.885-10.241v-18.489Zm14.979-172.16-8.937 9.71v18.355l8.937-9.044v-19.021Zm-8.937 37.442 8.937-9.71v19.021l-8.937 9.044v-18.355Zm8.937 18.355-8.937 9.709v18.355l8.937-9.044v-19.02Zm-8.937 38.838 8.937-9.709v19.02l-8.937 9.044v-18.355Zm8.937 26.334-8.937 9.71v18.356l8.937-9.045v-19.021Zm-8.072 42.812 8.937-9.71v19.02l-8.937 9.045v-18.355Z" fill="url(#p)" fill-opacity=".2"/>
      <path d="M331.995 313.123h.42v-1.071l-.732.794.312.277Zm-8.937 9.709-.312-.276-.108.117v.159h.42Zm8.937 9.311.301.287.119-.119v-.168h-.42Zm-8.937 9.045h-.42v1.016l.721-.729-.301-.287Zm-16.791.265-.305-.283-.115.119v.164h.42Zm9.885-10.241h.419v-1.034l-.724.75.305.284Zm-9.885 28.73h-.42v1.034l.724-.75-.304-.284Zm9.885-10.242.304.284.115-.12v-.164h-.419Zm-27.353 10.507-.299-.289-.121.12v.169h.42Zm9.478-9.443h.42v-1.005l-.719.715.299.29Zm-9.478 27.931h-.42v1.098l.735-.826-.315-.272Zm9.478-10.64.316.272.104-.117v-.155h-.42Zm-26.54 11.039-.303-.285-.117.12v.165h.42Zm9.749-9.976.42-.019-.045-.959-.677.693.302.285Zm-9.749 28.73h-.42v1.069l.731-.791-.311-.278Zm10.562-11.439.31.278.117-.126-.007-.171-.42.019Zm-18.146 1.198h.42v-1.075l-.731.799.311.276Zm-9.749 10.64-.312-.276-.107.118v.158h.419Zm9.749 7.981.303.285.117-.119v-.166h-.42Zm-9.749 9.975h-.419v1.025l.722-.739-.303-.286Zm-17.332 1.197-.311-.278-.109.118v.16h.42Zm9.207-9.975h.42v-1.069l-.73.792.31.277Zm-9.207 27.798h-.42v1.048l.727-.767-.307-.281Zm9.207-9.71.307.282.113-.119v-.163h-.42Zm-9.207 19.618-.311-.277-.109.118v.159h.42Zm9.207-9.974h.42v-1.069l-.73.792.31.277Zm-9.207 27.798h-.42v1.048l.727-.767-.307-.281Zm9.207-9.71.307.282.113-.119v-.163h-.42Zm8.125-27.266-.312-.276-.107.117v.159h.419Zm9.749-10.641h.42v-1.074l-.731.799.311.275Zm-9.749 28.597h-.419v1.025l.722-.74-.303-.285Zm9.749-9.975.303.285.117-.119v-.166h-.42Zm0 9.11h.42v-1.074l-.731.798.311.276Zm-9.749 10.641-.312-.277-.107.118v.159h.419Zm9.749 7.98.303.286.117-.12v-.166h-.42Zm-9.749 9.976h-.419v1.025l.722-.74-.303-.285Zm27.082-74.817.42-.019-.045-.959-.677.693.302.285Zm-9.749 9.976-.303-.285-.117.119v.166h.42Zm10.562 7.316.31.277.117-.126-.007-.171-.42.02Zm-10.562 11.438h-.42v1.069l.731-.792-.311-.277Zm0 8.978-.303-.286-.117.12v.166h.42Zm9.749-9.976.42-.019-.045-.96-.677.693.302.286Zm-9.749 28.73h-.42v1.069l.731-.792-.311-.277Zm10.562-11.439.31.277.117-.125-.007-.171-.42.019Zm-.813 10.774.42-.019-.045-.96-.677.693.302.286Zm-9.749 9.975-.303-.285-.117.119v.166h.42Zm10.562 7.316.31.277.117-.126-.007-.17-.42.019Zm-10.562 11.438h-.42v1.069l.731-.791-.311-.278Zm26.54-102.881h.42v-1.005l-.719.716.299.289Zm-9.478 9.444-.299-.289-.121.12v.169h.42Zm9.478 7.847.316.272.104-.116v-.156h-.42Zm-9.478 10.641h-.42v1.097l.735-.825-.315-.272Zm0 9.244-.299-.29-.121.121v.169h.42Zm9.478-9.444h.42v-1.005l-.719.715.299.29Zm-9.478 27.932h-.42v1.097l.735-.825-.315-.272Zm9.478-10.641.316.272.104-.117v-.155h-.42Zm0 10.774h.42v-1.006l-.719.717.299.289Zm-9.478 9.443-.299-.289-.121.12v.169h.42Zm9.478 7.848.316.272.104-.117v-.155h-.42Zm-9.478 10.641h-.42v1.097l.735-.826-.315-.271Zm27.353-103.281h.419v-1.034l-.724.75.305.284Zm-9.885 10.242-.305-.284-.115.119v.165h.42Zm9.885 8.247.304.284.115-.12v-.164h-.419Zm-9.885 10.241h-.42v1.034l.724-.75-.304-.284Zm0 9.244-.305-.284-.115.119v.165h.42Zm9.885-10.242h.419v-1.035l-.724.751.305.284Zm-9.885 28.729h-.42v1.035l.724-.75-.304-.285Zm9.885-10.241.304.284.115-.119v-.165h-.419Zm0 9.576h.419v-1.034l-.724.751.305.283Zm-9.885 10.242-.305-.284-.115.12v.164h.42Zm9.885 8.247.304.284.115-.119v-.165h-.419Zm-9.885 10.242h-.42v1.033l.724-.75-.304-.283Zm0 10.64-.305-.284-.115.12v.164h.42Zm9.885-10.242h.419v-1.034l-.724.75.305.284Zm-9.885 28.73h-.42v1.034l.724-.75-.304-.284Zm9.885-10.242.304.284.115-.118v-.166h-.419Zm0 17.556h.419v-1.034l-.724.751.305.283Zm-9.885 10.242-.305-.284-.115.119v.165h.42Zm9.885 8.247.304.284.115-.12v-.164h-.419Zm-9.885 10.241h-.42v1.035l.724-.751-.304-.284Zm.864 14.614-.304-.284-.115.119v.165h.419Zm9.885-10.242h.42v-1.034l-.724.75.304.284Zm-9.885 28.73h-.419v1.034l.724-.75-.305-.284Zm9.885-10.241.305.284.115-.12v-.164h-.42Zm6.042-180.939-.312-.277-.108.118v.159h.42Zm8.937-9.71h.42v-1.071l-.732.795.312.276Zm-8.937 28.065h-.42v1.017l.721-.729-.301-.288Zm8.937-9.044.301.287.119-.12v-.167h-.42Zm0 8.711h.42v-1.071l-.732.795.312.276Zm-8.937 9.71-.312-.278-.108.118v.16h.42Zm8.937 9.311.301.287.119-.121v-.166h-.42Zm-8.937 9.044h-.42v1.017l.721-.73-.301-.287Zm0 9.709-.312-.276-.108.117v.159h.42Zm8.937-9.709h.42v-1.071l-.732.794.312.277Zm-8.937 28.064h-.42v1.018l.721-.73-.301-.288Zm8.937-9.044.301.287.119-.12v-.167h-.42Zm0 10.109h.42v-1.071l-.732.794.312.277Zm-8.937 9.709-.312-.277-.108.118v.159h.42Zm8.937 9.311.301.287.119-.12v-.167h-.42Zm-8.937 9.044h-.42v1.018l.721-.731-.301-.287Zm0 17.689-.312-.277-.108.118v.159h.42Zm8.937-9.71h.42v-1.071l-.732.795.312.276Zm-8.937 28.066h-.42v1.016l.721-.729-.301-.287Zm8.937-9.045.301.287.119-.12v-.167h-.42Zm.865 14.081h.419v-1.071l-.731.795.312.276Zm-8.937 9.71-.312-.277-.108.118v.159h.42Zm8.937 9.31.3.288.119-.12v-.168h-.419Zm-8.937 9.045h-.42v1.017l.721-.729-.301-.288Zm7.76-210.144-8.937 9.71.623.553 8.937-9.709-.623-.554Zm.732 19.297v-19.02h-.84v19.02h.84Zm-9.056 9.332 8.937-9.045-.602-.574-8.938 9.044.603.575Zm-.721-18.643v18.356h.84v-18.356h-.84Zm-16.067 18.905 9.885-10.242-.609-.567-9.885 10.242.609.567Zm.115 18.205v-18.489h-.839v18.489h.839Zm9.161-10.526-9.885 10.241.609.569 9.885-10.242-.609-.568Zm-.115-18.204V349.7h.839v-18.488h-.839Zm-26.634 29.285 9.478-9.443-.598-.58-9.478 9.444.598.579Zm.121 18.198v-18.488h-.84v18.488h.84Zm8.743-10.912-9.48 10.641.632.543 9.479-10.64-.631-.544Zm-.104-17.019v17.291h.839v-17.291h-.839Zm-25.819 28.616 9.75-9.975-.605-.572-9.75 9.976.605.571Zm.118 18.468v-18.754h-.84v18.754h.84Zm9.831-11.716-10.562 11.439.622.555 10.561-11.439-.621-.555Zm-.921-16.995.813 17.292.839-.039-.813-17.291-.839.038Zm-17.225 18.194-9.75 10.64.624.552 9.75-10.64-.624-.552Zm.731 18.897v-18.621h-.839v18.621h.839Zm-9.866 10.261 9.749-9.976-.605-.571-9.75 9.976.606.571Zm-.722-18.242v17.956h.839v-17.956h-.839Zm-16.603 19.43 9.209-9.975-.622-.554-9.208 9.974.621.555Zm.11 17.546V417.4h-.84v17.823h.84Zm8.481-9.99-9.209 9.709.615.562 9.207-9.709-.613-.562Zm-.114-17.808v18.088h.84v-18.088h-.84Zm-8.477 37.984 9.209-9.975-.622-.554-9.208 9.974.621.555Zm.11 17.546v-17.824h-.84v17.824h.84Zm8.481-9.99-9.209 9.708.615.563 9.207-9.709-.613-.562Zm-.114-17.808v18.088h.84v-18.088h-.84Zm8.857-8.902 9.75-10.64-.624-.552-9.75 10.64.624.552Zm.108 17.68v-17.956h-.839v17.956h.839Zm9.027-10.262-9.75 9.976.606.571 9.749-9.975-.605-.572Zm-.117-18.335v18.622h.839v-18.622h-.839Zm.108 27.456-9.75 10.64.624.553 9.75-10.64-.624-.553Zm.731 18.897V443.07h-.839v18.621h.839Zm-9.866 10.261 9.749-9.975-.605-.572-9.75 9.976.606.571Zm-.722-18.241v17.956h.839v-17.956h-.839Zm27.199-57.146-9.75 9.976.605.571 9.75-9.976-.605-.571Zm1.535 17.557-.813-17.291-.839.038.813 17.292.839-.039Zm-10.671 11.735 10.561-11.438-.621-.555-10.562 11.439.622.554Zm-.731-19.031v18.754h.84v-18.754h-.84Zm.722 28.017 9.75-9.975-.605-.572-9.75 9.976.605.571Zm.118 18.469v-18.754h-.84v18.754h.84Zm9.831-11.716-10.562 11.439.622.554 10.561-11.439-.621-.554Zm-.921-16.995.813 17.291.839-.038-.813-17.291-.839.038Zm.117 27.76-9.75 9.976.605.572 9.75-9.977-.605-.571Zm1.535 17.558-.813-17.291-.839.038.813 17.291.839-.038Zm-10.671 11.735 10.561-11.439-.621-.554-10.562 11.438.622.555Zm-.731-19.032v18.754h.84v-18.754h-.84Zm26.661-84.416-9.478 9.444.598.579 9.478-9.443-.598-.58Zm.719 17.58v-17.291h-.839v17.291h.839Zm-9.583 10.913 9.479-10.641-.631-.543-9.48 10.64.632.544Zm-.735-18.76v18.488h.84v-18.488h-.84Zm.719 28.022 9.478-9.444-.598-.58-9.478 9.444.598.58Zm.121 18.198v-18.488h-.84v18.488h.84Zm8.743-10.912-9.48 10.64.632.544 9.479-10.641-.631-.543Zm-.104-17.02v17.291h.839v-17.291h-.839Zm.12 27.776-9.478 9.443.598.579 9.478-9.443-.598-.579Zm.719 17.58v-17.291h-.839v17.291h.839Zm-9.583 10.912 9.479-10.64-.631-.544-9.48 10.64.632.544Zm-.735-18.76v18.489h.84v-18.489h-.84Zm27.468-85.076-9.885 10.242.609.568 9.885-10.242-.609-.568Zm.724 18.773v-18.489h-.839v18.489h.839Zm-10 10.525 9.885-10.241-.609-.568-9.885 10.241.609.568Zm-.724-18.772v18.488h.839v-18.488h-.839Zm.724 28.016 9.885-10.242-.609-.568-9.885 10.242.609.568Zm.115 18.203v-18.487h-.839v18.487h.839Zm9.161-10.524-9.885 10.241.609.568 9.885-10.242-.609-.567Zm-.115-18.205v18.488h.839v-18.488h-.839Zm.115 27.781-9.885 10.241.609.568 9.885-10.241-.609-.568Zm.724 18.772v-18.489h-.839v18.489h.839Zm-10 10.525 9.885-10.241-.609-.568-9.885 10.242.609.567Zm-.724-18.772v18.489h.839v-18.489h-.839Zm.724 29.413 9.885-10.242-.609-.568-9.885 10.242.609.568Zm.115 18.204V454.11h-.839v18.488h.839Zm9.161-10.525-9.885 10.241.609.568 9.885-10.242-.609-.567Zm-.115-18.205v18.488h.839v-18.488h-.839Zm.115 35.761-9.885 10.241.609.568 9.885-10.242-.609-.567Zm.724 18.772v-18.489h-.839v18.489h.839Zm-10 10.525 9.885-10.241-.609-.568-9.885 10.241.609.568Zm-.724-18.772v18.488h.839v-18.488h-.839Zm1.589 33.386 9.885-10.242-.609-.568-9.885 10.242.609.568Zm.115 18.204v-18.488h-.839v18.488h.839Zm9.161-10.525-9.885 10.241.609.568 9.885-10.241-.609-.568Zm-.115-18.205v18.489h.839v-18.489h-.839Zm6.772-162.174 8.937-9.708-.623-.554-8.937 9.709.623.553Zm.109 18.079v-18.355h-.84v18.355h.84Zm8.216-9.332-8.938 9.044.603.576 8.937-9.045-.602-.575Zm-.119-18.733v19.021h.84v-19.021h-.84Zm.108 27.456-8.937 9.708.623.554 8.937-9.709-.623-.553Zm.732 19.297v-19.021h-.84v19.021h.84Zm-9.056 9.331 8.937-9.044-.602-.575-8.938 9.044.603.575Zm-.721-18.642v18.355h.84v-18.355h-.84Zm.731 28.341 8.937-9.709-.623-.554-8.937 9.71.623.553Zm.109 18.078V406.36h-.84v18.355h.84Zm8.216-9.331-8.938 9.044.603.575 8.937-9.045-.602-.574Zm-.119-18.733v19.02h.84v-19.02h-.84Zm.108 28.852-8.937 9.709.623.554 8.937-9.71-.623-.553Zm.732 19.297v-19.02h-.84v19.02h.84Zm-9.056 9.331 8.937-9.044-.602-.574-8.938 9.044.603.574Zm-.721-18.642v18.355h.84v-18.355h-.84Zm.731 36.32 8.937-9.708-.623-.554-8.937 9.709.623.553Zm.109 18.08v-18.356h-.84v18.356h.84Zm8.216-9.333-8.938 9.045.603.575 8.937-9.045-.602-.575Zm-.119-18.733v19.021h.84v-19.021h-.84Zm.973 32.826-8.937 9.709.623.553 8.937-9.709-.623-.553Zm.731 19.296v-19.02h-.839v19.02h.839Zm-9.055 9.333 8.936-9.045-.602-.575-8.937 9.044.603.576Zm-.721-18.643v18.355h.839v-18.355h-.839Z" fill="#000"/>
      <path d="M150.771 212.135 25.2644 347.821 0 375.438V538h150.771V212.135Z" fill="url(#q)" stroke="#000"/>
      <path fill-rule="evenodd" clip-rule="evenodd" d="m125.451 282.122 13.589-13.802v24.875l-13.589 13.954v-25.027Zm-8.338 9.859-13.28 15.016v23.662l13.28-13.5v-25.178Zm-36.5972 39.436 12.9709-13.347v23.964l-12.9709 15.471v-26.088Zm-9.4196 11.224-13.28 13.954v25.027l13.28-14.106v-24.875Zm-37.3693 39.436 12.9712-13.803v25.634l-12.9712 13.195v-25.026Zm-10.346 12.133-13.2796 13.652v25.936l13.2796-14.409V394.21Zm0 38.83-13.2796 13.651v25.937l13.2796-14.41V433.04Zm-13.2796 49.142 13.2796-13.65v25.179L10.1013 508.12v-25.938Zm13.2796 25.484-13.2796 13.65v25.937l13.2796-14.409v-25.178Zm23.3172-100.562-12.9712 13.803v25.026l12.9712-13.196v-25.633Zm-12.9712 49.294 12.9712-13.802v25.633l-12.9712 13.196v-25.027Zm12.9712 25.332-12.9712 13.802v25.026l12.9712-13.196V481.73Zm-12.9712 52.784 12.9712-13.803v25.633L33.7269 559.54v-25.026Zm24.0893-139.089 13.28-13.954v24.874l-13.28 14.106v-25.026Zm13.28 21.537-13.28 13.955v25.026l13.28-14.106v-24.875Zm-13.28 53.088 13.28-13.954v24.875l-13.28 14.105V470.05Zm13.28 25.028-13.28 13.954v25.026l13.28-14.106v-24.874Zm22.3905-138.179-12.9709 13.347v26.089l12.9709-15.471v-23.965Zm-12.9709 48.839 12.9709-13.346v23.964l-12.9709 15.471v-26.089Zm12.9709 25.787-12.9709 13.347v26.088l12.9709-15.47v-23.965Zm-12.9709 52.328 12.9709-13.346v23.965l-12.9709 15.47v-26.089Zm23.3172-138.026 13.28-15.016v25.178l-13.28 13.499v-23.661Zm13.28 20.476-13.28 15.016v23.661l13.28-13.499v-25.178Zm-13.28 54.149 13.28-15.015v25.178l-13.28 13.498v-23.661Zm13.28 23.967-13.28 15.015v23.661l13.28-13.499v-25.177Zm21.927-137.27-13.589 13.803v25.027l13.589-13.955v-24.875Zm-13.589 49.295 13.589-13.803v24.875l-13.589 13.954v-25.026Zm13.589 25.331-13.589 13.802v25.027l13.589-13.954v-24.875Zm-13.589 52.784 13.589-13.803v24.876l-13.589 13.954v-25.027Z" fill="url(#r)" fill-opacity=".2"/>
      <path d="M139.04 268.32h.419v-1.02l-.721.733.302.287Zm-13.589 13.802-.302-.287-.117.12v.167h.419Zm13.589 11.073.303.285.116-.12v-.165h-.419Zm-13.589 13.954h-.419v1.028l.722-.743-.303-.285Zm-21.618-.152-.317-.27-.103.116v.154h.42Zm13.28-15.016h.42v-1.103l-.738.833.318.27Zm-13.28 38.678h-.42v1.02l.721-.734-.301-.286Zm13.28-13.5.301.287.119-.119v-.168h-.42Zm-23.6263.911h.4198v-1.03l-.7237.745.3039.285Zm-12.9709 13.347-.3036-.285-.1162.119v.166h.4198Zm12.9709 10.617.3241.263.0957-.114v-.149h-.4198Zm-12.9709 15.471h-.4198v1.15l.7437-.887-.3239-.263Zm-22.6996-.91-.3065-.281-.1133.118v.163h.4198Zm13.28-13.954h.4198v-1.045l-.7264.763.3066.282Zm-13.28 38.981h-.4198v1.054l.7279-.774-.3081-.28Zm13.28-14.106.3081.28.1117-.118v-.162h-.4198Zm-24.3981.758h.4198v-1.054l-.7281.774.3083.28Zm-12.9712 13.803-.3084-.28-.1114.119v.161h.4198Zm12.9712 11.831.3019.286.1179-.12v-.166h-.4198Zm-12.9712 13.195h-.4198v1.021l.7217-.734-.3019-.287Zm-23.6256.759-.3034-.286-.1164.12v.166h.4198Zm13.2796-13.652h.4198v-1.028l-.7232.744.3034.284Zm-13.2796 39.588h-.4198v1.07l.7309-.793-.3111-.277Zm13.2796-14.409.3111.277.1087-.118v-.159h-.4198Zm-13.2796 27.302-.3034-.285-.1164.119v.166h.4198Zm13.2796-13.651h.4198v-1.029l-.7232.744.3034.285Zm-13.2796 39.588h-.4198v1.069l.7309-.793-.3111-.276Zm13.2796-14.41.3111.278.1087-.118v-.16h-.4198Zm0 10.314h.4198v-1.028l-.7232.742.3034.286Zm-13.2796 13.65-.3034-.284-.1164.119v.165h.4198Zm13.2796 11.529.3111.276.1087-.117v-.159h-.4198ZM10.1013 508.12h-.4198v1.07l.7309-.793-.3111-.277Zm0 13.196-.3034-.284-.1164.119v.165h.4198Zm13.2796-13.65h.4198v-1.029l-.7232.743.3034.286Zm-13.2796 39.587h-.4198v1.07l.7309-.792-.3111-.278Zm13.2796-14.409.3111.277.1087-.118v-.159h-.4198Zm10.346-111.937-.3084-.28-.1114.118v.162h.4198Zm12.9712-13.803h.4198v-1.055l-.7281.775.3083.28Zm-12.9712 38.829h-.4198v1.02l.7217-.733-.3019-.287Zm12.9712-13.196.3019.287.1179-.121v-.166h-.4198Zm0 9.859h.4198v-1.055l-.7281.775.3083.28Zm-12.9712 13.802-.3084-.28-.1114.119v.161h.4198Zm12.9712 11.831.3019.286.1179-.119v-.167h-.4198Zm-12.9712 13.196h-.4198v1.021l.7217-.735-.3019-.286Zm0 14.107-.3084-.28-.1114.119v.161h.4198Zm12.9712-13.802h.4198v-1.055l-.7281.775.3083.28Zm-12.9712 38.828h-.4198v1.021l.7217-.734-.3019-.287Zm12.9712-13.196.3019.287.1179-.119v-.168h-.4198Zm0 13.349h.4198v-1.054l-.7281.775.3083.279Zm-12.9712 13.803-.3084-.28-.1114.118v.162h.4198Zm12.9712 11.83.3019.287.1179-.12v-.167h-.4198ZM33.7269 559.54h-.4198v1.021l.7217-.734-.3019-.287Zm37.3693-178.069h.4198v-1.046l-.7264.764.3066.282Zm-13.28 13.954-.3065-.282-.1133.119v.163h.4198Zm13.28 10.92.3081.281.1117-.119v-.162h-.4198Zm-13.28 14.106h-.4198v1.054l.7279-.773-.3081-.281Zm0 10.466-.3065-.282-.1133.119v.163h.4198Zm13.28-13.955h.4198v-1.044l-.7264.763.3066.281Zm-13.28 38.981h-.4198v1.053l.7279-.773-.3081-.28Zm13.28-14.106.3081.281.1117-.119v-.162h-.4198Zm0 14.259h.4198v-1.045l-.7264.763.3066.282Zm-13.28 13.954-.3065-.282-.1133.119v.163h.4198Zm13.28 10.921.3081.28.1117-.119v-.161h-.4198Zm-13.28 14.105h-.4198v1.054l.7279-.773-.3081-.281Zm0 13.956-.3065-.282-.1133.119v.163h.4198Zm13.28-13.954h.4198v-1.045l-.7264.763.3066.282Zm-13.28 38.98h-.4198v1.054l.7279-.773-.3081-.281Zm13.28-14.106.3081.281.1117-.119v-.162h-.4198Zm9.4196-149.706-.3036-.285-.1162.119v.166h.4198Zm12.9709-13.347h.4198v-1.029l-.7237.745.3039.284Zm-12.9709 39.436h-.4198v1.15l.7437-.888-.3239-.262Zm12.9709-15.471.3241.262.0957-.114v-.148h-.4198Zm0 11.528h.4198v-1.03l-.7237.744.3039.286Zm-12.9709 13.346-.3036-.285-.1162.12v.165h.4198Zm12.9709 10.618.3241.262.0957-.114v-.148h-.4198Zm-12.9709 15.471h-.4198v1.149l.7437-.887-.3239-.262Zm0 13.045-.3036-.285-.1162.119v.166h.4198Zm12.9709-13.347h.4198v-1.029l-.7237.744.3039.285ZM80.5158 470.96h-.4198v1.15l.7437-.887-.3239-.263Zm12.9709-15.47.3241.261.0957-.114v-.147h-.4198Zm0 15.017h.4198v-1.029l-.7237.744.3039.285Zm-12.9709 13.346-.3036-.284-.1162.119v.165h.4198Zm12.9709 10.618.3241.262.0957-.114v-.148h-.4198Zm-12.9709 15.471h-.4198v1.15l.7437-.887-.3239-.263Zm36.5972-179.131h.42v-1.104l-.738.833.318.271Zm-13.28 15.016-.317-.271-.103.116v.155h.42Zm13.28 10.162.301.287.119-.12v-.167h-.42Zm-13.28 13.499h-.42v1.021l.721-.734-.301-.287Zm0 11.831-.317-.271-.103.117v.154h.42Zm13.28-15.016h.42V365.2l-.738.832.318.271Zm-13.28 38.677h-.42V406l.721-.733-.301-.287Zm13.28-13.499.301.287.119-.121v-.166h-.42Zm0 13.956h.42v-1.104l-.738.833.318.271Zm-13.28 15.015-.317-.271-.103.117v.154h.42Zm13.28 10.163.301.286.119-.12v-.166h-.42Zm-13.28 13.498h-.42v1.021l.721-.734-.301-.287Zm0 15.321-.317-.271-.103.117v.154h.42Zm13.28-15.015h.42v-1.105l-.738.834.318.271Zm-13.28 38.676h-.42v1.021l.721-.734-.301-.287Zm13.28-13.499.301.287.119-.12v-.167h-.42Zm8.338-148.644-.302-.288-.117.121v.167h.419Zm13.589-13.803h.419v-1.02l-.721.733.302.287Zm-13.589 38.83h-.419v1.027l.722-.743-.303-.284Zm13.589-13.955.303.285.116-.12v-.165h-.419Zm0 10.617h.419v-1.019l-.721.732.302.287Zm-13.589 13.803-.302-.287-.117.119v.168h.419Zm13.589 11.072.303.285.116-.119v-.166h-.419Zm-13.589 13.954h-.419v1.028l.722-.742-.303-.286Zm0 14.107-.302-.286-.117.119v.167h.419Zm13.589-13.802h.419v-1.02l-.721.732.302.288Zm-13.589 38.829h-.419v1.028l.722-.743-.303-.285Zm13.589-13.954.303.285.116-.12v-.165h-.419Zm0 14.106h.419v-1.019l-.721.732.302.287Zm-13.589 13.803-.302-.287-.117.12v.167h.419Zm13.589 11.073.303.285.116-.12v-.165h-.419Zm-13.589 13.954h-.419v1.027l.722-.742-.303-.285Zm13.287-191.553-13.589 13.802.604.574 13.589-13.803-.604-.573Zm.721 25.162V268.32h-.839v24.875h.839Zm-13.705 14.239 13.589-13.954-.606-.57-13.59 13.954.607.57Zm-.722-25.312v25.027h.839v-25.027h-.839Zm-20.883 25.146 13.28-15.016-.634-.541-13.279 15.016.633.541Zm.103 23.391v-23.662h-.839v23.662h.839Zm12.559-13.786-13.281 13.499.604.573 13.28-13.499-.603-.573Zm-.118-24.892v25.178h.84v-25.178h-.84Zm-23.5102 25.804-12.9706 13.347.6071.57 12.9705-13.347-.607-.57Zm.7237 24.249V318.07h-.8395v23.964h.8395Zm-13.0668 15.734 12.9711-15.471-.6481-.525-12.9709 15.471.6479.525Zm-.7437-26.351v26.088h.8396v-26.088h-.8396Zm-21.9732 25.46 13.28-13.954-.6132-.564-13.2799 13.955.6131.563Zm.1132 24.745v-25.027h-.8396v25.027h.8396Zm12.5521-14.386-13.28 14.105.6162.561 13.28-14.106-.6162-.56Zm-.1117-24.595v24.875h.8396v-24.875h-.8396Zm-24.2866 25.353-12.9713 13.803.6168.56 12.9712-13.802-.6167-.561Zm.7281 25.914v-25.634h-.8396v25.634h.8396ZM34.0288 407.39 47 394.194l-.6038-.573-12.9712 13.196.6038.573Zm-.7217-25.313v25.026h.8396v-25.026h-.8396Zm-22.9024 26.069 13.2796-13.65-.6068-.57-13.2797 13.65.6069.57Zm.1163 25.652v-25.936h-.8395v25.936h.8395Zm12.5488-14.686-13.2797 14.41.6223.553 13.2796-14.409-.6222-.554Zm-.1086-24.902v25.179h.8395V394.21h-.8395Zm-12.5565 52.766 13.2796-13.651-.6068-.57-13.2797 13.651.6069.57Zm.1163 25.652v-25.937h-.8395v25.937h.8395Zm12.5488-14.687-13.2797 14.41.6223.553 13.2796-14.408-.6222-.555Zm-.1086-24.901v25.178h.8395V433.04h-.8395Zm.1163 35.206L9.7978 481.898l.6069.57 13.2796-13.65-.6068-.572Zm.7232 25.465v-25.179h-.8395v25.179h.8395Zm-13.3883 14.686 13.2796-14.41-.6222-.554-13.2797 14.41.6223.554Zm-.731-26.215v25.938h.8396v-25.938h-.8395Zm.7233 39.42 13.2796-13.652-.6068-.57-13.2797 13.652.6069.57Zm.1163 25.651v-25.937h-.8395v25.937h.8395Zm12.5488-14.686L9.7901 546.976l.6223.555 13.2796-14.41-.6222-.554Zm-.1086-24.901v25.178h.8395v-25.178h-.8395Zm11.0741-86.48 12.9712-13.802-.6167-.56-12.9713 13.803.6168.559Zm.1114 24.747v-25.026h-.8396v25.026h.8396Zm12.2495-13.482L33.425 445.646l.6038.574L47 433.024l-.6038-.573Zm-.1179-25.347v25.633h.8396v-25.633h-.8396Zm.1115 35.212-12.9713 13.802.6168.561 12.9712-13.804-.6167-.559Zm.7281 25.913v-25.633h-.8396v25.633h.8396Zm-13.0891 13.482L47 468.515l-.6038-.573-12.9712 13.196.6038.573Zm-.7217-25.313v25.027h.8396v-25.027h-.8396Zm.7282 39.414 12.9712-13.803-.6167-.559-12.9713 13.802.6168.56Zm.1114 24.746v-25.026h-.8396v25.026h.8396Zm12.2495-13.482L33.425 520.272l.6038.573L47 507.649l-.6038-.573Zm-.1179-25.346v25.632h.8396V481.73h-.8396Zm.1115 38.702-12.9713 13.802.6168.559 12.9712-13.802-.6167-.559Zm.7281 25.912v-25.633h-.8396v25.633h.8396Zm-13.0891 13.483L47 546.631l-.6038-.573-12.9712 13.195.6038.574Zm-.7217-25.313v25.026h.8396v-25.026h-.8396Zm37.4825-153.325-13.2799 13.954.6131.563 13.28-13.954-.6132-.563Zm.7264 25.156v-24.874h-.8396v24.874h.8396Zm-13.3917 14.387 13.28-14.106-.6162-.561-13.28 14.106.6162.561Zm-.7279-25.307v25.026h.8396v-25.026h-.8396Zm.7264 35.774 13.28-13.954-.6132-.564-13.2799 13.954.6131.564Zm.1132 24.744v-25.026h-.8396v25.026h.8396Zm12.5521-14.386-13.28 14.106.6162.56 13.28-14.105-.6162-.561Zm-.1117-24.595v24.875h.8396v-24.875h-.8396Zm.1132 38.852-13.2799 13.954.6131.564 13.28-13.955-.6132-.563Zm.7264 25.157v-24.875h-.8396v24.875h.8396Zm-13.3917 14.386 13.28-14.106-.6162-.56-13.28 14.106.6162.56Zm-.7279-25.307v25.026h.8396V470.05h-.8396Zm.7264 39.264 13.28-13.955-.6132-.563-13.2799 13.954.6131.564Zm.1132 24.744v-25.026h-.8396v25.026h.8396Zm12.5521-14.385-13.28 14.105.6162.561 13.28-14.106-.6162-.56Zm-.1117-24.595v24.874h.8396v-24.874h-.8396Zm10.1429-124.547 12.9705-13.347-.607-.569-12.9706 13.346.6071.57Zm.1163 25.804v-26.089h-.8396v26.089h.8396Zm12.2271-15.734-12.9709 15.472.6479.524 12.9711-15.471-.6481-.525Zm-.0957-23.702v23.965h.8395v-23.965h-.8395Zm.1158 35.207-12.9706 13.347.6071.57 12.9705-13.347-.607-.57Zm.7237 24.25v-23.964h-.8395v23.964h.8395Zm-13.0668 15.733 12.9711-15.471-.6481-.525-12.9709 15.471.6479.525Zm-.7437-26.351v26.089h.8396v-26.089h-.8396Zm.7233 39.418 12.9705-13.346-.607-.57-12.9706 13.347.6071.569Zm.1163 25.804v-26.088h-.8396v26.088h.8396Zm12.2271-15.733-12.9709 15.471.6479.525 12.9711-15.472-.6481-.524Zm-.0957-23.702v23.965h.8395v-23.965h-.8395Zm.1158 38.697-12.9706 13.347.6071.569 12.9705-13.347-.607-.569Zm.7237 24.249v-23.964h-.8395v23.964h.8395Zm-13.0668 15.734 12.9711-15.472-.6481-.524-12.9709 15.471.6479.525Zm-.7437-26.352v26.089h.8396v-26.089h-.8396Zm36.699-153.313-13.279 15.016.633.541 13.28-15.016-.634-.541Zm.738 25.449v-25.178h-.84v25.178h.84Zm-13.399 13.786 13.28-13.499-.603-.574-13.281 13.5.604.573Zm-.721-23.948v23.661h.839v-23.661h-.839Zm.736 35.763 13.28-15.016-.634-.542-13.279 15.016.633.542Zm.103 23.39v-23.661h-.839v23.661h.839Zm12.559-13.786-13.281 13.499.604.574 13.28-13.499-.603-.574Zm-.118-24.891v25.178h.84v-25.178h-.84Zm.102 38.863-13.279 15.015.633.542 13.28-15.016-.634-.541Zm.738 25.449v-25.178h-.84v25.178h.84ZM104.134 444.4l13.28-13.499-.603-.574-13.281 13.5.604.573Zm-.721-23.948v23.661h.839v-23.661h-.839Zm.736 39.253 13.28-15.016-.634-.541-13.279 15.015.633.542Zm.103 23.39v-23.661h-.839v23.661h.839Zm12.559-13.786-13.281 13.5.604.573 13.28-13.499-.603-.574Zm-.118-24.89v25.177h.84v-25.177h-.84Zm9.06-123.18 13.589-13.803-.604-.574-13.589 13.802.604.575Zm.118 24.74v-25.027h-.839v25.027h.839Zm12.866-14.24-13.59 13.954.607.57 13.589-13.954-.606-.57Zm-.117-24.59v24.875h.839v-24.875h-.839Zm.118 35.205-13.589 13.803.604.573 13.589-13.802-.604-.574Zm.721 25.162v-24.875h-.839v24.875h.839Zm-13.705 14.24 13.589-13.955-.606-.57-13.59 13.954.607.571Zm-.722-25.312v25.026h.839v-25.026h-.839Zm.721 39.42 13.589-13.802-.604-.575-13.589 13.804.604.573Zm.118 24.74v-25.027h-.839v25.027h.839Zm12.866-14.24-13.59 13.954.607.571 13.589-13.954-.606-.571Zm-.117-24.589v24.875h.839v-24.875h-.839Zm.118 38.694-13.589 13.803.604.574 13.589-13.802-.604-.575Zm.721 25.163v-24.876h-.839v24.876h.839Zm-13.705 14.239 13.589-13.954-.606-.571-13.59 13.954.607.571Zm-.722-25.312v25.027h.839v-25.027h-.839Z" fill="#000"/>
      <path d="M50.6628 678.476v-127.28L176.17 413.908v128.883L50.6628 678.476Z" fill="url(#s)" stroke="#000"/>
      <path d="M176.169 413.908v132.885l132.842 55.235V469.143l-132.842-55.235Z" fill="url(#t)" stroke="#000"/>
      <path fill-rule="evenodd" clip-rule="evenodd" d="m196.732 443.494-12.412-4.382v21.527l12.412 4.762v-21.907Zm0 30.861-12.412-4.381v21.525l12.412 4.763v-21.907Zm-12.412 27.812 12.412 4.382v21.907l-12.412-4.762v-21.527Zm12.412 35.243-12.412-4.381v21.525l12.412 4.763V537.41Zm9.309-89.154 11.248 4.382v21.526l-11.248-4.953v-20.955Zm11.248 35.243-11.248-4.382v20.955l11.248 4.953v-21.526Zm-11.248 27.812 11.248 4.382v21.526l-11.248-4.953v-20.955Zm31.806-49.53-11.443-4.952v20.955l11.443 5.333v-21.336Zm-11.443 25.909 11.443 4.952v21.336l-11.443-5.334V487.69Zm11.443 37.146-11.443-4.952v20.955l11.443 5.333v-21.336Zm9.503-59.435 11.637 4.762v20.765l-11.637-4.191v-21.336Zm11.637 35.623-11.637-4.762v21.336l11.637 4.191v-20.765Zm-11.637 27.432 11.637 4.762v20.764l-11.637-4.19v-21.336Zm31.806-50.292-10.86-4.191v21.336l10.86 4.763v-21.908Zm-10.86 26.671 10.86 4.191v21.907l-10.86-4.763v-21.335Zm32.001-17.908-11.638-4.572v21.717l11.638 4.572v-21.717Zm-11.638 26.29 11.638 4.571v21.717l-11.638-4.572v-21.716Z" fill="url(#u)" fill-opacity=".2"/>
      <path d="m184.32 439.112.142-.388-.562-.199v.587h.42Zm12.412 4.382h.419v-.29l-.277-.098-.142.388Zm-12.412 17.145h-.42v.282l.267.102.153-.384Zm12.412 4.762-.153.384.572.22v-.604h-.419Zm-12.412 4.573.142-.389-.562-.198v.587h.42Zm12.412 4.381h.419v-.29l-.277-.099-.142.389Zm-12.412 17.144h-.42v.282l.267.103.153-.385Zm12.412 4.763-.153.385.572.219v-.604h-.419Zm0 10.286h.419v-.289l-.277-.098-.142.387Zm-12.412-4.381.142-.388-.562-.199v.587h.42Zm12.412 26.289-.153.384.572.22v-.604h-.419Zm-12.412-4.763h-.42v.283l.267.102.153-.385Zm0 9.335.142-.388-.562-.198v.586h.42Zm12.412 4.382h.419v-.29l-.277-.099-.142.389Zm-12.412 17.144h-.42v.282l.267.103.153-.385Zm12.412 4.763-.153.384.572.22v-.604h-.419Zm20.557-106.679h.42v-.28l-.265-.104-.155.384Zm-11.248-4.382.154-.383-.574-.224v.607h.42Zm11.248 25.908-.171.377.591.26v-.637h-.42Zm-11.248-4.953h-.42v.267l.248.109.172-.376Zm0 9.906.154-.384-.574-.223v.607h.42Zm11.248 4.382h.42v-.28l-.265-.103-.155.383Zm-11.248 16.573h-.42v.267l.248.11.172-.377Zm11.248 4.953-.171.376.591.261v-.637h-.42Zm0 10.668h.42v-.281l-.265-.103-.155.384Zm-11.248-4.382.154-.384-.574-.223v.607h.42Zm11.248 25.908-.171.377.591.26v-.637h-.42Zm-11.248-4.953h-.42v.267l.248.109.172-.376Zm20.363-75.437.17-.377-.59-.255v.632h.42Zm11.443 4.952h.42v-.269l-.251-.109-.169.378Zm-11.443 16.003h-.42v.26l.241.113.179-.373Zm11.443 5.333-.179.373.599.279v-.652h-.42Zm0 9.525h.42v-.269l-.251-.108-.169.377Zm-11.443-4.952.17-.378-.59-.255v.633h.42Zm11.443 26.288-.179.373.599.28v-.653h-.42Zm-11.443-5.334h-.42v.261l.241.112.179-.373Zm0 11.24.17-.378-.59-.254v.632h.42Zm11.443 4.952h.42v-.269l-.251-.109-.169.378Zm-11.443 16.002h-.42v.261l.241.112.179-.373Zm11.443 5.334-.179.373.599.279v-.652h-.42Zm21.14-76.009h.42v-.275l-.259-.106-.161.381Zm-11.637-4.762.162-.381-.581-.238v.619h.419Zm11.637 25.526-.145.388.565.203v-.591h-.42Zm-11.637-4.19h-.419v.288l.275.099.144-.387Zm0 9.525.162-.381-.581-.238v.619h.419Zm11.637 4.762h.42v-.275l-.259-.105-.161.38Zm-11.637 16.574h-.419v.288l.275.099.144-.387Zm11.637 4.191-.145.387.565.203v-.59h-.42Zm0 11.429h.42v-.275l-.259-.106-.161.381Zm-11.637-4.763.162-.38-.581-.238v.618h.419Zm11.637 25.527-.145.388.565.203v-.591h-.42Zm-11.637-4.191h-.419v.289l.275.099.144-.388Zm20.946-75.818.153-.384-.573-.221v.605h.42Zm10.86 4.191h.42v-.281l-.266-.103-.154.384Zm-10.86 17.145h-.42v.268l.249.109.171-.377Zm10.86 4.763-.17.376.59.259v-.635h-.42Zm0 8.954h.42v-.282l-.266-.103-.154.385Zm-10.86-4.191.153-.385-.573-.221v.606h.42Zm10.86 26.098-.17.377.59.259v-.636h-.42Zm-10.86-4.763h-.42v.268l.249.109.171-.377Zm20.363-43.815.157-.383-.576-.226v.609h.419Zm11.638 4.572h.419v-.28l-.264-.104-.155.384Zm-11.638 17.145h-.419v.279l.264.104.155-.383Zm11.638 4.572-.157.383.576.226v-.609h-.419Zm0 9.144h.419v-.28l-.264-.103-.155.383Zm-11.638-4.571.157-.384-.576-.226v.61h.419Zm11.638 26.288-.157.383.576.226v-.609h-.419Zm-11.638-4.572h-.419v.28l.264.103.155-.383Zm-104.481-95.432 12.412 4.381.284-.776-12.412-4.382-.284.777Zm.561 21.138v-21.527h-.839v21.527h.839Zm12.145 4.378-12.412-4.763-.305.769 12.412 4.762.305-.768Zm-.572-21.523v21.907h.839v-21.907h-.839Zm-12.134 26.867 12.412 4.382.284-.777-12.412-4.381-.284.776Zm.561 21.138v-21.525h-.839v21.525h.839Zm12.145 4.379-12.412-4.762-.305.768 12.412 4.763.305-.769Zm-.572-21.523v21.907h.839v-21.907h-.839Zm.562 31.806-12.412-4.382-.284.776 12.412 4.382.284-.776Zm.277 22.295v-21.908h-.839v21.908h.839Zm-12.984-4.378 12.412 4.762.305-.768-12.412-4.763-.305.769Zm-.267-21.911v21.526h.839v-21.526h-.839Zm.278 31.249 12.412 4.382.284-.777-12.412-4.381-.284.776Zm.561 21.138v-21.526h-.839v21.526h.839Zm12.145 4.378-12.412-4.762-.305.769 12.412 4.762.305-.769Zm-.572-21.522v21.907h.839V537.41h-.839Zm21.132-85.156-11.249-4.381-.309.767 11.249 4.382.309-.768Zm.265 21.91v-21.526h-.84v21.526h.84Zm-11.84-4.577 11.249 4.954.343-.754-11.248-4.952-.344.752Zm-.248-21.331v20.955h.84v-20.955h-.84Zm.265 31.245 11.249 4.381.309-.766-11.249-4.383-.309.768Zm.575 20.571v-20.955h-.84v20.955h.84Zm11 4.576-11.248-4.952-.344.753 11.249 4.952.343-.753Zm-.592-21.149v21.526h.84v-21.526h-.84Zm.575 31.81-11.249-4.382-.309.768 11.249 4.381.309-.767Zm.265 21.91v-21.526h-.84v21.526h.84Zm-11.84-4.577 11.249 4.954.343-.754-11.248-4.952-.344.752Zm-.248-21.331v20.955h.84v-20.955h-.84Zm20.615-54.104 11.442 4.951.338-.755-11.442-4.951-.338.755Zm.588 20.577v-20.955h-.84v20.955h.84Zm11.203 4.96-11.442-5.333-.36.746 11.443 5.333.359-.746Zm-.599-20.963v21.336h.839v-21.336h-.839Zm.588 30.484-11.442-4.953-.338.755 11.442 4.953.338-.755Zm.251 21.713v-21.336h-.839v21.336h.839Zm-12.042-4.961 11.443 5.334.359-.746-11.442-5.334-.36.746Zm-.241-21.327v20.954h.84V487.69h-.84Zm.252 32.572 11.442 4.951.338-.755-11.442-4.952-.338.756Zm.588 20.576v-20.954h-.84v20.954h.84Zm11.203 4.961-11.442-5.333-.36.745 11.443 5.334.359-.746Zm-.599-20.963v21.336h.839v-21.336h-.839Zm21.72-55.054-11.636-4.762-.323.762 11.637 4.762.322-.762Zm.259 21.145v-20.764h-.84v20.764h.84Zm-12.201-3.803 11.636 4.191.289-.775-11.636-4.19-.289.774Zm-.275-21.723v21.336h.839v-21.336h-.839Zm.258 31.241 11.637 4.763.322-.761-11.636-4.763-.323.761Zm.581 20.956v-21.336h-.839v21.336h.839Zm11.361 3.803-11.636-4.191-.289.775 11.636 4.191.289-.775Zm-.564-20.377v20.765h.84v-20.765h-.84Zm.581 31.813-11.636-4.762-.323.762 11.637 4.762.322-.762Zm.259 21.145v-20.764h-.84v20.764h.84Zm-12.201-3.803 11.636 4.191.289-.775-11.636-4.191-.289.775Zm-.275-21.724v21.336h.839v-21.336h-.839Zm21.212-54.097 10.861 4.19.306-.768-10.861-4.191-.306.769Zm.573 20.951v-21.336h-.84v21.336h.84Zm10.612 4.386-10.861-4.762-.342.753 10.861 4.762.342-.753Zm-.591-21.531v21.908h.839v-21.908h-.839Zm.573 30.477-10.861-4.191-.306.768 10.861 4.191.306-.768Zm.266 22.292v-21.907h-.839v21.907h.839Zm-11.451-4.386 10.861 4.763.342-.755-10.861-4.762-.342.754Zm-.249-21.712v21.335h.84v-21.335h-.84Zm20.628-22.096 11.636 4.571.312-.767-11.636-4.571-.312.767Zm.575 21.333v-21.717h-.839v21.717h.839Zm11.373 4.189-11.636-4.572-.312.766 11.636 4.572.312-.766Zm-.575-21.334v21.717h.839v-21.717h-.839Zm.575 30.478-11.636-4.572-.312.766 11.636 4.572.312-.766Zm.264 22.1v-21.717h-.839v21.717h.839Zm-12.212-4.189 11.636 4.572.312-.766-11.636-4.572-.312.766Zm-.264-22.099v21.716h.839v-21.716h-.839Z" fill="#000"/>
      <path fill-rule="evenodd" clip-rule="evenodd" d="m154.165 459.138 10.595-11.208v19.212l-10.595 11.208v-19.212Zm-7.335 8.805-10.595 11.207v19.212l10.595-11.206v-19.213Zm-19.559 21.614-10.595 11.207v19.212l10.595-11.207v-19.212Zm-29.3396 32.02 10.5956-11.207v19.213L97.9314 541.59v-20.013Zm-19.8522 20.814 10.5943-11.208v20.813l-10.5943 10.407v-20.012Zm38.5968-11.208 10.595-11.207v19.212l-10.595 11.207v-19.212Zm19.559-21.614 10.595-11.207v19.213l-10.595 11.206v-19.212Zm10.595 20.814-10.595 11.206v19.213l10.595-11.207v-19.212Zm17.93-52.033-10.595 11.207v19.212l10.595-11.207V478.35Zm-10.595 43.227 10.595-11.207v19.213l-10.595 11.206v-19.212Z" fill="url(#v)" fill-opacity=".2"/>
      <path d="M164.76 447.93h.419v-1.05l-.727.77.308.28Zm-10.595 11.208-.307-.282-.113.119v.163h.42Zm10.595 8.004.308.281.111-.118v-.163h-.419Zm-10.595 11.208h-.42v1.05l.727-.77-.307-.28Zm-17.93.8-.307-.28-.112.118v.162h.419Zm10.595-11.207h.42v-1.05l-.727.769.307.281Zm-10.595 30.419h-.419v1.051l.727-.769-.308-.282Zm10.595-11.206.308.28.112-.119v-.161h-.42Zm-30.154 13.608-.307-.281-.113.119v.162h.42Zm10.595-11.207h.419v-1.051l-.727.77.308.281Zm-10.595 30.419h-.42v1.051l.728-.77-.308-.281Zm10.595-11.207.308.281.111-.119v-.162h-.419Zm-18.744 1.601h.419v-1.05l-.727.769.308.281Zm-10.5956 11.207-.3073-.281-.1125.119v.162h.4198Zm10.5956 8.006.316.269.103-.116v-.153h-.419ZM97.9314 541.59h-.4198v1.105l.7371-.835-.3173-.27Zm-9.2579-10.407h.4198v-1.05l-.727.769.3072.281Zm-10.5943 11.208-.3075-.282-.1123.119v.163h.4198Zm10.5943 9.605.2972.292.1226-.121v-.171h-.4198Zm-10.5943 10.407h-.4198v.996l.7166-.704-.2968-.292Zm49.1918-42.427h.419v-1.05l-.727.77.308.28Zm-10.595 11.207-.307-.281-.113.119v.162h.42Zm10.595 8.005.308.281.111-.119v-.162h-.419Zm-10.595 11.207h-.42v1.051l.728-.77-.308-.281Zm30.154-52.033h.42v-1.049l-.727.769.307.28Zm-10.595 11.207-.307-.28-.112.119v.161h.419Zm10.595 8.006.308.281.112-.119v-.162h-.42Zm-10.595 11.206h-.419v1.051l.727-.769-.308-.282Zm0 12.808-.307-.28-.112.119v.161h.419Zm10.595-11.206h.42v-1.05l-.727.769.307.281Zm-10.595 30.419h-.419v1.05l.727-.769-.308-.281Zm10.595-11.207.308.281.112-.119v-.162h-.42Zm7.335-60.038-.307-.281-.113.118v.163h.42Zm10.595-11.207h.419v-1.051l-.727.77.308.281Zm-10.595 30.419h-.42v1.05l.727-.769-.307-.281Zm10.595-11.207.308.281.111-.119v-.162h-.419Zm0 12.808h.419v-1.05l-.727.769.308.281Zm-10.595 11.207-.307-.281-.113.119v.162h.42Zm10.595 8.006.308.28.111-.119v-.161h-.419Zm-10.595 11.206h-.42v1.05l.727-.769-.307-.281Zm10.287-93.139-10.594 11.206.614.562 10.596-11.207-.616-.561Zm.727 19.492V447.93h-.839v19.212h.839Zm-10.707 11.488 10.596-11.207-.616-.561-10.594 11.207.614.561Zm-.727-19.492v19.212h.84v-19.212h-.84Zm-17.202 20.293 10.595-11.207-.615-.562-10.595 11.208.615.561Zm.112 18.931V479.15h-.839v19.212h.839Zm9.868-11.488-10.595 11.208.615.562 10.595-11.208-.615-.562Zm-.113-18.931v19.213h.84v-19.213h-.84Zm-29.426 33.102 10.595-11.208-.616-.561-10.594 11.207.615.562Zm.112 18.931v-19.212h-.84v19.212h.84Zm9.867-11.488-10.594 11.208.615.561 10.595-11.207-.616-.562Zm-.112-18.931v19.212h.839v-19.212h-.839Zm-18.632 20.532-10.5949 11.207.6154.562 10.5945-11.207-.615-.562Zm.727 19.494V510.37h-.839v19.213h.839ZM98.2487 541.86l10.5943-12.008-.634-.54-10.5941 12.008.6338.54Zm-.7371-20.283v20.013h.8396v-20.013h-.8396Zm-9.1453 9.325-10.5946 11.207.615.562 10.595-11.207-.6154-.562Zm.727 21.094v-20.813h-.8395v20.813h.8395ZM78.376 562.695l10.5947-10.407-.5935-.583-10.5947 10.406.5935.584Zm-.7166-20.304v20.012h.8396v-20.012h-.8396Zm49.3036-22.695-10.594 11.206.615.562 10.595-11.207-.616-.561Zm.727 19.492v-19.212h-.839v19.212h.839Zm-10.706 11.488 10.595-11.207-.616-.561-10.594 11.207.615.561Zm-.728-19.493v19.212h.84v-19.212h-.84Zm30.267-33.101-10.595 11.207.615.562 10.595-11.207-.615-.562Zm.727 19.493v-19.213h-.84v19.213h.84Zm-10.707 11.488 10.595-11.207-.615-.562-10.595 11.207.615.562Zm-.727-19.494v19.212h.839v-19.212h-.839Zm.727 32.302 10.595-11.207-.615-.562-10.595 11.207.615.562Zm.112 18.931v-19.213h-.839v19.213h.839Zm9.868-11.488-10.595 11.207.615.562 10.595-11.207-.615-.562Zm-.113-18.931v19.212h.84v-19.212h-.84Zm8.062-40.546 10.596-11.207-.616-.561-10.594 11.207.614.561Zm.113 18.932v-19.212h-.84v19.212h.84Zm9.867-11.488-10.594 11.207.614.562 10.596-11.207-.616-.562Zm-.112-18.931v19.212h.839V478.35h-.839Zm.112 31.739-10.594 11.207.614.562 10.596-11.207-.616-.562Zm.727 19.494V510.37h-.839v19.213h.839Zm-10.707 11.487 10.596-11.207-.616-.562-10.594 11.207.614.562Zm-.727-19.493v19.212h.84v-19.212h-.84Z" fill="#000"/>
    </g>
  </g>
  <defs>
    <linearGradient id="c" x1="154.031" y1="0" x2="56.5161" y2="179.991" gradientUnits="userSpaceOnUse">
      <stop stop-color="#333E48"/>
      <stop offset="1" stop-color="#96A5B3"/>
    </linearGradient>
    <linearGradient id="d" x1="154.031" y1="83.2531" x2="15.3402" y2="317.954" gradientUnits="userSpaceOnUse">
      <stop stop-color="#333E48"/>
      <stop offset="1" stop-color="#96A5B3"/>
    </linearGradient>
    <linearGradient id="e" x1="207.616" y1="0" x2="207.616" y2="127.281" gradientUnits="userSpaceOnUse">
      <stop stop-color="#fff"/>
      <stop offset="1" stop-color="#EAEAEA"/>
    </linearGradient>
    <linearGradient id="f" x1="212.547" y1="35.3225" x2="237.089" y2="111.016" gradientUnits="userSpaceOnUse">
      <stop stop-color="#E7ECFF"/>
      <stop offset=".4082" stop-color="#008DFF"/>
      <stop offset="1" stop-color="#001970"/>
    </linearGradient>
    <linearGradient id="g" x1="181.337" y1="116.139" x2="219.156" y2="267.693" gradientUnits="userSpaceOnUse">
      <stop stop-color="#E8EAEC"/>
      <stop offset="1" stop-color="#D3DADF"/>
    </linearGradient>
    <linearGradient id="h" x1="226.548" y1="128.082" x2="272.058" y2="242.605" gradientUnits="userSpaceOnUse">
      <stop stop-color="#E7ECFF"/>
      <stop offset=".4082" stop-color="#008DFF"/>
      <stop offset="1" stop-color="#001970"/>
    </linearGradient>
    <linearGradient id="i" x1="233.899" y1="212.135" x2="233.899" y2="607.586" gradientUnits="userSpaceOnUse">
      <stop stop-color="#F4F4F4"/>
      <stop offset="1" stop-color="#96A5B3"/>
    </linearGradient>
    <linearGradient id="j" x1="239.326" y1="284.859" x2="312.807" y2="436.82" gradientUnits="userSpaceOnUse">
      <stop stop-color="#E7ECFF"/>
      <stop offset=".4082" stop-color="#008DFF"/>
      <stop offset="1" stop-color="#001970"/>
    </linearGradient>
    <linearGradient id="k" x1="106.85" y1="44.212" x2="160.444" y2="146.74" gradientUnits="userSpaceOnUse">
      <stop stop-color="#E7ECFF"/>
      <stop offset=".4082" stop-color="#008DFF"/>
      <stop offset="1" stop-color="#001970"/>
    </linearGradient>
    <linearGradient id="l" x1="95.1121" y1="142.025" x2="177.357" y2="278.04" gradientUnits="userSpaceOnUse">
      <stop stop-color="#E7ECFF"/>
      <stop offset=".4082" stop-color="#008DFF"/>
      <stop offset="1" stop-color="#001970"/>
    </linearGradient>
    <linearGradient id="m" x1="389.967" y1="278.177" x2="38.2719" y2="619.017" gradientUnits="userSpaceOnUse">
      <stop stop-color="#333E48"/>
      <stop offset="1" stop-color="#96A5B3"/>
    </linearGradient>
    <linearGradient id="n" x1="365.263" y1="278.615" x2="365.263" y2="506.718" gradientUnits="userSpaceOnUse">
      <stop stop-color="#F4F4F4"/>
      <stop offset="1" stop-color="#96A5B3"/>
    </linearGradient>
    <linearGradient id="o" x1="363.153" y1="328.132" x2="431.761" y2="358.43" gradientUnits="userSpaceOnUse">
      <stop stop-color="#E7ECFF"/>
      <stop offset=".4082" stop-color="#008DFF"/>
      <stop offset="1" stop-color="#001970"/>
    </linearGradient>
    <linearGradient id="p" x1="290.234" y1="337.838" x2="376.151" y2="465.501" gradientUnits="userSpaceOnUse">
      <stop stop-color="#E7ECFF"/>
      <stop offset=".4082" stop-color="#008DFF"/>
      <stop offset="1" stop-color="#001970"/>
    </linearGradient>
    <linearGradient id="q" x1="150.771" y1="212.135" x2="-217.559" y2="530.634" gradientUnits="userSpaceOnUse">
      <stop stop-color="#333E48"/>
      <stop offset="1" stop-color="#96A5B3"/>
    </linearGradient>
    <linearGradient id="r" x1="81.6622" y1="299.803" x2="188.715" y2="467.896" gradientUnits="userSpaceOnUse">
      <stop stop-color="#E7ECFF"/>
      <stop offset=".4082" stop-color="#008DFF"/>
      <stop offset="1" stop-color="#001970"/>
    </linearGradient>
    <linearGradient id="s" x1="176.17" y1="413.908" x2="37.4789" y2="648.611" gradientUnits="userSpaceOnUse">
      <stop stop-color="#333E48"/>
      <stop offset="1" stop-color="#96A5B3"/>
    </linearGradient>
    <linearGradient id="t" x1="203.476" y1="446.794" x2="241.294" y2="598.349" gradientUnits="userSpaceOnUse">
      <stop stop-color="#E8EAEC"/>
      <stop offset="1" stop-color="#D3DADF"/>
    </linearGradient>
    <linearGradient id="u" x1="248.686" y1="452.107" x2="274.946" y2="541.958" gradientUnits="userSpaceOnUse">
      <stop stop-color="#E7ECFF"/>
      <stop offset=".4082" stop-color="#008DFF"/>
      <stop offset="1" stop-color="#001970"/>
    </linearGradient>
    <linearGradient id="v" x1="126.187" y1="460.306" x2="156.56" y2="541.869" gradientUnits="userSpaceOnUse">
      <stop stop-color="#E7ECFF"/>
      <stop offset=".4082" stop-color="#008DFF"/>
      <stop offset="1" stop-color="#001970"/>
    </linearGradient>
    <clipPath id="a">
      <path fill="#fff" d="M0 0h382v538H0z"/>
    </clipPath>
  </defs>
</svg>
